RobotoSlab-Regular.ufo
<glyph name="quotedbl" format="2">
  <advance width="765"/>
  <unicode hex="0022"/>
  <outline>
    <contour>
      <point x="324" y="1290" type="line"/>
      <point x="263" y="1040" type="line"/>
      <point x="166" y="1040" type="line"/>
      <point x="166" y="1560" type="line"/>
      <point x="324" y="1560" type="line"/>
    </contour>
    <contour>
      <point x="632" y="1290" type="line"/>
      <point x="571" y="1040" type="line"/>
      <point x="474" y="1040" type="line"/>
      <point x="474" y="1560" type="line"/>
      <point x="632" y="1560" type="line"/>
    </contour>
  </outline>
</glyph>
<glyph name="numbersign" format="1">
  <advance width="1246"/>
  <unicode hex="0023"/>
  <outline>
    <contour>
      <point x="705" y="410" type="line"/>
      <point x="449" y="410" type="line"/>
      <point x="369" y="0" type="line"/>
      <point x="218" y="0" type="line"/>
      <point x="298" y="410" type="line"/>
      <point x="63" y="410" type="line"/>
      <point x="63" y="550" type="line"/>
      <point x="326" y="550" type="line"/>
      <point x="394" y="898" type="line"/>
      <point x="139" y="898" type="line"/>
      <point x="139" y="1040" type="line"/>
      <point x="422" y="1040" type="line"/>
      <point x="504" y="1456" type="line"/>
      <point x="655" y="1456" type="line"/>
      <point x="573" y="1040" type="line"/>
      <point x="828" y="1040" type="line"/>
      <point x="910" y="1456" type="line"/>
      <point x="1061" y="1456" type="line"/>
      <point x="979" y="1040" type="line"/>
      <point x="1179" y="1040" type="line"/>
      <point x="1179" y="898" type="line"/>
      <point x="952" y="898" type="line"/>
      <point x="884" y="550" type="line"/>
      <point x="1104" y="550" type="line"/>
      <point x="1104" y="410" type="line"/>
      <point x="856" y="410" type="line"/>
      <point x="776" y="0" type="line"/>
      <point x="625" y="0" type="line"/>
    </contour>
    <contour>
      <point x="477" y="550" type="line"/>
      <point x="733" y="550" type="line"/>
      <point x="801" y="898" type="line"/>
      <point x="545" y="898" type="line"/>
    </contour>
  </outline>
</glyph>
<glyph name="dollar" format="2">
  <advance width="1110"/>
  <unicode hex="0024"/>
  <outline>
    <contour>
      <point x="815" y="376" type="qcurve" smooth="yes"/>
      <point x="815" y="466"/>
      <point x="688" y="593"/>
      <point x="541" y="643" type="qcurve" smooth="yes"/>
      <point x="339" y="704"/>
      <point x="133" y="908"/>
      <point x="133" y="1078" type="qcurve" smooth="yes"/>
      <point x="133" y="1243"/>
      <point x="323" y="1451"/>
      <point x="489" y="1472" type="qcurve"/>
      <point x="489" y="1693" type="line"/>
      <point x="647" y="1693" type="line"/>
      <point x="647" y="1471" type="line"/>
      <point x="814" y="1447"/>
      <point x="999" y="1208"/>
      <point x="999" y="1007" type="qcurve"/>
      <point x="803" y="1007" type="line"/>
      <point x="803" y="1143"/>
      <point x="678" y="1311"/>
      <point x="566" y="1311" type="qcurve" smooth="yes"/>
      <point x="448" y="1311"/>
      <point x="330" y="1188"/>
      <point x="330" y="1081" type="qcurve" smooth="yes"/>
      <point x="330" y="984"/>
      <point x="452" y="864"/>
      <point x="610" y="810" type="qcurve" smooth="yes"/>
      <point x="814" y="744"/>
      <point x="1012" y="547"/>
      <point x="1012" y="378" type="qcurve" smooth="yes"/>
      <point x="1012" y="206"/>
      <point x="806" y="2"/>
      <point x="626" y="-17" type="qcurve"/>
      <point x="626" y="-208" type="line"/>
      <point x="470" y="-208" type="line"/>
      <point x="470" y="-17" type="line"/>
      <point x="298" y="1"/>
      <point x="78" y="216"/>
      <point x="82" y="424" type="qcurve"/>
      <point x="84" y="429" type="line"/>
      <point x="274" y="429" type="line"/>
      <point x="274" y="275"/>
      <point x="429" y="144"/>
      <point x="542" y="144" type="qcurve" smooth="yes"/>
      <point x="671" y="144"/>
      <point x="815" y="267"/>
    </contour>
  </outline>
</glyph>
<glyph name="percent" format="2">
  <advance width="1460"/>
  <unicode hex="0025"/>
  <outline>
    <contour>
      <point x="77" y="1176" type="line" smooth="yes"/>
      <point x="77" y="1303"/>
      <point x="241" y="1477"/>
      <point x="377" y="1477" type="qcurve" smooth="yes"/>
      <point x="515" y="1477"/>
      <point x="679" y="1304"/>
      <point x="679" y="1176" type="qcurve" smooth="yes"/>
      <point x="679" y="1099" type="line" smooth="yes"/>
      <point x="679" y="972"/>
      <point x="515" y="800"/>
      <point x="379" y="800" type="qcurve" smooth="yes"/>
      <point x="242" y="800"/>
      <point x="77" y="972"/>
      <point x="77" y="1099" type="qcurve" smooth="yes"/>
    </contour>
    <contour>
      <point x="223" y="1099" type="line" smooth="yes"/>
      <point x="223" y="1025"/>
      <point x="304" y="922"/>
      <point x="379" y="922" type="qcurve" smooth="yes"/>
      <point x="452" y="922"/>
      <point x="533" y="1024"/>
      <point x="533" y="1099" type="qcurve" smooth="yes"/>
      <point x="533" y="1176" type="line" smooth="yes"/>
      <point x="533" y="1250"/>
      <point x="451" y="1355"/>
      <point x="377" y="1355" type="qcurve" smooth="yes"/>
      <point x="303" y="1355"/>
      <point x="223" y="1250"/>
      <point x="223" y="1176" type="qcurve" smooth="yes"/>
    </contour>
    <contour>
      <point x="782" y="357" type="line" smooth="yes"/>
      <point x="782" y="483"/>
      <point x="946" y="657"/>
      <point x="1082" y="657" type="qcurve" smooth="yes"/>
      <point x="1219" y="657"/>
      <point x="1384" y="484"/>
      <point x="1384" y="357" type="qcurve" smooth="yes"/>
      <point x="1384" y="279" type="line" smooth="yes"/>
      <point x="1384" y="151"/>
      <point x="1220" y="-21"/>
      <point x="1084" y="-21" type="qcurve" smooth="yes"/>
      <point x="946" y="-21"/>
      <point x="782" y="151"/>
      <point x="782" y="279" type="qcurve" smooth="yes"/>
    </contour>
    <contour>
      <point x="928" y="279" type="line" smooth="yes"/>
      <point x="928" y="204"/>
      <point x="1009" y="101"/>
      <point x="1084" y="101" type="qcurve" smooth="yes"/>
      <point x="1158" y="101"/>
      <point x="1238" y="204"/>
      <point x="1238" y="279" type="qcurve" smooth="yes"/>
      <point x="1238" y="357" type="line" smooth="yes"/>
      <point x="1238" y="431"/>
      <point x="1156" y="535"/>
      <point x="1082" y="535" type="qcurve" smooth="yes"/>
      <point x="1008" y="535"/>
      <point x="928" y="431"/>
      <point x="928" y="357" type="qcurve" smooth="yes"/>
    </contour>
    <contour>
      <point x="442" y="110" type="line"/>
      <point x="333" y="177" type="line"/>
      <point x="1044" y="1315" type="line"/>
      <point x="1153" y="1248" type="line"/>
    </contour>
  </outline>
</glyph>
<glyph name="ampersand" format="2">
  <advance width="1289"/>
  <unicode hex="0026"/>
  <outline>
    <contour>
      <point x="74" y="392" type="qcurve" smooth="yes"/>
      <point x="74" y="514"/>
      <point x="215" y="697"/>
      <point x="355" y="789" type="qcurve"/>
      <point x="277" y="888"/>
      <point x="201" y="1043"/>
      <point x="201" y="1125" type="qcurve" smooth="yes"/>
      <point x="201" y="1294"/>
      <point x="396" y="1477"/>
      <point x="567" y="1477" type="qcurve" smooth="yes"/>
      <point x="725" y="1477"/>
      <point x="923" y="1295"/>
      <point x="923" y="1167" type="qcurve" smooth="yes"/>
      <point x="923" y="1069"/>
      <point x="818" y="926"/>
      <point x="715" y="851" type="qcurve" smooth="yes"/>
      <point x="606" y="771" type="line"/>
      <point x="946" y="362" type="line"/>
      <point x="987" y="427"/>
      <point x="1033" y="585"/>
      <point x="1033" y="673" type="qcurve"/>
      <point x="1209" y="673" type="line"/>
      <point x="1209" y="542"/>
      <point x="1131" y="318"/>
      <point x="1057" y="229" type="qcurve"/>
      <point x="1242" y="5" type="line"/>
      <point x="1240" y="0" type="line"/>
      <point x="1011" y="0" type="line"/>
      <point x="926" y="102" type="line"/>
      <point x="846" y="42"/>
      <point x="652" y="-21"/>
      <point x="548" y="-21" type="qcurve" smooth="yes"/>
      <point x="331" y="-21"/>
      <point x="74" y="209"/>
    </contour>
    <contour>
      <point x="548" y="133" type="qcurve" smooth="yes"/>
      <point x="620" y="133"/>
      <point x="760" y="182"/>
      <point x="822" y="228" type="qcurve"/>
      <point x="461" y="663" type="line"/>
      <point x="421" y="634" type="line" smooth="yes"/>
      <point x="330" y="566"/>
      <point x="271" y="442"/>
      <point x="271" y="392" type="qcurve" smooth="yes"/>
      <point x="271" y="279"/>
      <point x="413" y="133"/>
    </contour>
    <contour>
      <point x="398" y="1127" type="qcurve" smooth="yes"/>
      <point x="398" y="1074"/>
      <point x="452" y="959"/>
      <point x="506" y="891" type="qcurve"/>
      <point x="644" y="986" type="line" smooth="yes"/>
      <point x="701" y="1024"/>
      <point x="742" y="1113"/>
      <point x="742" y="1167" type="qcurve" smooth="yes"/>
      <point x="742" y="1228"/>
      <point x="645" y="1322"/>
      <point x="567" y="1322" type="qcurve" smooth="yes"/>
      <point x="486" y="1322"/>
      <point x="398" y="1209"/>
    </contour>
  </outline>
</glyph>
<glyph name="quotesingle" format="1">
  <advance width="460"/>
  <unicode hex="0027"/>
  <outline>
    <contour>
      <point x="324" y="1337" type="line"/>
      <point x="263" y="1055" type="line"/>
      <point x="166" y="1055" type="line"/>
      <point x="166" y="1560" type="line"/>
      <point x="324" y="1560" type="line"/>
    </contour>
  </outline>
</glyph>
<glyph name="parenleft" format="2">
  <advance width="662"/>
  <unicode hex="0028"/>
  <outline>
    <contour>
      <point x="114" y="591" type="line" smooth="yes"/>
      <point x="114" y="985"/>
      <point x="432" y="1543"/>
      <point x="607" y="1636" type="qcurve"/>
      <point x="613" y="1635" type="line"/>
      <point x="650" y="1519" type="line"/>
      <point x="513" y="1412"/>
      <point x="311" y="940"/>
      <point x="311" y="593" type="qcurve" smooth="yes"/>
      <point x="311" y="580" type="line" smooth="yes"/>
      <point x="311" y="232"/>
      <point x="512" y="-239"/>
      <point x="650" y="-355" type="qcurve"/>
      <point x="613" y="-463" type="line"/>
      <point x="607" y="-463" type="line"/>
      <point x="432" y="-370"/>
      <point x="114" y="187"/>
      <point x="114" y="582" type="qcurve" smooth="yes"/>
    </contour>
  </outline>
</glyph>
<glyph name="parenright" format="2">
  <advance width="654"/>
  <unicode hex="0029"/>
  <outline>
    <contour>
      <point x="547" y="582" type="line" smooth="yes"/>
      <point x="547" y="187"/>
      <point x="228" y="-370"/>
      <point x="54" y="-463" type="qcurve"/>
      <point x="48" y="-463" type="line"/>
      <point x="11" y="-355" type="line"/>
      <point x="146" y="-250"/>
      <point x="350" y="231"/>
      <point x="350" y="580" type="qcurve" smooth="yes"/>
      <point x="350" y="593" type="line" smooth="yes"/>
      <point x="350" y="936"/>
      <point x="140" y="1418"/>
      <point x="11" y="1528" type="qcurve"/>
      <point x="48" y="1636" type="line"/>
      <point x="54" y="1636" type="line"/>
      <point x="228" y="1543"/>
      <point x="547" y="985"/>
      <point x="547" y="591" type="qcurve" smooth="yes"/>
    </contour>
  </outline>
</glyph>
<glyph name="plus" format="1">
  <advance width="1145"/>
  <unicode hex="002B"/>
  <outline>
    <contour>
      <point x="671" y="783" type="line"/>
      <point x="1071" y="783" type="line"/>
      <point x="1071" y="605" type="line"/>
      <point x="671" y="605" type="line"/>
      <point x="671" y="146" type="line"/>
      <point x="474" y="146" type="line"/>
      <point x="474" y="605" type="line"/>
      <point x="73" y="605" type="line"/>
      <point x="73" y="783" type="line"/>
      <point x="474" y="783" type="line"/>
      <point x="474" y="1206" type="line"/>
      <point x="671" y="1206" type="line"/>
    </contour>
  </outline>
</glyph>
<glyph name="comma" format="2">
  <advance width="404"/>
  <unicode hex="002C"/>
  <outline>
    <contour>
      <point x="315" y="72" type="line" smooth="yes"/>
      <point x="315" y="-26"/>
      <point x="217" y="-240"/>
      <point x="134" y="-311" type="qcurve"/>
      <point x="23" y="-237" type="line"/>
      <point x="70" y="-165"/>
      <point x="118" y="-15"/>
      <point x="118" y="69" type="qcurve" smooth="yes"/>
      <point x="118" y="221" type="line"/>
      <point x="315" y="221" type="line"/>
    </contour>
  </outline>
</glyph>
<glyph name="zero" format="2">
  <advance width="1168"/>
  <unicode hex="0030"/>
  <outline>
    <contour>
      <point x="1048" y="555" type="line" smooth="yes"/>
      <point x="1048" y="276"/>
      <point x="800" y="-21"/>
      <point x="585" y="-21" type="qcurve" smooth="yes"/>
      <point x="371" y="-21"/>
      <point x="121" y="277"/>
      <point x="121" y="555" type="qcurve" smooth="yes"/>
      <point x="121" y="900" type="line" smooth="yes"/>
      <point x="121" y="1178"/>
      <point x="369" y="1477"/>
      <point x="583" y="1477" type="qcurve" smooth="yes"/>
      <point x="798" y="1477"/>
      <point x="1048" y="1178"/>
      <point x="1048" y="900" type="qcurve" smooth="yes"/>
    </contour>
    <contour>
      <point x="851" y="942" type="line" smooth="yes"/>
      <point x="851" y="1131"/>
      <point x="714" y="1322"/>
      <point x="583" y="1322" type="qcurve" smooth="yes"/>
      <point x="454" y="1322"/>
      <point x="318" y="1131"/>
      <point x="318" y="942" type="qcurve" smooth="yes"/>
      <point x="318" y="515" type="line" smooth="yes"/>
      <point x="318" y="326"/>
      <point x="456" y="133"/>
      <point x="585" y="133" type="qcurve" smooth="yes"/>
      <point x="716" y="133"/>
      <point x="851" y="325"/>
      <point x="851" y="515" type="qcurve" smooth="yes"/>
    </contour>
  </outline>
</glyph>
<glyph name="one" format="1">
  <advance width="844"/>
  <unicode hex="0031"/>
  <outline>
    <contour>
      <point x="121" y="126" type="line"/>
      <point x="346" y="154" type="line"/>
      <point x="346" y="1245" type="line"/>
      <point x="117" y="1241" type="line"/>
      <point x="117" y="1364" type="line"/>
      <point x="543" y="1456" type="line"/>
      <point x="543" y="154" type="line"/>
      <point x="767" y="126" type="line"/>
      <point x="767" y="0" type="line"/>
      <point x="121" y="0" type="line"/>
    </contour>
  </outline>
</glyph>
<glyph name="two" format="2">
  <advance width="1131"/>
  <unicode hex="0032"/>
  <outline>
    <contour>
      <point x="97" y="0" type="line"/>
      <point x="97" y="135" type="line"/>
      <point x="574" y="665" type="line" smooth="yes"/>
      <point x="702" y="808"/>
      <point x="793" y="976"/>
      <point x="793" y="1064" type="qcurve" smooth="yes"/>
      <point x="793" y="1173"/>
      <point x="665" y="1322"/>
      <point x="560" y="1322" type="qcurve" smooth="yes"/>
      <point x="409" y="1322"/>
      <point x="267" y="1168"/>
      <point x="267" y="1027" type="qcurve"/>
      <point x="78" y="1027" type="line"/>
      <point x="76" y="1033" type="line"/>
      <point x="71" y="1221"/>
      <point x="330" y="1477"/>
      <point x="560" y="1477" type="qcurve" smooth="yes"/>
      <point x="757" y="1477"/>
      <point x="990" y="1248"/>
      <point x="990" y="1071" type="qcurve" smooth="yes"/>
      <point x="990" y="952"/>
      <point x="849" y="714"/>
      <point x="721" y="576" type="qcurve" smooth="yes"/>
      <point x="338" y="159" type="line"/>
      <point x="340" y="154" type="line"/>
      <point x="857" y="154" type="line"/>
      <point x="873" y="321" type="line"/>
      <point x="1040" y="321" type="line"/>
      <point x="1040" y="0" type="line"/>
    </contour>
  </outline>
</glyph>
<glyph name="three" format="2">
  <advance width="1106"/>
  <unicode hex="0033"/>
  <outline>
    <contour>
      <point x="363" y="819" type="line"/>
      <point x="535" y="819" type="line" smooth="yes"/>
      <point x="666" y="819"/>
      <point x="775" y="950"/>
      <point x="775" y="1067" type="qcurve" smooth="yes"/>
      <point x="775" y="1192"/>
      <point x="651" y="1322"/>
      <point x="530" y="1322" type="qcurve" smooth="yes"/>
      <point x="415" y="1322"/>
      <point x="276" y="1187"/>
      <point x="276" y="1075" type="qcurve"/>
      <point x="87" y="1075" type="line"/>
      <point x="85" y="1081" type="line"/>
      <point x="80" y="1246"/>
      <point x="329" y="1477"/>
      <point x="530" y="1477" type="qcurve" smooth="yes"/>
      <point x="732" y="1477"/>
      <point x="972" y="1262"/>
      <point x="972" y="1063" type="qcurve" smooth="yes"/>
      <point x="972" y="973"/>
      <point x="863" y="794"/>
      <point x="754" y="747" type="qcurve"/>
      <point x="885" y="704"/>
      <point x="994" y="520"/>
      <point x="994" y="406" type="qcurve" smooth="yes"/>
      <point x="994" y="207"/>
      <point x="733" y="-21"/>
      <point x="530" y="-21" type="qcurve" smooth="yes"/>
      <point x="330" y="-21"/>
      <point x="70" y="194"/>
      <point x="75" y="378" type="qcurve"/>
      <point x="78" y="384" type="line"/>
      <point x="266" y="384" type="line"/>
      <point x="266" y="269"/>
      <point x="407" y="133"/>
      <point x="530" y="133" type="qcurve" smooth="yes"/>
      <point x="655" y="133"/>
      <point x="797" y="269"/>
      <point x="797" y="402" type="qcurve" smooth="yes"/>
      <point x="797" y="537"/>
      <point x="671" y="665"/>
      <point x="535" y="665" type="qcurve" smooth="yes"/>
      <point x="363" y="665" type="line"/>
    </contour>
  </outline>
</glyph>
<glyph name="four" format="1">
  <advance width="1187"/>
  <unicode hex="0034"/>
  <outline>
    <contour>
      <point x="913" y="490" type="line"/>
      <point x="1114" y="490" type="line"/>
      <point x="1114" y="336" type="line"/>
      <point x="913" y="336" type="line"/>
      <point x="913" y="154" type="line"/>
      <point x="1076" y="126" type="line"/>
      <point x="1076" y="0" type="line"/>
      <point x="554" y="0" type="line"/>
      <point x="554" y="126" type="line"/>
      <point x="717" y="154" type="line"/>
      <point x="717" y="336" type="line"/>
      <point x="63" y="336" type="line"/>
      <point x="63" y="447" type="line"/>
      <point x="705" y="1456" type="line"/>
      <point x="913" y="1456" type="line"/>
    </contour>
    <contour>
      <point x="273" y="490" type="line"/>
      <point x="717" y="490" type="line"/>
      <point x="717" y="1175" type="line"/>
      <point x="711" y="1177" type="line"/>
      <point x="691" y="1124" type="line"/>
    </contour>
  </outline>
</glyph>
<glyph name="five" format="2">
  <advance width="1081"/>
  <unicode hex="0035"/>
  <outline>
    <contour>
      <point x="819" y="1168" type="line"/>
      <point x="800" y="1281" type="line"/>
      <point x="365" y="1281" type="line"/>
      <point x="318" y="872" type="line"/>
      <point x="363" y="906"/>
      <point x="476" y="951"/>
      <point x="550" y="953" type="qcurve" smooth="yes"/>
      <point x="751" y="955"/>
      <point x="982" y="689"/>
      <point x="982" y="464" type="qcurve" smooth="yes"/>
      <point x="982" y="245"/>
      <point x="747" y="-21"/>
      <point x="522" y="-21" type="qcurve" smooth="yes"/>
      <point x="337" y="-21"/>
      <point x="92" y="181"/>
      <point x="97" y="377" type="qcurve"/>
      <point x="99" y="383" type="line"/>
      <point x="277" y="383" type="line"/>
      <point x="277" y="265"/>
      <point x="414" y="133"/>
      <point x="522" y="133" type="qcurve" smooth="yes"/>
      <point x="647" y="133"/>
      <point x="785" y="309"/>
      <point x="785" y="462" type="qcurve" smooth="yes"/>
      <point x="785" y="603"/>
      <point x="646" y="782"/>
      <point x="523" y="782" type="qcurve" smooth="yes"/>
      <point x="407" y="782"/>
      <point x="302" y="712"/>
      <point x="278" y="640" type="qcurve"/>
      <point x="114" y="657" type="line"/>
      <point x="198" y="1456" type="line"/>
      <point x="967" y="1456" type="line"/>
      <point x="967" y="1168" type="line"/>
    </contour>
  </outline>
</glyph>
<glyph name="six" format="1">
  <advance width="1144"/>
  <unicode hex="0036"/>
  <outline>
    <contour>
      <point x="664" y="1477" type="curve" smooth="yes"/>
      <point x="762.6666666666667" y="1477.0"/>
      <point x="869.0" y="1451.6666666666665"/>
      <point x="933" y="1417" type="curve"/>
      <point x="895" y="1270" type="line"/>
      <point x="832.3333333333333" y="1300.6666666666665"/>
      <point x="760.0" y="1322.0"/>
      <point x="664" y="1322" type="curve" smooth="yes"/>
      <point x="460.0" y="1322.0"/>
      <point x="332.0" y="1168.6666666666665"/>
      <point x="324" y="858" type="curve"/>
      <point x="328" y="854" type="line"/>
      <point x="402.66666666666663" y="923.3333333333333"/>
      <point x="514.6666666666667" y="967.0"/>
      <point x="640" y="967" type="curve" smooth="yes"/>
      <point x="900.0" y="967.0"/>
      <point x="1067.0" y="766.0"/>
      <point x="1067" y="490" type="curve" smooth="yes"/>
      <point x="1067.0" y="188.66666666666663"/>
      <point x="888.6666666666664" y="-21.0"/>
      <point x="614" y="-21" type="curve" smooth="yes"/>
      <point x="330.0" y="-21.0"/>
      <point x="121.0" y="194.33333333333337"/>
      <point x="121" y="573" type="curve" smooth="yes"/>
      <point x="121" y="769" type="line" smooth="yes"/>
      <point x="121.0" y="1230.3333333333333"/>
      <point x="345.33333333333337" y="1477.0"/>
    </contour>
    <contour>
      <point x="597" y="820" type="curve" smooth="yes"/>
      <point x="462.33333333333326" y="820.0"/>
      <point x="366.33333333333337" y="761.6666666666667"/>
      <point x="317" y="671" type="curve"/>
      <point x="317" y="554" type="line" smooth="yes"/>
      <point x="317.0" y="283.3333333333333"/>
      <point x="443.33333333333326" y="133.0"/>
      <point x="614" y="133" type="curve" smooth="yes"/>
      <point x="775.3333333333333" y="133.0"/>
      <point x="870.0" y="287.33333333333337"/>
      <point x="870" y="490" type="curve" smooth="yes"/>
      <point x="870.0" y="682.0"/>
      <point x="767.6666666666667" y="820.0"/>
    </contour>
  </outline>
</glyph>
<glyph name="seven" format="2">
  <advance width="1128"/>
  <unicode hex="0037"/>
  <outline>
    <contour>
      <point x="1060" y="1301" type="line"/>
      <point x="796" y="987"/>
      <point x="611" y="502"/>
      <point x="570" y="157" type="qcurve" smooth="yes"/>
      <point x="554" y="0" type="line"/>
      <point x="357" y="0" type="line"/>
      <point x="373" y="157" type="line" smooth="yes"/>
      <point x="415" y="501"/>
      <point x="657" y="1043"/>
      <point x="867" y="1301" type="qcurve"/>
      <point x="259" y="1301" type="line"/>
      <point x="244" y="1134" type="line"/>
      <point x="76" y="1134" type="line"/>
      <point x="76" y="1456" type="line"/>
      <point x="1060" y="1456" type="line"/>
    </contour>
  </outline>
</glyph>
<glyph name="eight" format="2">
  <advance width="1131"/>
  <unicode hex="0038"/>
  <outline>
    <contour>
      <point x="999" y="1076" type="qcurve" smooth="yes"/>
      <point x="999" y="962"/>
      <point x="871" y="791"/>
      <point x="762" y="749" type="qcurve"/>
      <point x="888" y="705"/>
      <point x="1039" y="517"/>
      <point x="1039" y="394" type="qcurve" smooth="yes"/>
      <point x="1039" y="192"/>
      <point x="776" y="-21"/>
      <point x="566" y="-21" type="qcurve" smooth="yes"/>
      <point x="352" y="-21"/>
      <point x="92" y="192"/>
      <point x="92" y="394" type="qcurve" smooth="yes"/>
      <point x="92" y="517"/>
      <point x="240" y="705"/>
      <point x="366" y="749" type="qcurve"/>
      <point x="257" y="791"/>
      <point x="133" y="962"/>
      <point x="133" y="1076" type="qcurve" smooth="yes"/>
      <point x="133" y="1268"/>
      <point x="370" y="1477"/>
      <point x="564" y="1477" type="qcurve" smooth="yes"/>
      <point x="756" y="1477"/>
      <point x="999" y="1268"/>
    </contour>
    <contour>
      <point x="843" y="398" type="qcurve" smooth="yes"/>
      <point x="843" y="518"/>
      <point x="685" y="672"/>
      <point x="564" y="672" type="qcurve" smooth="yes"/>
      <point x="442" y="672"/>
      <point x="289" y="519"/>
      <point x="289" y="398" type="qcurve" smooth="yes"/>
      <point x="289" y="274"/>
      <point x="440" y="133"/>
      <point x="566" y="133" type="qcurve" smooth="yes"/>
      <point x="689" y="133"/>
      <point x="843" y="275"/>
    </contour>
    <contour>
      <point x="802" y="1072" type="qcurve" smooth="yes"/>
      <point x="802" y="1180"/>
      <point x="667" y="1322"/>
      <point x="564" y="1322" type="qcurve" smooth="yes"/>
      <point x="459" y="1322"/>
      <point x="330" y="1185"/>
      <point x="330" y="1072" type="qcurve" smooth="yes"/>
      <point x="330" y="961"/>
      <point x="460" y="827"/>
      <point x="566" y="827" type="qcurve" smooth="yes"/>
      <point x="670" y="827"/>
      <point x="802" y="961"/>
    </contour>
  </outline>
</glyph>
<glyph name="nine" format="2">
  <advance width="1154"/>
  <unicode hex="0039"/>
  <outline>
    <contour>
      <point x="511" y="133" type="qcurve" smooth="yes"/>
      <point x="653" y="133"/>
      <point x="818" y="350"/>
      <point x="821" y="591" type="qcurve"/>
      <point x="817" y="596" type="line"/>
      <point x="777" y="529"/>
      <point x="633" y="457"/>
      <point x="543" y="457" type="qcurve" smooth="yes"/>
      <point x="330" y="457"/>
      <point x="84" y="720"/>
      <point x="84" y="958" type="qcurve" smooth="yes"/>
      <point x="84" y="1186"/>
      <point x="347" y="1477"/>
      <point x="535" y="1477" type="qcurve" smooth="yes"/>
      <point x="763" y="1477"/>
      <point x="1026" y="1192"/>
      <point x="1026" y="913" type="qcurve" smooth="yes"/>
      <point x="1026" y="650" type="line" smooth="yes"/>
      <point x="1026" y="309"/>
      <point x="745" y="-21"/>
      <point x="511" y="-21" type="qcurve" smooth="yes"/>
      <point x="435" y="-21"/>
      <point x="276" y="8"/>
      <point x="213" y="38" type="qcurve"/>
      <point x="243" y="187" type="line"/>
      <point x="304" y="158"/>
      <point x="431" y="133"/>
    </contour>
    <contour>
      <point x="543" y="612" type="qcurve" smooth="yes"/>
      <point x="652" y="612"/>
      <point x="797" y="706"/>
      <point x="829" y="779" type="qcurve"/>
      <point x="829" y="933" type="line" smooth="yes"/>
      <point x="829" y="1126"/>
      <point x="682" y="1322"/>
      <point x="541" y="1322" type="qcurve" smooth="yes"/>
      <point x="432" y="1322"/>
      <point x="281" y="1118"/>
      <point x="281" y="958" type="qcurve" smooth="yes"/>
      <point x="281" y="801"/>
      <point x="421" y="612"/>
    </contour>
  </outline>
</glyph>
<glyph name="greater" format="1">
  <advance width="1060"/>
  <unicode hex="003E"/>
  <outline>
    <contour>
      <point x="807" y="538" type="line"/>
      <point x="807" y="544" type="line"/>
      <point x="723" y="564" type="line"/>
      <point x="125" y="798" type="line"/>
      <point x="125" y="993" type="line"/>
      <point x="980" y="615" type="line"/>
      <point x="980" y="466" type="line"/>
      <point x="125" y="87" type="line"/>
      <point x="125" y="283" type="line"/>
      <point x="723" y="521" type="line"/>
    </contour>
  </outline>
</glyph>
<glyph name="question" format="2">
  <advance width="953"/>
  <unicode hex="003F"/>
  <outline>
    <contour>
      <point x="360" y="410" type="line"/>
      <point x="361" y="556"/>
      <point x="408" y="667"/>
      <point x="510" y="759" type="qcurve"/>
      <point x="609" y="876"/>
      <point x="693" y="1002"/>
      <point x="693" y="1091" type="qcurve" smooth="yes"/>
      <point x="693" y="1197"/>
      <point x="580" y="1311"/>
      <point x="475" y="1311" type="qcurve" smooth="yes"/>
      <point x="384" y="1311"/>
      <point x="257" y="1212"/>
      <point x="257" y="1116" type="qcurve"/>
      <point x="69" y="1116" type="line"/>
      <point x="66" y="1122" type="line"/>
      <point x="63" y="1283"/>
      <point x="295" y="1477"/>
      <point x="475" y="1477" type="qcurve" smooth="yes"/>
      <point x="672" y="1477"/>
      <point x="890" y="1276"/>
      <point x="890" y="1096" type="qcurve" smooth="yes"/>
      <point x="890" y="967"/>
      <point x="749" y="753"/>
      <point x="633" y="641" type="qcurve" smooth="yes"/>
      <point x="580" y="587"/>
      <point x="557" y="501"/>
      <point x="557" y="410" type="qcurve"/>
    </contour>
    <contour>
      <point x="563" y="0" type="line"/>
      <point x="358" y="0" type="line"/>
      <point x="358" y="208" type="line"/>
      <point x="563" y="208" type="line"/>
    </contour>
  </outline>
</glyph>
<glyph name="at" format="2">
  <advance width="1821"/>
  <unicode hex="0040"/>
  <outline>
    <contour>
      <point x="1704" y="502" type="qcurve" smooth="yes"/>
      <point x="1695" y="288"/>
      <point x="1473" y="-21"/>
      <point x="1252" y="-21" type="qcurve" smooth="yes"/>
      <point x="1179" y="-21"/>
      <point x="1072" y="62"/>
      <point x="1049" y="137" type="qcurve"/>
      <point x="999" y="57"/>
      <point x="855" y="-21"/>
      <point x="760" y="-21" type="qcurve" smooth="yes"/>
      <point x="635" y="-21"/>
      <point x="497" y="220"/>
      <point x="515" y="416" type="qcurve" smooth="yes"/>
      <point x="538" y="675"/>
      <point x="767" y="988"/>
      <point x="931" y="988" type="qcurve" smooth="yes"/>
      <point x="1036" y="988"/>
      <point x="1163" y="936"/>
      <point x="1240" y="882" type="qcurve"/>
      <point x="1236" y="878" type="line"/>
      <point x="1242" y="878" type="line"/>
      <point x="1191" y="293" type="line" smooth="yes"/>
      <point x="1182" y="183"/>
      <point x="1243" y="100"/>
      <point x="1294" y="100" type="qcurve" smooth="yes"/>
      <point x="1417" y="100"/>
      <point x="1564" y="327"/>
      <point x="1572" y="502" type="qcurve" smooth="yes"/>
      <point x="1589" y="884"/>
      <point x="1268" y="1311"/>
      <point x="933" y="1311" type="qcurve" smooth="yes"/>
      <point x="624" y="1311"/>
      <point x="250" y="849"/>
      <point x="235" y="478" type="qcurve" smooth="yes"/>
      <point x="217" y="102"/>
      <point x="553" y="-335"/>
      <point x="867" y="-335" type="qcurve" smooth="yes"/>
      <point x="955" y="-335"/>
      <point x="1135" y="-292"/>
      <point x="1197" y="-257" type="qcurve"/>
      <point x="1236" y="-364" type="line"/>
      <point x="1168" y="-406"/>
      <point x="961" y="-453"/>
      <point x="863" y="-453" type="qcurve" smooth="yes"/>
      <point x="483" y="-453"/>
      <point x="67" y="46"/>
      <point x="86" y="478" type="qcurve" smooth="yes"/>
      <point x="105" y="901"/>
      <point x="565" y="1431"/>
      <point x="937" y="1431" type="qcurve" smooth="yes"/>
      <point x="1316" y="1431"/>
      <point x="1721" y="931"/>
    </contour>
    <contour>
      <point x="691" y="416" type="qcurve" smooth="yes"/>
      <point x="680" y="275"/>
      <point x="746" y="126"/>
      <point x="820" y="126" type="qcurve" smooth="yes"/>
      <point x="883" y="126"/>
      <point x="990" y="176"/>
      <point x="1034" y="239" type="qcurve"/>
      <point x="1033" y="251"/>
      <point x="1034" y="277"/>
      <point x="1036" y="293" type="qcurve" smooth="yes"/>
      <point x="1083" y="831" type="line"/>
      <point x="1057" y="843"/>
      <point x="1000" y="857"/>
      <point x="969" y="857" type="qcurve" smooth="yes"/>
      <point x="844" y="857"/>
      <point x="712" y="639"/>
    </contour>
  </outline>
</glyph>
<glyph name="A" format="1">
  <advance width="1528"/>
  <unicode hex="0041"/>
  <outline>
    <contour>
      <point x="65" y="126" type="line"/>
      <point x="173" y="141" type="line"/>
      <point x="682" y="1456" type="line"/>
      <point x="851" y="1456" type="line"/>
      <point x="1351" y="141" type="line"/>
      <point x="1458" y="126" type="line"/>
      <point x="1458" y="0" type="line"/>
      <point x="1040" y="0" type="line"/>
      <point x="1040" y="126" type="line"/>
      <point x="1150" y="145" type="line"/>
      <point x="1054" y="413" type="line"/>
      <point x="471" y="413" type="line"/>
      <point x="372" y="145" type="line"/>
      <point x="482" y="126" type="line"/>
      <point x="482" y="0" type="line"/>
      <point x="65" y="0" type="line"/>
    </contour>
    <contour>
      <point x="532" y="578" type="line"/>
      <point x="994" y="578" type="line"/>
      <point x="780" y="1170" type="line"/>
      <point x="768" y="1203" type="line"/>
      <point x="762" y="1203" type="line"/>
      <point x="750" y="1170" type="line"/>
    </contour>
  </outline>
</glyph>
<glyph name="B" format="1">
  <advance width="1348"/>
  <unicode hex="0042"/>
  <outline>
    <contour>
      <point x="729" y="1456" type="line" smooth="yes"/>
      <point x="1033" y="1456"/>
      <point x="1214" y="1325"/>
      <point x="1214" y="1062" type="curve" smooth="yes"/>
      <point x="1214" y="933"/>
      <point x="1125" y="824"/>
      <point x="990" y="775" type="curve"/>
      <point x="1165" y="738"/>
      <point x="1273" y="590"/>
      <point x="1273" y="411" type="curve" smooth="yes"/>
      <point x="1273" y="144"/>
      <point x="1087" y="0"/>
      <point x="791" y="0" type="curve" smooth="yes"/>
      <point x="91" y="0" type="line"/>
      <point x="91" y="126" type="line"/>
      <point x="254" y="154" type="line"/>
      <point x="254" y="1301" type="line"/>
      <point x="91" y="1329" type="line"/>
      <point x="91" y="1456" type="line"/>
      <point x="254" y="1456" type="line"/>
    </contour>
    <contour>
      <point x="451" y="683" type="line"/>
      <point x="451" y="154" type="line"/>
      <point x="791" y="154" type="line" smooth="yes"/>
      <point x="971" y="154"/>
      <point x="1075" y="246"/>
      <point x="1075" y="409" type="curve" smooth="yes"/>
      <point x="1075" y="580"/>
      <point x="993" y="683"/>
      <point x="821" y="683" type="curve" smooth="yes"/>
    </contour>
    <contour>
      <point x="451" y="837" type="line"/>
      <point x="780" y="837" type="line" smooth="yes"/>
      <point x="921" y="841"/>
      <point x="1017" y="925"/>
      <point x="1017" y="1066" type="curve" smooth="yes"/>
      <point x="1017" y="1223"/>
      <point x="916" y="1301"/>
      <point x="729" y="1301" type="curve" smooth="yes"/>
      <point x="451" y="1301" type="line"/>
    </contour>
  </outline>
</glyph>
<glyph name="C" format="1">
  <advance width="1321"/>
  <unicode hex="0043"/>
  <outline>
    <contour>
      <point x="1200" y="1009" type="line"/>
      <point x="1061" y="1009" type="line"/>
      <point x="1024" y="1215" type="line"/>
      <point x="960.0" y="1277.6666666666665"/>
      <point x="868.3333333333333" y="1322.0"/>
      <point x="739" y="1322" type="curve" smooth="yes"/>
      <point x="436.3333333333335" y="1322.0"/>
      <point x="268.0" y="1077.3333333333333"/>
      <point x="268" y="740" type="curve" smooth="yes"/>
      <point x="268" y="717" type="line" smooth="yes"/>
      <point x="268.0" y="379.66666666666674"/>
      <point x="436.3333333333335" y="133.0"/>
      <point x="719" y="133" type="curve" smooth="yes"/>
      <point x="851.0" y="133.0"/>
      <point x="965.3333333333333" y="180.0"/>
      <point x="1024" y="240" type="curve"/>
      <point x="1061" y="446" type="line"/>
      <point x="1200" y="446" type="line"/>
      <point x="1200" y="187" type="line"/>
      <point x="1116.0" y="79.0"/>
      <point x="940.3333333333333" y="-21.0"/>
      <point x="719" y="-21" type="curve" smooth="yes"/>
      <point x="340.3333333333335" y="-21.0"/>
      <point x="71.0" y="293.0"/>
      <point x="71" y="717" type="curve" smooth="yes"/>
      <point x="71" y="738" type="line" smooth="yes"/>
      <point x="71.0" y="1164.6666666666665"/>
      <point x="332.3333333333335" y="1477.0"/>
      <point x="719" y="1477" type="curve" smooth="yes"/>
      <point x="940.3333333333333" y="1477.0"/>
      <point x="1116.0" y="1374.6666666666665"/>
      <point x="1200" y="1268" type="curve"/>
    </contour>
  </outline>
</glyph>
<glyph name="D" format="1">
  <advance width="1419"/>
  <unicode hex="0044"/>
  <outline>
    <contour>
      <point x="681" y="1456" type="line" smooth="yes"/>
      <point x="1061.0" y="1456.0"/>
      <point x="1313.0" y="1197.6666666666665"/>
      <point x="1313" y="827" type="curve" smooth="yes"/>
      <point x="1313" y="628" type="line" smooth="yes"/>
      <point x="1313.0" y="256.00000000000006"/>
      <point x="1061.0" y="0.0"/>
      <point x="681" y="0" type="curve" smooth="yes"/>
      <point x="71" y="0" type="line"/>
      <point x="71" y="126" type="line"/>
      <point x="234" y="154" type="line"/>
      <point x="234" y="1301" type="line"/>
      <point x="71" y="1329" type="line"/>
      <point x="71" y="1456" type="line"/>
      <point x="234" y="1456" type="line"/>
    </contour>
    <contour>
      <point x="431" y="1301" type="line"/>
      <point x="431" y="154" type="line"/>
      <point x="681" y="154" type="line" smooth="yes"/>
      <point x="950.3333333333333" y="154.0"/>
      <point x="1116.0" y="350.6666666666668"/>
      <point x="1116" y="628" type="curve" smooth="yes"/>
      <point x="1116" y="829" type="line" smooth="yes"/>
      <point x="1116.0" y="1103.6666666666665"/>
      <point x="950.3333333333334" y="1301.0"/>
      <point x="681" y="1301" type="curve" smooth="yes"/>
    </contour>
  </outline>
</glyph>
<glyph name="E" format="2">
  <advance width="1306"/>
  <unicode hex="0045"/>
  <outline>
    <contour>
      <point x="71" y="0" type="line"/>
      <point x="71" y="126" type="line"/>
      <point x="234" y="154" type="line"/>
      <point x="234" y="1301" type="line"/>
      <point x="71" y="1329" type="line"/>
      <point x="71" y="1456" type="line"/>
      <point x="1189" y="1456" type="line"/>
      <point x="1189" y="1106" type="line"/>
      <point x="1020" y="1106" type="line"/>
      <point x="1004" y="1301" type="line"/>
      <point x="431" y="1301" type="line"/>
      <point x="431" y="830" type="line"/>
      <point x="988" y="830" type="line"/>
      <point x="988" y="675" type="line"/>
      <point x="431" y="675" type="line"/>
      <point x="431" y="154" type="line"/>
      <point x="1016" y="154" type="line"/>
      <point x="1032" y="349" type="line"/>
      <point x="1200" y="349" type="line"/>
      <point x="1200" y="0" type="line"/>
    </contour>
  </outline>
</glyph>
<glyph name="F" format="1">
  <advance width="1293"/>
  <unicode hex="0046"/>
  <outline>
    <contour>
      <point x="81" y="126" type="line"/>
      <point x="244" y="154" type="line"/>
      <point x="244" y="1301" type="line"/>
      <point x="81" y="1329" type="line"/>
      <point x="81" y="1456" type="line"/>
      <point x="1206" y="1456" type="line"/>
      <point x="1206" y="1106" type="line"/>
      <point x="1038" y="1106" type="line"/>
      <point x="1022" y="1301" type="line"/>
      <point x="441" y="1301" type="line"/>
      <point x="441" y="799" type="line"/>
      <point x="1004" y="799" type="line"/>
      <point x="1004" y="644" type="line"/>
      <point x="441" y="644" type="line"/>
      <point x="441" y="154" type="line"/>
      <point x="604" y="126" type="line"/>
      <point x="604" y="0" type="line"/>
      <point x="81" y="0" type="line"/>
    </contour>
  </outline>
</glyph>
<glyph name="G" format="1">
  <advance width="1409"/>
  <unicode hex="0047"/>
  <outline>
    <contour>
      <point x="1252" y="136" type="line"/>
      <point x="1158" y="56"/>
      <point x="997" y="-21"/>
      <point x="738" y="-21" type="curve" smooth="yes"/>
      <point x="349" y="-21"/>
      <point x="77" y="280"/>
      <point x="77" y="716" type="curve" smooth="yes"/>
      <point x="77" y="740" type="line" smooth="yes"/>
      <point x="77" y="1179"/>
      <point x="348" y="1477"/>
      <point x="725" y="1477" type="curve" smooth="yes"/>
      <point x="951" y="1477"/>
      <point x="1104" y="1421"/>
      <point x="1216" y="1333" type="curve"/>
      <point x="1216" y="1039" type="line"/>
      <point x="1063" y="1039" type="line"/>
      <point x="1030" y="1250" type="line"/>
      <point x="965" y="1293"/>
      <point x="874" y="1322"/>
      <point x="745" y="1322" type="curve" smooth="yes"/>
      <point x="475" y="1322"/>
      <point x="274" y="1085"/>
      <point x="274" y="742" type="curve" smooth="yes"/>
      <point x="274" y="716" type="line" smooth="yes"/>
      <point x="274" y="368"/>
      <point x="449" y="133"/>
      <point x="738" y="133" type="curve" smooth="yes"/>
      <point x="887" y="133"/>
      <point x="984" y="162"/>
      <point x="1055" y="203" type="curve"/>
      <point x="1055" y="532" type="line"/>
      <point x="816" y="542" type="line"/>
      <point x="816" y="687" type="line"/>
      <point x="1252" y="687" type="line"/>
    </contour>
  </outline>
</glyph>
<glyph name="H" format="1">
  <advance width="1613"/>
  <unicode hex="0048"/>
  <outline>
    <contour>
      <point x="91" y="1329" type="line"/>
      <point x="91" y="1456" type="line"/>
      <point x="614" y="1456" type="line"/>
      <point x="614" y="1329" type="line"/>
      <point x="451" y="1301" type="line"/>
      <point x="451" y="798" type="line"/>
      <point x="1157" y="798" type="line"/>
      <point x="1157" y="1301" type="line"/>
      <point x="994" y="1329" type="line"/>
      <point x="994" y="1456" type="line"/>
      <point x="1157" y="1456" type="line"/>
      <point x="1354" y="1456" type="line"/>
      <point x="1517" y="1456" type="line"/>
      <point x="1517" y="1329" type="line"/>
      <point x="1354" y="1301" type="line"/>
      <point x="1354" y="154" type="line"/>
      <point x="1517" y="126" type="line"/>
      <point x="1517" y="0" type="line"/>
      <point x="994" y="0" type="line"/>
      <point x="994" y="126" type="line"/>
      <point x="1157" y="154" type="line"/>
      <point x="1157" y="643" type="line"/>
      <point x="451" y="643" type="line"/>
      <point x="451" y="154" type="line"/>
      <point x="614" y="126" type="line"/>
      <point x="614" y="0" type="line"/>
      <point x="91" y="0" type="line"/>
      <point x="91" y="126" type="line"/>
      <point x="254" y="154" type="line"/>
      <point x="254" y="1301" type="line"/>
    </contour>
  </outline>
</glyph>
<glyph name="I" format="1">
  <advance width="701"/>
  <unicode hex="0049"/>
  <outline>
    <contour>
      <point x="88" y="1329" type="line"/>
      <point x="88" y="1456" type="line"/>
      <point x="611" y="1456" type="line"/>
      <point x="611" y="1329" type="line"/>
      <point x="448" y="1301" type="line"/>
      <point x="448" y="154" type="line"/>
      <point x="611" y="126" type="line"/>
      <point x="611" y="0" type="line"/>
      <point x="88" y="0" type="line"/>
      <point x="88" y="126" type="line"/>
      <point x="251" y="154" type="line"/>
      <point x="251" y="1301" type="line"/>
    </contour>
  </outline>
</glyph>
<glyph name="J" format="2">
  <advance width="1183"/>
  <unicode hex="004A"/>
  <outline>
    <contour>
      <point x="1124" y="1456" type="line"/>
      <point x="1124" y="1329" type="line"/>
      <point x="961" y="1301" type="line"/>
      <point x="961" y="403" type="line" smooth="yes"/>
      <point x="961" y="208"/>
      <point x="714" y="-21"/>
      <point x="517" y="-21" type="qcurve" smooth="yes"/>
      <point x="307" y="-21"/>
      <point x="59" y="192"/>
      <point x="64" y="395" type="qcurve"/>
      <point x="66" y="401" type="line"/>
      <point x="255" y="401" type="line"/>
      <point x="255" y="266"/>
      <point x="392" y="133"/>
      <point x="517" y="133" type="qcurve" smooth="yes"/>
      <point x="626" y="133"/>
      <point x="764" y="280"/>
      <point x="764" y="403" type="qcurve" smooth="yes"/>
      <point x="764" y="1301" type="line"/>
      <point x="601" y="1329" type="line"/>
      <point x="601" y="1456" type="line"/>
      <point x="961" y="1456" type="line"/>
    </contour>
  </outline>
</glyph>
<glyph name="K" format="1">
  <advance width="1452"/>
  <unicode hex="004B"/>
  <outline>
    <contour>
      <point x="71" y="126" type="line"/>
      <point x="234" y="154" type="line"/>
      <point x="234" y="1301" type="line"/>
      <point x="71" y="1329" type="line"/>
      <point x="71" y="1456" type="line"/>
      <point x="594" y="1456" type="line"/>
      <point x="594" y="1329" type="line"/>
      <point x="431" y="1301" type="line"/>
      <point x="431" y="812" type="line"/>
      <point x="582" y="812" type="line"/>
      <point x="989" y="1315" type="line"/>
      <point x="880" y="1329" type="line"/>
      <point x="880" y="1456" type="line"/>
      <point x="1342" y="1456" type="line"/>
      <point x="1342" y="1329" type="line"/>
      <point x="1205" y="1304" type="line"/>
      <point x="760" y="752" type="line"/>
      <point x="1246" y="151" type="line"/>
      <point x="1383" y="126" type="line"/>
      <point x="1383" y="0" type="line"/>
      <point x="905" y="0" type="line"/>
      <point x="905" y="126" type="line"/>
      <point x="1016" y="140" type="line"/>
      <point x="601" y="657" type="line"/>
      <point x="431" y="657" type="line"/>
      <point x="431" y="154" type="line"/>
      <point x="594" y="126" type="line"/>
      <point x="594" y="0" type="line"/>
      <point x="71" y="0" type="line"/>
    </contour>
  </outline>
</glyph>
<glyph name="L" format="1">
  <advance width="1199"/>
  <unicode hex="004C"/>
  <outline>
    <contour>
      <point x="71" y="0" type="line"/>
      <point x="71" y="126" type="line"/>
      <point x="234" y="154" type="line"/>
      <point x="234" y="1301" type="line"/>
      <point x="71" y="1329" type="line"/>
      <point x="71" y="1456" type="line"/>
      <point x="234" y="1456" type="line"/>
      <point x="431" y="1456" type="line"/>
      <point x="594" y="1456" type="line"/>
      <point x="594" y="1329" type="line"/>
      <point x="431" y="1301" type="line"/>
      <point x="431" y="154" type="line"/>
      <point x="937" y="154" type="line"/>
      <point x="952" y="361" type="line"/>
      <point x="1120" y="361" type="line"/>
      <point x="1120" y="0" type="line"/>
    </contour>
  </outline>
</glyph>
<glyph name="M" format="1">
  <advance width="2006"/>
  <unicode hex="004D"/>
  <outline>
    <contour>
      <point x="1540" y="1188" type="line"/>
      <point x="1072" y="52" type="line"/>
      <point x="941" y="52" type="line"/>
      <point x="449" y="1186" type="line"/>
      <point x="444" y="1185" type="line"/>
      <point x="453" y="576" type="line"/>
      <point x="453" y="154" type="line"/>
      <point x="627" y="126" type="line"/>
      <point x="627" y="0" type="line"/>
      <point x="104" y="0" type="line"/>
      <point x="104" y="126" type="line"/>
      <point x="267" y="154" type="line"/>
      <point x="267" y="1301" type="line"/>
      <point x="104" y="1329" type="line"/>
      <point x="104" y="1456" type="line"/>
      <point x="267" y="1456" type="line"/>
      <point x="530" y="1456" type="line"/>
      <point x="1001" y="353" type="line"/>
      <point x="1007" y="353" type="line"/>
      <point x="1464" y="1456" type="line"/>
      <point x="1898" y="1456" type="line"/>
      <point x="1898" y="1329" type="line"/>
      <point x="1735" y="1301" type="line"/>
      <point x="1735" y="154" type="line"/>
      <point x="1898" y="126" type="line"/>
      <point x="1898" y="0" type="line"/>
      <point x="1375" y="0" type="line"/>
      <point x="1375" y="126" type="line"/>
      <point x="1545" y="154" type="line"/>
      <point x="1545" y="576" type="line"/>
      <point x="1545" y="1187" type="line"/>
    </contour>
  </outline>
</glyph>
<glyph name="N" format="1">
  <advance width="1586"/>
  <unicode hex="004E"/>
  <outline>
    <contour>
      <point x="1506" y="1456" type="line"/>
      <point x="1506" y="1329" type="line"/>
      <point x="1343" y="1301" type="line"/>
      <point x="1343" y="0" type="line"/>
      <point x="1163" y="0" type="line"/>
      <point x="430" y="1141" type="line"/>
      <point x="424" y="1139" type="line"/>
      <point x="424" y="154" type="line"/>
      <point x="603" y="126" type="line"/>
      <point x="603" y="0" type="line"/>
      <point x="80" y="0" type="line"/>
      <point x="80" y="126" type="line"/>
      <point x="243" y="154" type="line"/>
      <point x="243" y="1301" type="line"/>
      <point x="80" y="1329" type="line"/>
      <point x="80" y="1456" type="line"/>
      <point x="243" y="1456" type="line"/>
      <point x="442" y="1456" type="line"/>
      <point x="1156" y="321" type="line"/>
      <point x="1162" y="323" type="line"/>
      <point x="1162" y="1301" type="line"/>
      <point x="983" y="1329" type="line"/>
      <point x="983" y="1456" type="line"/>
      <point x="1343" y="1456" type="line"/>
    </contour>
  </outline>
</glyph>
<glyph name="P" format="1">
  <advance width="1311"/>
  <unicode hex="0050"/>
  <outline>
    <contour>
      <point x="750" y="1456" type="line" smooth="yes"/>
      <point x="1061" y="1456"/>
      <point x="1242" y="1281"/>
      <point x="1242" y="1020" type="curve" smooth="yes"/>
      <point x="1242" y="756"/>
      <point x="1061" y="584"/>
      <point x="750" y="584" type="curve" smooth="yes"/>
      <point x="441" y="584" type="line"/>
      <point x="441" y="154" type="line"/>
      <point x="604" y="126" type="line"/>
      <point x="604" y="0" type="line"/>
      <point x="81" y="0" type="line"/>
      <point x="81" y="126" type="line"/>
      <point x="244" y="154" type="line"/>
      <point x="244" y="1301" type="line"/>
      <point x="81" y="1329" type="line"/>
      <point x="81" y="1456" type="line"/>
      <point x="244" y="1456" type="line"/>
    </contour>
    <contour>
      <point x="441" y="738" type="line"/>
      <point x="750" y="738" type="line" smooth="yes"/>
      <point x="947" y="738"/>
      <point x="1045" y="857"/>
      <point x="1045" y="1018" type="curve" smooth="yes"/>
      <point x="1045" y="1179"/>
      <point x="947" y="1301"/>
      <point x="750" y="1301" type="curve" smooth="yes"/>
      <point x="441" y="1301" type="line"/>
    </contour>
  </outline>
</glyph>
<glyph name="Q" format="1">
  <advance width="1446"/>
  <unicode hex="0051"/>
  <outline>
    <contour>
      <point x="1368" y="717" type="line" smooth="yes"/>
      <point x="1368.0" y="458.3333333333335"/>
      <point x="1267.0" y="235.66666666666663"/>
      <point x="1095" y="105" type="curve"/>
      <point x="1390" y="-103" type="line"/>
      <point x="1285" y="-241" type="line"/>
      <point x="924" y="13" type="line"/>
      <point x="857.3333333333333" y="-8.333333333333332"/>
      <point x="786.3333333333333" y="-21.0"/>
      <point x="713" y="-21" type="curve" smooth="yes"/>
      <point x="337.0" y="-21.0"/>
      <point x="79.0" y="293.0"/>
      <point x="79" y="717" type="curve" smooth="yes"/>
      <point x="79" y="738" type="line" smooth="yes"/>
      <point x="79.0" y="1160.6666666666665"/>
      <point x="337.0" y="1477.0"/>
      <point x="713" y="1477" type="curve" smooth="yes"/>
      <point x="1099.6666666666665" y="1477.0"/>
      <point x="1368.0" y="1160.6666666666665"/>
      <point x="1368" y="738" type="curve" smooth="yes"/>
    </contour>
    <contour>
      <point x="1171" y="740" type="line" smooth="yes"/>
      <point x="1171.0" y="1078.6666666666665"/>
      <point x="999.6666666666665" y="1315.0"/>
      <point x="713" y="1315" type="curve" smooth="yes"/>
      <point x="438.3333333333335" y="1315.0"/>
      <point x="276.0" y="1077.3333333333333"/>
      <point x="276" y="740" type="curve" smooth="yes"/>
      <point x="276" y="717" type="line" smooth="yes"/>
      <point x="276.0" y="375.66666666666674"/>
      <point x="438.3333333333335" y="140.0"/>
      <point x="713" y="140" type="curve" smooth="yes"/>
      <point x="1003.6666666666665" y="140.0"/>
      <point x="1171.0" y="374.3333333333335"/>
      <point x="1171" y="717" type="curve" smooth="yes"/>
    </contour>
  </outline>
</glyph>
<glyph name="R" format="1">
  <advance width="1406"/>
  <unicode hex="0052"/>
  <outline>
    <contour>
      <point x="730" y="1455" type="line" smooth="yes"/>
      <point x="1047" y="1455"/>
      <point x="1222" y="1309"/>
      <point x="1222" y="1050" type="curve" smooth="yes"/>
      <point x="1222" y="909"/>
      <point x="1141" y="796"/>
      <point x="994" y="733" type="curve"/>
      <point x="1153" y="681"/>
      <point x="1218" y="561"/>
      <point x="1218" y="389" type="curve" smooth="yes"/>
      <point x="1218" y="272" type="line" smooth="yes"/>
      <point x="1218" y="183"/>
      <point x="1239" y="143"/>
      <point x="1291" y="135" type="curve" smooth="yes"/>
      <point x="1339" y="129" type="line"/>
      <point x="1339" y="0" type="line"/>
      <point x="1233" y="0" type="line" smooth="yes"/>
      <point x="1080" y="0"/>
      <point x="1021" y="122"/>
      <point x="1021" y="274" type="curve" smooth="yes"/>
      <point x="1021" y="387" type="line" smooth="yes"/>
      <point x="1021" y="546"/>
      <point x="922" y="650"/>
      <point x="767" y="650" type="curve" smooth="yes"/>
      <point x="451" y="650" type="line"/>
      <point x="451" y="154" type="line"/>
      <point x="614" y="126" type="line"/>
      <point x="614" y="0" type="line"/>
      <point x="91" y="0" type="line"/>
      <point x="91" y="126" type="line"/>
      <point x="254" y="154" type="line"/>
      <point x="254" y="1301" type="line"/>
      <point x="91" y="1329" type="line"/>
      <point x="91" y="1455" type="line"/>
    </contour>
    <contour>
      <point x="451" y="805" type="line"/>
      <point x="710" y="805" type="line" smooth="yes"/>
      <point x="930" y="805"/>
      <point x="1025" y="891"/>
      <point x="1025" y="1052" type="curve" smooth="yes"/>
      <point x="1025" y="1205"/>
      <point x="931" y="1301"/>
      <point x="730" y="1301" type="curve" smooth="yes"/>
      <point x="451" y="1301" type="line"/>
    </contour>
  </outline>
</glyph>
<glyph name="S" format="1">
  <advance width="1247"/>
  <unicode hex="0053"/>
  <outline>
    <contour>
      <point x="1105" y="1036" type="line"/>
      <point x="956" y="1036" type="line"/>
      <point x="919" y="1244" type="line"/>
      <point x="859" y="1292"/>
      <point x="763" y="1322"/>
      <point x="631" y="1322" type="curve" smooth="yes"/>
      <point x="442" y="1322"/>
      <point x="337" y="1225"/>
      <point x="337" y="1082" type="curve" smooth="yes"/>
      <point x="337" y="956"/>
      <point x="427" y="883"/>
      <point x="682" y="819" type="curve" smooth="yes"/>
      <point x="989" y="743"/>
      <point x="1151.0" y="587.6666666666665"/>
      <point x="1151" y="369" type="curve" smooth="yes"/>
      <point x="1151.0" y="134.33333333333348"/>
      <point x="941" y="-21"/>
      <point x="632" y="-21" type="curve" smooth="yes"/>
      <point x="425" y="-21"/>
      <point x="270" y="30"/>
      <point x="121" y="138" type="curve"/>
      <point x="121" y="449" type="line"/>
      <point x="269" y="449" type="line"/>
      <point x="307" y="220" type="line"/>
      <point x="393" y="167"/>
      <point x="485.33333333333326" y="133.0"/>
      <point x="632" y="133" type="curve" smooth="yes"/>
      <point x="830.6666666666667" y="133.0"/>
      <point x="954.0" y="223.0"/>
      <point x="954" y="367" type="curve" smooth="yes"/>
      <point x="954.0" y="500.33333333333326"/>
      <point x="867.3333333333333" y="586.6666666666667"/>
      <point x="614" y="648" type="curve" smooth="yes"/>
      <point x="306.0" y="721.3333333333333"/>
      <point x="140" y="863"/>
      <point x="140" y="1079" type="curve" smooth="yes"/>
      <point x="140" y="1307"/>
      <point x="332" y="1477"/>
      <point x="631" y="1477" type="curve" smooth="yes"/>
      <point x="835" y="1477"/>
      <point x="1004" y="1415"/>
      <point x="1105" y="1327" type="curve"/>
    </contour>
  </outline>
</glyph>
<glyph name="T" format="1">
  <advance width="1403"/>
  <unicode hex="0054"/>
  <outline>
    <contour>
      <point x="1304" y="1456" type="line"/>
      <point x="1304" y="1102" type="line"/>
      <point x="1144" y="1102" type="line"/>
      <point x="1124" y="1301" type="line"/>
      <point x="798" y="1301" type="line"/>
      <point x="798" y="154" type="line"/>
      <point x="961" y="126" type="line"/>
      <point x="961" y="0" type="line"/>
      <point x="438" y="0" type="line"/>
      <point x="438" y="126" type="line"/>
      <point x="601" y="154" type="line"/>
      <point x="601" y="1301" type="line"/>
      <point x="275" y="1301" type="line"/>
      <point x="256" y="1102" type="line"/>
      <point x="94" y="1102" type="line"/>
      <point x="94" y="1456" type="line"/>
    </contour>
  </outline>
</glyph>
<glyph name="U" format="2">
  <advance width="1541"/>
  <unicode hex="0055"/>
  <outline>
    <contour>
      <point x="583" y="1456" type="line"/>
      <point x="583" y="1329" type="line"/>
      <point x="420" y="1301" type="line"/>
      <point x="420" y="469" type="line" smooth="yes"/>
      <point x="420" y="304"/>
      <point x="608" y="133"/>
      <point x="762" y="133" type="qcurve" smooth="yes"/>
      <point x="924" y="133"/>
      <point x="1122" y="303"/>
      <point x="1122" y="469" type="qcurve" smooth="yes"/>
      <point x="1122" y="1301" type="line"/>
      <point x="959" y="1329" type="line"/>
      <point x="959" y="1456" type="line"/>
      <point x="1319" y="1456" type="line"/>
      <point x="1482" y="1456" type="line"/>
      <point x="1482" y="1329" type="line"/>
      <point x="1319" y="1301" type="line"/>
      <point x="1319" y="469" type="line" smooth="yes"/>
      <point x="1319" y="232"/>
      <point x="1010" y="-21"/>
      <point x="762" y="-21" type="qcurve" smooth="yes"/>
      <point x="521" y="-21"/>
      <point x="223" y="232"/>
      <point x="223" y="469" type="qcurve" smooth="yes"/>
      <point x="223" y="1301" type="line"/>
      <point x="60" y="1329" type="line"/>
      <point x="60" y="1456" type="line"/>
      <point x="223" y="1456" type="line"/>
    </contour>
  </outline>
</glyph>
<glyph name="V" format="1">
  <advance width="1532"/>
  <unicode hex="0056"/>
  <outline>
    <contour>
      <point x="535" y="1329" type="line"/>
      <point x="402" y="1308" type="line"/>
      <point x="728" y="382" type="line"/>
      <point x="762" y="267" type="line"/>
      <point x="768" y="267" type="line"/>
      <point x="804" y="382" type="line"/>
      <point x="1142" y="1309" type="line"/>
      <point x="994" y="1329" type="line"/>
      <point x="994" y="1456" type="line"/>
      <point x="1453" y="1456" type="line"/>
      <point x="1453" y="1329" type="line"/>
      <point x="1336" y="1313" type="line"/>
      <point x="848" y="0" type="line"/>
      <point x="679" y="0" type="line"/>
      <point x="191" y="1313" type="line"/>
      <point x="75" y="1329" type="line"/>
      <point x="75" y="1456" type="line"/>
      <point x="535" y="1456" type="line"/>
    </contour>
  </outline>
</glyph>
<glyph name="W" format="1">
  <advance width="1980"/>
  <unicode hex="0057"/>
  <outline>
    <contour>
      <point x="1953" y="1329" type="line"/>
      <point x="1826" y="1314" type="line"/>
      <point x="1509" y="0" type="line"/>
      <point x="1330" y="0" type="line"/>
      <point x="1035" y="1008" type="line"/>
      <point x="998" y="1149" type="line"/>
      <point x="992" y="1149" type="line"/>
      <point x="964" y="1008" type="line"/>
      <point x="666" y="0" type="line"/>
      <point x="491" y="0" type="line"/>
      <point x="154" y="1314" type="line"/>
      <point x="27" y="1329" type="line"/>
      <point x="27" y="1456" type="line"/>
      <point x="499" y="1456" type="line"/>
      <point x="499" y="1329" type="line"/>
      <point x="351" y="1306" type="line"/>
      <point x="542" y="505" type="line"/>
      <point x="582" y="322" type="line"/>
      <point x="588" y="321" type="line"/>
      <point x="640" y="504" type="line"/>
      <point x="908" y="1456" type="line"/>
      <point x="1082" y="1456" type="line"/>
      <point x="1363" y="504" type="line"/>
      <point x="1411" y="307" type="line"/>
      <point x="1417" y="307" type="line"/>
      <point x="1459" y="504" type="line"/>
      <point x="1636" y="1306" type="line"/>
      <point x="1480" y="1329" type="line"/>
      <point x="1480" y="1456" type="line"/>
      <point x="1953" y="1456" type="line"/>
    </contour>
  </outline>
</glyph>
<glyph name="X" format="1">
  <advance width="1529"/>
  <unicode hex="0058"/>
  <outline>
    <contour>
      <point x="75" y="126" type="line"/>
      <point x="205" y="148" type="line"/>
      <point x="649" y="741" type="line"/>
      <point x="238" y="1307" type="line"/>
      <point x="111" y="1329" type="line"/>
      <point x="111" y="1456" type="line"/>
      <point x="583" y="1456" type="line"/>
      <point x="583" y="1329" type="line"/>
      <point x="454" y="1316" type="line"/>
      <point x="769" y="878" type="line"/>
      <point x="1066" y="1316" type="line"/>
      <point x="934" y="1329" type="line"/>
      <point x="934" y="1456" type="line"/>
      <point x="1409" y="1456" type="line"/>
      <point x="1409" y="1329" type="line"/>
      <point x="1274" y="1307" type="line"/>
      <point x="885" y="739" type="line"/>
      <point x="1319" y="148" type="line"/>
      <point x="1451" y="126" type="line"/>
      <point x="1451" y="0" type="line"/>
      <point x="970" y="0" type="line"/>
      <point x="970" y="126" type="line"/>
      <point x="1099" y="139" type="line"/>
      <point x="763" y="605" type="line"/>
      <point x="426" y="139" type="line"/>
      <point x="555" y="126" type="line"/>
      <point x="555" y="0" type="line"/>
      <point x="75" y="0" type="line"/>
    </contour>
  </outline>
</glyph>
<glyph name="Y" format="1">
  <advance width="1458"/>
  <unicode hex="0059"/>
  <outline>
    <contour>
      <point x="557" y="1329" type="line"/>
      <point x="400" y="1310" type="line"/>
      <point x="708" y="749" type="line"/>
      <point x="729" y="710" type="line"/>
      <point x="730" y="712" type="line"/>
      <point x="750" y="749" type="line"/>
      <point x="1060" y="1310" type="line"/>
      <point x="894" y="1329" type="line"/>
      <point x="894" y="1456" type="line"/>
      <point x="1394" y="1456" type="line"/>
      <point x="1394" y="1329" type="line"/>
      <point x="1260" y="1310" type="line"/>
      <point x="819" y="532" type="line"/>
      <point x="819" y="154" type="line"/>
      <point x="982" y="126" type="line"/>
      <point x="982" y="0" type="line"/>
      <point x="460" y="0" type="line"/>
      <point x="460" y="126" type="line"/>
      <point x="623" y="154" type="line"/>
      <point x="623" y="521" type="line"/>
      <point x="175" y="1310" type="line"/>
      <point x="55" y="1329" type="line"/>
      <point x="55" y="1456" type="line"/>
      <point x="557" y="1456" type="line"/>
    </contour>
  </outline>
</glyph>
<glyph name="Z" format="1">
  <advance width="1220"/>
  <unicode hex="005A"/>
  <outline>
    <contour>
      <point x="1095" y="1456" type="line"/>
      <point x="1095" y="1305" type="line"/>
      <point x="323" y="154" type="line"/>
      <point x="944" y="154" type="line"/>
      <point x="960" y="341" type="line"/>
      <point x="1128" y="341" type="line"/>
      <point x="1128" y="0" type="line"/>
      <point x="92" y="0" type="line"/>
      <point x="92" y="156" type="line"/>
      <point x="859" y="1301" type="line"/>
      <point x="285" y="1301" type="line"/>
      <point x="271" y="1124" type="line"/>
      <point x="102" y="1124" type="line"/>
      <point x="102" y="1456" type="line"/>
    </contour>
  </outline>
</glyph>
<glyph name="bracketleft" format="1">
  <advance width="573"/>
  <unicode hex="005B"/>
  <outline>
    <contour>
      <point x="541" y="1509" type="line"/>
      <point x="354" y="1509" type="line"/>
      <point x="354" y="-157" type="line"/>
      <point x="541" y="-157" type="line"/>
      <point x="541" y="-312" type="line"/>
      <point x="157" y="-312" type="line"/>
      <point x="157" y="1664" type="line"/>
      <point x="541" y="1664" type="line"/>
    </contour>
  </outline>
</glyph>
<glyph name="asciicircum" format="1">
  <advance width="864"/>
  <unicode hex="005E"/>
  <outline>
    <contour>
      <point x="253" y="729" type="line"/>
      <point x="71" y="729" type="line"/>
      <point x="370" y="1456" type="line"/>
      <point x="504" y="1456" type="line"/>
      <point x="802" y="729" type="line"/>
      <point x="620" y="729" type="line"/>
      <point x="454" y="1148" type="line"/>
      <point x="438" y="1218" type="line"/>
      <point x="432" y="1218" type="line"/>
      <point x="416" y="1148" type="line"/>
    </contour>
  </outline>
</glyph>
<glyph name="grave" format="1">
  <advance width="582"/>
  <unicode hex="0060"/>
  <outline>
    <contour>
      <point x="492" y="1211" type="line"/>
      <point x="333" y="1211" type="line"/>
      <point x="84" y="1471" type="line"/>
      <point x="87" y="1477" type="line"/>
      <point x="317" y="1477" type="line"/>
    </contour>
  </outline>
</glyph>
<glyph name="a" format="1">
  <advance width="1128"/>
  <unicode hex="0061"/>
  <outline>
    <contour>
      <point x="795" y="0" type="line"/>
      <point x="783.0" y="58.666666666666664"/>
      <point x="776.6666666666667" y="102.33333333333334"/>
      <point x="774" y="149" type="curve"/>
      <point x="698.0" y="51.666666666666686"/>
      <point x="578.3333333333333" y="-21.0"/>
      <point x="449" y="-21" type="curve" smooth="yes"/>
      <point x="223.66666666666674" y="-21.0"/>
      <point x="104.0" y="94.0"/>
      <point x="104" y="294" type="curve" smooth="yes"/>
      <point x="104.0" y="499.3333333333332"/>
      <point x="280.6666666666667" y="615.0"/>
      <point x="570" y="615" type="curve" smooth="yes"/>
      <point x="773" y="615" type="line"/>
      <point x="773" y="741" type="line" smooth="yes"/>
      <point x="773.0" y="867.6666666666667"/>
      <point x="688.6666666666667" y="947.0"/>
      <point x="546" y="947" type="curve" smooth="yes"/>
      <point x="447.33333333333337" y="947.0"/>
      <point x="370.66666666666663" y="920.0"/>
      <point x="324" y="876" type="curve"/>
      <point x="303" y="762" type="line"/>
      <point x="151" y="762" type="line"/>
      <point x="151" y="972" type="line"/>
      <point x="249.66666666666663" y="1050.6666666666667"/>
      <point x="394.0" y="1102.0"/>
      <point x="558" y="1102" type="curve" smooth="yes"/>
      <point x="803.3333333333331" y="1102.0"/>
      <point x="970.0" y="972.3333333333334"/>
      <point x="970" y="739" type="curve" smooth="yes"/>
      <point x="970" y="218" type="line" smooth="yes"/>
      <point x="970.0" y="190.0"/>
      <point x="970.3333333333333" y="163.66666666666669"/>
      <point x="973" y="137" type="curve"/>
      <point x="1053" y="126" type="line"/>
      <point x="1053" y="0" type="line"/>
    </contour>
    <contour>
      <point x="478" y="144" type="curve" smooth="yes"/>
      <point x="608.6666666666667" y="144.0"/>
      <point x="726.3333333333333" y="216.0"/>
      <point x="773" y="304" type="curve"/>
      <point x="773" y="482" type="line"/>
      <point x="563" y="482" type="line" smooth="yes"/>
      <point x="401.66666666666674" y="482.0"/>
      <point x="301.0" y="396.66666666666663"/>
      <point x="301" y="290" type="curve" smooth="yes"/>
      <point x="301.0" y="195.33333333333337"/>
      <point x="359.33333333333337" y="144.0"/>
    </contour>
  </outline>
</glyph>
<glyph name="b" format="1">
  <advance width="1186"/>
  <unicode hex="0062"/>
  <outline>
    <contour>
      <point x="1079" y="500" type="line" smooth="yes"/>
      <point x="1079.0" y="188.0"/>
      <point x="919.6666666666665" y="-21.0"/>
      <point x="657" y="-21" type="curve" smooth="yes"/>
      <point x="515.6666666666667" y="-21.0"/>
      <point x="412.33333333333337" y="33.666666666666686"/>
      <point x="343" y="139" type="curve"/>
      <point x="325" y="0" type="line"/>
      <point x="155" y="0" type="line"/>
      <point x="155" y="1405" type="line"/>
      <point x="-8" y="1433" type="line"/>
      <point x="-8" y="1560" type="line"/>
      <point x="352" y="1560" type="line"/>
      <point x="352" y="954" type="line"/>
      <point x="420.00000000000006" y="1050.0"/>
      <point x="520.3333333333333" y="1102.0"/>
      <point x="655" y="1102" type="curve" smooth="yes"/>
      <point x="921.6666666666665" y="1102.0"/>
      <point x="1079.0" y="869.0"/>
      <point x="1079" y="521" type="curve" smooth="yes"/>
    </contour>
    <contour>
      <point x="881" y="521" type="line" smooth="yes"/>
      <point x="881.0" y="770.3333333333333"/>
      <point x="791.6666666666667" y="942.0"/>
      <point x="605" y="942" type="curve" smooth="yes"/>
      <point x="483.66666666666674" y="942.0"/>
      <point x="401.33333333333337" y="878.6666666666667"/>
      <point x="352" y="780" type="curve"/>
      <point x="352" y="302" type="line"/>
      <point x="401.33333333333337" y="202.0"/>
      <point x="485.66666666666674" y="139.0"/>
      <point x="607" y="139" type="curve" smooth="yes"/>
      <point x="792.3333333333333" y="139.0"/>
      <point x="881.0" y="282.66666666666674"/>
      <point x="881" y="500" type="curve" smooth="yes"/>
    </contour>
  </outline>
</glyph>
<glyph name="c" format="1">
  <advance width="1055"/>
  <unicode hex="0063"/>
  <outline>
    <contour>
      <point x="554" y="133" type="curve" smooth="yes"/>
      <point x="687" y="133"/>
      <point x="781" y="211"/>
      <point x="801" y="339" type="curve"/>
      <point x="978" y="339" type="line"/>
      <point x="980" y="333" type="line"/>
      <point x="969" y="146"/>
      <point x="825" y="-21"/>
      <point x="555" y="-21" type="curve" smooth="yes"/>
      <point x="260" y="-21"/>
      <point x="70" y="199"/>
      <point x="70" y="520" type="curve" smooth="yes"/>
      <point x="70" y="562" type="line" smooth="yes"/>
      <point x="70" y="870"/>
      <point x="252" y="1102"/>
      <point x="555" y="1102" type="curve" smooth="yes"/>
      <point x="730" y="1102"/>
      <point x="861" y="1041"/>
      <point x="950" y="941" type="curve"/>
      <point x="955" y="681" type="line"/>
      <point x="801" y="681" type="line"/>
      <point x="767" y="870" type="line"/>
      <point x="722" y="917"/>
      <point x="654" y="947"/>
      <point x="562" y="947" type="curve" smooth="yes"/>
      <point x="386" y="947"/>
      <point x="267" y="775"/>
      <point x="267" y="562" type="curve" smooth="yes"/>
      <point x="267" y="520" type="line" smooth="yes"/>
      <point x="267" y="283"/>
      <point x="376" y="133"/>
    </contour>
  </outline>
</glyph>
<glyph name="d" format="1">
  <advance width="1206"/>
  <unicode hex="0064"/>
  <outline>
    <contour>
      <point x="798" y="129" type="line"/>
      <point x="727" y="30"/>
      <point x="626" y="-21"/>
      <point x="491" y="-21" type="curve" smooth="yes"/>
      <point x="227" y="-21"/>
      <point x="70" y="188"/>
      <point x="70" y="500" type="curve" smooth="yes"/>
      <point x="70" y="521" type="line" smooth="yes"/>
      <point x="70" y="869"/>
      <point x="226" y="1102"/>
      <point x="493" y="1102" type="curve" smooth="yes"/>
      <point x="621" y="1102"/>
      <point x="719" y="1053"/>
      <point x="788" y="964" type="curve"/>
      <point x="788" y="1405" type="line"/>
      <point x="625" y="1433" type="line"/>
      <point x="625" y="1560" type="line"/>
      <point x="788" y="1560" type="line"/>
      <point x="985" y="1560" type="line"/>
      <point x="985" y="154" type="line"/>
      <point x="1148" y="126" type="line"/>
      <point x="1148" y="0" type="line"/>
      <point x="814" y="0" type="line"/>
    </contour>
    <contour>
      <point x="267" y="500" type="line" smooth="yes"/>
      <point x="267" y="283"/>
      <point x="354" y="139"/>
      <point x="541" y="139" type="curve" smooth="yes"/>
      <point x="658" y="139"/>
      <point x="736" y="195"/>
      <point x="788" y="292" type="curve"/>
      <point x="788" y="794" type="line"/>
      <point x="737" y="885"/>
      <point x="656" y="942"/>
      <point x="543" y="942" type="curve" smooth="yes"/>
      <point x="355" y="942"/>
      <point x="267" y="770"/>
      <point x="267" y="521" type="curve" smooth="yes"/>
    </contour>
  </outline>
</glyph>
<glyph name="e" format="2">
  <advance width="1101"/>
  <unicode hex="0065"/>
  <outline>
    <contour>
      <point x="583" y="-21" type="qcurve" smooth="yes"/>
      <point x="357" y="-21"/>
      <point x="90" y="280"/>
      <point x="90" y="520" type="qcurve" smooth="yes"/>
      <point x="90" y="564" type="line" smooth="yes"/>
      <point x="90" y="795"/>
      <point x="365" y="1102"/>
      <point x="553" y="1102" type="qcurve" smooth="yes"/>
      <point x="771" y="1102"/>
      <point x="996" y="838"/>
      <point x="996" y="618" type="qcurve" smooth="yes"/>
      <point x="996" y="495" type="line"/>
      <point x="294" y="495" type="line"/>
      <point x="291" y="490" type="line"/>
      <point x="294" y="334"/>
      <point x="446" y="133"/>
      <point x="583" y="133" type="qcurve" smooth="yes"/>
      <point x="683" y="133"/>
      <point x="834" y="190"/>
      <point x="889" y="240" type="qcurve"/>
      <point x="966" y="112" type="line"/>
      <point x="908" y="56"/>
      <point x="717" y="-21"/>
    </contour>
    <contour>
      <point x="553" y="947" type="qcurve" smooth="yes"/>
      <point x="454" y="947"/>
      <point x="314" y="780"/>
      <point x="298" y="654" type="qcurve"/>
      <point x="300" y="649" type="line"/>
      <point x="799" y="649" type="line"/>
      <point x="799" y="675" type="line" smooth="yes"/>
      <point x="799" y="791"/>
      <point x="675" y="947"/>
    </contour>
  </outline>
</glyph>
<glyph name="f" format="1">
  <advance width="717"/>
  <unicode hex="0066"/>
  <outline>
    <contour>
      <point x="66" y="126" type="line"/>
      <point x="229" y="154" type="line"/>
      <point x="229" y="936" type="line"/>
      <point x="60" y="936" type="line"/>
      <point x="60" y="1082" type="line"/>
      <point x="229" y="1082" type="line"/>
      <point x="229" y="1219" type="line" smooth="yes"/>
      <point x="229" y="1450"/>
      <point x="356" y="1581"/>
      <point x="572" y="1581" type="curve" smooth="yes"/>
      <point x="617" y="1581"/>
      <point x="671" y="1573"/>
      <point x="727" y="1560" type="curve"/>
      <point x="703" y="1410" type="line"/>
      <point x="679" y="1415"/>
      <point x="633" y="1420"/>
      <point x="597" y="1420" type="curve" smooth="yes"/>
      <point x="481" y="1420"/>
      <point x="426" y="1350"/>
      <point x="426" y="1219" type="curve" smooth="yes"/>
      <point x="426" y="1082" type="line"/>
      <point x="662" y="1082" type="line"/>
      <point x="662" y="936" type="line"/>
      <point x="426" y="936" type="line"/>
      <point x="426" y="154" type="line"/>
      <point x="612" y="126" type="line"/>
      <point x="612" y="0" type="line"/>
      <point x="66" y="0" type="line"/>
    </contour>
  </outline>
</glyph>
<glyph name="g" format="2">
  <advance width="1159"/>
  <unicode hex="0067"/>
  <outline>
    <contour>
      <point x="90" y="521" type="line" smooth="yes"/>
      <point x="90" y="782"/>
      <point x="318" y="1102"/>
      <point x="519" y="1102" type="qcurve" smooth="yes"/>
      <point x="621" y="1102"/>
      <point x="775" y="1022"/>
      <point x="827" y="946" type="qcurve"/>
      <point x="845" y="1082" type="line"/>
      <point x="1011" y="1082" type="line"/>
      <point x="1011" y="14" type="line" smooth="yes"/>
      <point x="1011" y="-196"/>
      <point x="777" y="-437"/>
      <point x="561" y="-437" type="qcurve" smooth="yes"/>
      <point x="483" y="-437"/>
      <point x="301" y="-394"/>
      <point x="232" y="-357" type="qcurve"/>
      <point x="283" y="-204" type="line"/>
      <point x="338" y="-233"/>
      <point x="488" y="-271"/>
      <point x="559" y="-271" type="qcurve" smooth="yes"/>
      <point x="691" y="-271"/>
      <point x="814" y="-123"/>
      <point x="814" y="14" type="qcurve" smooth="yes"/>
      <point x="814" y="117" type="line"/>
      <point x="761" y="49"/>
      <point x="613" y="-21"/>
      <point x="517" y="-21" type="qcurve" smooth="yes"/>
      <point x="318" y="-21"/>
      <point x="90" y="267"/>
      <point x="90" y="500" type="qcurve" smooth="yes"/>
    </contour>
    <contour>
      <point x="287" y="500" type="line" smooth="yes"/>
      <point x="287" y="337"/>
      <point x="425" y="139"/>
      <point x="566" y="139" type="qcurve" smooth="yes"/>
      <point x="655" y="139"/>
      <point x="775" y="220"/>
      <point x="814" y="294" type="qcurve"/>
      <point x="814" y="792" type="line"/>
      <point x="776" y="861"/>
      <point x="654" y="942"/>
      <point x="568" y="942" type="qcurve" smooth="yes"/>
      <point x="427" y="942"/>
      <point x="287" y="706"/>
      <point x="287" y="521" type="qcurve" smooth="yes"/>
    </contour>
  </outline>
</glyph>
<glyph name="h" format="1">
  <advance width="1307"/>
  <unicode hex="0068"/>
  <outline>
    <contour>
      <point x="45" y="126" type="line"/>
      <point x="208" y="154" type="line"/>
      <point x="208" y="1405" type="line"/>
      <point x="45" y="1433" type="line"/>
      <point x="45" y="1560" type="line"/>
      <point x="405" y="1560" type="line"/>
      <point x="405" y="938" type="line"/>
      <point x="480" y="1042"/>
      <point x="590" y="1102"/>
      <point x="722" y="1102" type="curve" smooth="yes"/>
      <point x="954" y="1102"/>
      <point x="1088" y="966"/>
      <point x="1088" y="678" type="curve" smooth="yes"/>
      <point x="1088" y="154" type="line"/>
      <point x="1251" y="126" type="line"/>
      <point x="1251" y="0" type="line"/>
      <point x="728" y="0" type="line"/>
      <point x="728" y="126" type="line"/>
      <point x="891" y="154" type="line"/>
      <point x="891" y="680" type="line" smooth="yes"/>
      <point x="891" y="859"/>
      <point x="814" y="942"/>
      <point x="662" y="942" type="curve" smooth="yes"/>
      <point x="554" y="942"/>
      <point x="462" y="887"/>
      <point x="405" y="799" type="curve"/>
      <point x="405" y="154" type="line"/>
      <point x="568" y="126" type="line"/>
      <point x="568" y="0" type="line"/>
      <point x="45" y="0" type="line"/>
    </contour>
  </outline>
</glyph>
<glyph name="i" format="2">
  <advance width="673"/>
  <unicode hex="0069"/>
  <outline>
    <contour>
      <point x="89" y="126" type="line"/>
      <point x="252" y="154" type="line"/>
      <point x="252" y="927" type="line"/>
      <point x="89" y="955" type="line"/>
      <point x="89" y="1082" type="line"/>
      <point x="449" y="1082" type="line"/>
      <point x="449" y="154" type="line"/>
      <point x="612" y="126" type="line"/>
      <point x="612" y="0" type="line"/>
      <point x="89" y="0" type="line"/>
    </contour>
    <contour>
      <point x="449" y="1359" type="line"/>
      <point x="252" y="1359" type="line"/>
      <point x="252" y="1560" type="line"/>
      <point x="449" y="1560" type="line"/>
    </contour>
  </outline>
</glyph>
<glyph name="j" format="2">
  <advance width="571"/>
  <unicode hex="006A"/>
  <outline>
    <contour>
      <point x="424" y="-89" type="line" smooth="yes"/>
      <point x="424" y="-256"/>
      <point x="252" y="-437"/>
      <point x="99" y="-437" type="qcurve" smooth="yes"/>
      <point x="67" y="-437"/>
      <point x="15" y="-428"/>
      <point x="-13" y="-419" type="qcurve"/>
      <point x="0" y="-264" type="line"/>
      <point x="14" y="-269"/>
      <point x="68" y="-276"/>
      <point x="85" y="-276" type="qcurve" smooth="yes"/>
      <point x="150" y="-276"/>
      <point x="227" y="-188"/>
      <point x="227" y="-89" type="qcurve" smooth="yes"/>
      <point x="227" y="927" type="line"/>
      <point x="64" y="955" type="line"/>
      <point x="64" y="1082" type="line"/>
      <point x="424" y="1082" type="line"/>
    </contour>
    <contour>
      <point x="418" y="1363" type="line"/>
      <point x="221" y="1363" type="line"/>
      <point x="221" y="1560" type="line"/>
      <point x="418" y="1560" type="line"/>
    </contour>
  </outline>
</glyph>
<glyph name="k" format="1">
  <advance width="1305"/>
  <unicode hex="006B"/>
  <outline>
    <contour>
      <point x="62.0" y="1433.0" type="line"/>
      <point x="62.0" y="1560.0" type="line"/>
      <point x="422.0" y="1560.0" type="line"/>
      <point x="422.0" y="656.0" type="line"/>
      <point x="548" y="656" type="line"/>
      <point x="811" y="936" type="line"/>
      <point x="816" y="942" type="line"/>
      <point x="700" y="955" type="line"/>
      <point x="700" y="1082" type="line"/>
      <point x="1160" y="1082" type="line"/>
      <point x="1160" y="955" type="line"/>
      <point x="1021" y="929" type="line"/>
      <point x="714" y="585" type="line"/>
      <point x="1090" y="150" type="line"/>
      <point x="1246" y="126" type="line"/>
      <point x="1246" y="0" type="line"/>
      <point x="757" y="0" type="line"/>
      <point x="757" y="126" type="line"/>
      <point x="867" y="139" type="line"/>
      <point x="864" y="143" type="line"/>
      <point x="552" y="499" type="line"/>
      <point x="422.0" y="499.0" type="line"/>
      <point x="422.0" y="154.0" type="line"/>
      <point x="585.0" y="126.0" type="line"/>
      <point x="585.0" y="0.0" type="line"/>
      <point x="62.0" y="0.0" type="line"/>
      <point x="62.0" y="126.0" type="line"/>
      <point x="225.0" y="154.0" type="line"/>
      <point x="225.0" y="1405.0" type="line"/>
    </contour>
  </outline>
</glyph>
<glyph name="l" format="1">
  <advance width="645"/>
  <unicode hex="006C"/>
  <outline>
    <contour>
      <point x="60" y="1433" type="line"/>
      <point x="60" y="1560" type="line"/>
      <point x="420" y="1560" type="line"/>
      <point x="420" y="154" type="line"/>
      <point x="583" y="126" type="line"/>
      <point x="583" y="0" type="line"/>
      <point x="60" y="0" type="line"/>
      <point x="60" y="126" type="line"/>
      <point x="223" y="154" type="line"/>
      <point x="223" y="1405" type="line"/>
    </contour>
  </outline>
</glyph>
<glyph name="m" format="1">
  <advance width="1935"/>
  <unicode hex="006D"/>
  <outline>
    <contour>
      <point x="50" y="955" type="line"/>
      <point x="50" y="1082" type="line"/>
      <point x="390" y="1082" type="line"/>
      <point x="403" y="941" type="line"/>
      <point x="472.333333333" y="1043.66666667"/>
      <point x="583.0" y="1102.0"/>
      <point x="727" y="1102" type="curve" smooth="yes"/>
      <point x="871.0" y="1102.0"/>
      <point x="977.0" y="1035.33333333"/>
      <point x="1029" y="902" type="curve"/>
      <point x="1097.0" y="1024.66666667"/>
      <point x="1210.66666667" y="1102.0"/>
      <point x="1360" y="1102" type="curve" smooth="yes"/>
      <point x="1581.33333333" y="1102.0"/>
      <point x="1718.0" y="951.0"/>
      <point x="1718" y="647" type="curve" smooth="yes"/>
      <point x="1718" y="154" type="line"/>
      <point x="1881" y="126" type="line"/>
      <point x="1881" y="0" type="line"/>
      <point x="1357" y="0" type="line"/>
      <point x="1357" y="126" type="line"/>
      <point x="1520" y="154" type="line"/>
      <point x="1520" y="649" type="line" smooth="yes"/>
      <point x="1520.0" y="862.333333333"/>
      <point x="1446.0" y="942.0"/>
      <point x="1302" y="942" type="curve" smooth="yes"/>
      <point x="1164.66666667" y="942.0"/>
      <point x="1077.33333333" y="833.666666667"/>
      <point x="1064" y="687" type="curve"/>
      <point x="1064" y="154" type="line"/>
      <point x="1227" y="126" type="line"/>
      <point x="1227" y="0" type="line"/>
      <point x="704" y="0" type="line"/>
      <point x="704" y="126" type="line"/>
      <point x="867" y="154" type="line"/>
      <point x="867" y="649" type="line" smooth="yes"/>
      <point x="867.0" y="851.666666667"/>
      <point x="789.666666667" y="942.0"/>
      <point x="647" y="942" type="curve" smooth="yes"/>
      <point x="527.0" y="942.0"/>
      <point x="451.333333333" y="890.333333333"/>
      <point x="410" y="801" type="curve"/>
      <point x="410" y="154" type="line"/>
      <point x="573" y="126" type="line"/>
      <point x="573" y="0" type="line"/>
      <point x="50" y="0" type="line"/>
      <point x="50" y="126" type="line"/>
      <point x="213" y="154" type="line"/>
      <point x="213" y="927" type="line"/>
    </contour>
  </outline>
</glyph>
<glyph name="n" format="2">
  <advance width="1318"/>
  <unicode hex="006E"/>
  <outline>
    <contour>
      <point x="60" y="126" type="line"/>
      <point x="223" y="154" type="line"/>
      <point x="223" y="927" type="line"/>
      <point x="60" y="955" type="line"/>
      <point x="60" y="1082" type="line"/>
      <point x="399" y="1082" type="line"/>
      <point x="413" y="921" type="line"/>
      <point x="467" y="1007"/>
      <point x="630" y="1102"/>
      <point x="734" y="1102" type="qcurve" smooth="yes"/>
      <point x="909" y="1102"/>
      <point x="1101" y="897"/>
      <point x="1101" y="683" type="qcurve" smooth="yes"/>
      <point x="1101" y="154" type="line"/>
      <point x="1264" y="126" type="line"/>
      <point x="1264" y="0" type="line"/>
      <point x="741" y="0" type="line"/>
      <point x="741" y="126" type="line"/>
      <point x="904" y="154" type="line"/>
      <point x="904" y="679" type="line" smooth="yes"/>
      <point x="904" y="822"/>
      <point x="791" y="942"/>
      <point x="675" y="942" type="qcurve" smooth="yes"/>
      <point x="590" y="942"/>
      <point x="459" y="860"/>
      <point x="420" y="789" type="qcurve"/>
      <point x="420" y="154" type="line"/>
      <point x="583" y="126" type="line"/>
      <point x="583" y="0" type="line"/>
      <point x="60" y="0" type="line"/>
    </contour>
  </outline>
</glyph>
<glyph name="o" format="1">
  <advance width="1149"/>
  <unicode hex="006F"/>
  <outline>
    <contour>
      <point x="90" y="551" type="line" smooth="yes"/>
      <point x="90.0" y="871.0"/>
      <point x="275.6666666666668" y="1102.0"/>
      <point x="573" y="1102" type="curve" smooth="yes"/>
      <point x="871.6666666666666" y="1102.0"/>
      <point x="1058.0" y="872.333333333333"/>
      <point x="1058" y="551" type="curve" smooth="yes"/>
      <point x="1058" y="529" type="line" smooth="yes"/>
      <point x="1058.0" y="206.33333333333337"/>
      <point x="872.3333333333333" y="-21.0"/>
      <point x="575" y="-21" type="curve" smooth="yes"/>
      <point x="274.99999999999994" y="-21.0"/>
      <point x="90.0" y="207.6666666666668"/>
      <point x="90" y="529" type="curve" smooth="yes"/>
    </contour>
    <contour>
      <point x="287" y="529" type="line" smooth="yes"/>
      <point x="287.0" y="299.6666666666667"/>
      <point x="384.33333333333337" y="133.0"/>
      <point x="575" y="133" type="curve" smooth="yes"/>
      <point x="761.6666666666667" y="133.0"/>
      <point x="861.0" y="299.66666666666674"/>
      <point x="861" y="529" type="curve" smooth="yes"/>
      <point x="861" y="551" type="line" smooth="yes"/>
      <point x="861.0" y="777.6666666666667"/>
      <point x="762.3333333333333" y="947.0"/>
      <point x="573" y="947" type="curve" smooth="yes"/>
      <point x="383.66666666666674" y="947.0"/>
      <point x="287.0" y="777.6666666666667"/>
      <point x="287" y="551" type="curve" smooth="yes"/>
    </contour>
  </outline>
</glyph>
<glyph name="p" format="1">
  <advance width="1185"/>
  <unicode hex="0070"/>
  <outline>
    <contour>
      <point x="30" y="955" type="line"/>
      <point x="30" y="1082" type="line"/>
      <point x="362" y="1082" type="line"/>
      <point x="380" y="950" type="line"/>
      <point x="452" y="1049"/>
      <point x="555" y="1102"/>
      <point x="691" y="1102" type="curve" smooth="yes"/>
      <point x="959" y="1102"/>
      <point x="1115" y="870"/>
      <point x="1115" y="521" type="curve" smooth="yes"/>
      <point x="1115" y="500" type="line" smooth="yes"/>
      <point x="1115" y="188"/>
      <point x="957" y="-21"/>
      <point x="694" y="-21" type="curve" smooth="yes"/>
      <point x="561" y="-21"/>
      <point x="461" y="24"/>
      <point x="390" y="112" type="curve"/>
      <point x="390" y="-261" type="line"/>
      <point x="562" y="-289" type="line"/>
      <point x="562" y="-416" type="line"/>
      <point x="40" y="-416" type="line"/>
      <point x="40" y="-289" type="line"/>
      <point x="193" y="-261" type="line"/>
      <point x="193" y="927" type="line"/>
    </contour>
    <contour>
      <point x="917" y="521" type="line" smooth="yes"/>
      <point x="917" y="768"/>
      <point x="820" y="942"/>
      <point x="631" y="942" type="curve" smooth="yes"/>
      <point x="519" y="942"/>
      <point x="439" y="888"/>
      <point x="390" y="800" type="curve"/>
      <point x="390" y="273" type="line"/>
      <point x="439" y="184"/>
      <point x="517" y="133"/>
      <point x="633" y="133" type="curve" smooth="yes"/>
      <point x="820" y="133"/>
      <point x="917" y="283"/>
      <point x="917" y="500" type="curve" smooth="yes"/>
    </contour>
  </outline>
</glyph>
<glyph name="q" format="1">
  <advance width="1127"/>
  <unicode hex="0071"/>
  <outline>
    <contour>
      <point x="70" y="521" type="line" smooth="yes"/>
      <point x="70" y="869"/>
      <point x="226" y="1102"/>
      <point x="493" y="1102" type="curve" smooth="yes"/>
      <point x="620" y="1102"/>
      <point x="719" y="1054"/>
      <point x="788" y="963" type="curve"/>
      <point x="804" y="1082" type="line"/>
      <point x="974" y="1082" type="line"/>
      <point x="974" y="-261" type="line"/>
      <point x="1127" y="-289" type="line"/>
      <point x="1127" y="-416" type="line"/>
      <point x="614" y="-416" type="line"/>
      <point x="614" y="-289" type="line"/>
      <point x="777" y="-261" type="line"/>
      <point x="777" y="102" type="line"/>
      <point x="708" y="21"/>
      <point x="612" y="-21"/>
      <point x="491" y="-21" type="curve" smooth="yes"/>
      <point x="227" y="-21"/>
      <point x="70" y="188"/>
      <point x="70" y="500" type="curve" smooth="yes"/>
    </contour>
    <contour>
      <point x="267" y="500" type="line" smooth="yes"/>
      <point x="267" y="281"/>
      <point x="354" y="133"/>
      <point x="541" y="133" type="curve" smooth="yes"/>
      <point x="650" y="133"/>
      <point x="725" y="183"/>
      <point x="777" y="271" type="curve"/>
      <point x="777" y="814" type="line"/>
      <point x="725" y="895"/>
      <point x="648" y="947"/>
      <point x="543" y="947" type="curve" smooth="yes"/>
      <point x="355" y="947"/>
      <point x="267" y="770"/>
      <point x="267" y="521" type="curve" smooth="yes"/>
    </contour>
  </outline>
</glyph>
<glyph name="r" format="1">
  <advance width="846.0"/>
  <unicode hex="0072"/>
  <outline>
    <contour>
      <point x="68" y="126" type="line"/>
      <point x="231" y="154" type="line"/>
      <point x="231" y="927" type="line"/>
      <point x="68" y="955" type="line"/>
      <point x="68" y="1082" type="line"/>
      <point x="407" y="1082" type="line"/>
      <point x="424" y="944" type="line"/>
      <point x="426" y="925" type="line"/>
      <point x="487" y="1036"/>
      <point x="578" y="1102"/>
      <point x="694" y="1102" type="curve" smooth="yes"/>
      <point x="735" y="1102"/>
      <point x="785" y="1093"/>
      <point x="804" y="1086" type="curve"/>
      <point x="778" y="903" type="line"/>
      <point x="641" y="911" type="line" smooth="yes"/>
      <point x="537" y="917"/>
      <point x="466" y="857"/>
      <point x="428" y="767" type="curve"/>
      <point x="428" y="154" type="line"/>
      <point x="591" y="126" type="line"/>
      <point x="591" y="0" type="line"/>
      <point x="68" y="0" type="line"/>
    </contour>
  </outline>
</glyph>
<glyph name="s" format="1">
  <advance width="1044"/>
  <unicode hex="0073"/>
  <outline>
    <contour>
      <point x="906" y="752" type="line"/>
      <point x="758" y="752" type="line"/>
      <point x="726" y="890" type="line"/>
      <point x="679" y="924"/>
      <point x="615" y="947"/>
      <point x="533" y="947" type="curve" smooth="yes"/>
      <point x="410" y="947"/>
      <point x="326" y="877"/>
      <point x="326" y="790" type="curve" smooth="yes"/>
      <point x="326" y="714"/>
      <point x="362" y="674"/>
      <point x="544" y="631" type="curve" smooth="yes"/>
      <point x="845" y="560"/>
      <point x="949" y="461"/>
      <point x="949" y="301" type="curve" smooth="yes"/>
      <point x="949" y="118"/>
      <point x="809" y="-21"/>
      <point x="528" y="-21" type="curve" smooth="yes"/>
      <point x="374" y="-21"/>
      <point x="255" y="8"/>
      <point x="132" y="80" type="curve"/>
      <point x="131" y="337" type="line"/>
      <point x="279" y="337" type="line"/>
      <point x="316" y="182" type="line"/>
      <point x="371" y="151"/>
      <point x="447" y="133"/>
      <point x="528" y="133" type="curve" smooth="yes"/>
      <point x="678" y="133"/>
      <point x="752" y="205"/>
      <point x="752" y="287" type="curve" smooth="yes"/>
      <point x="752" y="372"/>
      <point x="693" y="422"/>
      <point x="509" y="464" type="curve" smooth="yes"/>
      <point x="247" y="524"/>
      <point x="128" y="616"/>
      <point x="128" y="784" type="curve" smooth="yes"/>
      <point x="128" y="960"/>
      <point x="291" y="1102"/>
      <point x="533" y="1102" type="curve" smooth="yes"/>
      <point x="687" y="1102"/>
      <point x="809" y="1064"/>
      <point x="896" y="999" type="curve"/>
    </contour>
  </outline>
</glyph>
<glyph name="t" format="1">
  <advance width="722"/>
  <unicode hex="0074"/>
  <outline>
    <contour>
      <point x="388" y="1343" type="line"/>
      <point x="388" y="1082" type="line"/>
      <point x="623" y="1082" type="line"/>
      <point x="623" y="936" type="line"/>
      <point x="388" y="936" type="line"/>
      <point x="388" y="279" type="line" smooth="yes"/>
      <point x="388" y="175"/>
      <point x="432" y="127"/>
      <point x="502" y="127" type="curve" smooth="yes"/>
      <point x="548" y="127"/>
      <point x="615" y="138"/>
      <point x="647" y="145" type="curve"/>
      <point x="674" y="16" type="line"/>
      <point x="617" y="-2"/>
      <point x="524" y="-17"/>
      <point x="452" y="-17" type="curve" smooth="yes"/>
      <point x="292" y="-17"/>
      <point x="191" y="72"/>
      <point x="191" y="279" type="curve" smooth="yes"/>
      <point x="191" y="936" type="line"/>
      <point x="20" y="936" type="line"/>
      <point x="20" y="1082" type="line"/>
      <point x="191" y="1082" type="line"/>
      <point x="191" y="1343" type="line"/>
    </contour>
  </outline>
</glyph>
<glyph name="u" format="2">
  <advance width="1244"/>
  <unicode hex="0075"/>
  <outline>
    <contour>
      <point x="863" y="160" type="line"/>
      <point x="812" y="73"/>
      <point x="651" y="-21"/>
      <point x="546" y="-21" type="qcurve" smooth="yes"/>
      <point x="370" y="-21"/>
      <point x="172" y="205"/>
      <point x="172" y="444" type="qcurve" smooth="yes"/>
      <point x="172" y="927" type="line"/>
      <point x="48" y="955" type="line"/>
      <point x="48" y="1082" type="line"/>
      <point x="172" y="1082" type="line"/>
      <point x="369" y="1082" type="line"/>
      <point x="369" y="442" type="line" smooth="yes"/>
      <point x="369" y="269"/>
      <point x="471" y="139"/>
      <point x="579" y="139" type="qcurve" smooth="yes"/>
      <point x="684" y="139"/>
      <point x="821" y="224"/>
      <point x="856" y="302" type="qcurve"/>
      <point x="856" y="927" type="line"/>
      <point x="711" y="955" type="line"/>
      <point x="711" y="1082" type="line"/>
      <point x="856" y="1082" type="line"/>
      <point x="1053" y="1082" type="line"/>
      <point x="1053" y="154" type="line"/>
      <point x="1177" y="126" type="line"/>
      <point x="1177" y="0" type="line"/>
      <point x="876" y="0" type="line"/>
    </contour>
  </outline>
</glyph>
<glyph name="v" format="1">
  <advance width="1198"/>
  <unicode hex="0076"/>
  <outline>
    <contour>
      <point x="476" y="955" type="line"/>
      <point x="335" y="935" type="line"/>
      <point x="575" y="319" type="line"/>
      <point x="603" y="232" type="line"/>
      <point x="609" y="232" type="line"/>
      <point x="641" y="319" type="line"/>
      <point x="864" y="935" type="line"/>
      <point x="719" y="955" type="line"/>
      <point x="719" y="1082" type="line"/>
      <point x="1172" y="1082" type="line"/>
      <point x="1172" y="955" type="line"/>
      <point x="1058" y="940" type="line"/>
      <point x="692" y="0" type="line"/>
      <point x="519" y="0" type="line"/>
      <point x="134" y="940" type="line"/>
      <point x="22" y="955" type="line"/>
      <point x="22" y="1082" type="line"/>
      <point x="476" y="1082" type="line"/>
    </contour>
  </outline>
</glyph>
<glyph name="w" format="1">
  <advance width="1763"/>
  <unicode hex="0077"/>
  <outline>
    <contour>
      <point x="1734" y="955" type="line"/>
      <point x="1609" y="938" type="line"/>
      <point x="1337" y="0" type="line"/>
      <point x="1149" y="0" type="line"/>
      <point x="939" y="650" type="line"/>
      <point x="893" y="814" type="line"/>
      <point x="887" y="813" type="line"/>
      <point x="842" y="650" type="line"/>
      <point x="629" y="0" type="line"/>
      <point x="459" y="0" type="line"/>
      <point x="173" y="941" type="line"/>
      <point x="46" y="955" type="line"/>
      <point x="46" y="1082" type="line"/>
      <point x="493" y="1082" type="line"/>
      <point x="493" y="955" type="line"/>
      <point x="369" y="933" type="line"/>
      <point x="517" y="394" type="line"/>
      <point x="543" y="268" type="line"/>
      <point x="549" y="268" type="line"/>
      <point x="583" y="394" type="line"/>
      <point x="806" y="1082" type="line"/>
      <point x="975" y="1082" type="line"/>
      <point x="1195" y="394" type="line"/>
      <point x="1235" y="244" type="line"/>
      <point x="1241" y="244" type="line"/>
      <point x="1280" y="394" type="line"/>
      <point x="1426" y="934" type="line"/>
      <point x="1297" y="955" type="line"/>
      <point x="1297" y="1082" type="line"/>
      <point x="1734" y="1082" type="line"/>
    </contour>
  </outline>
</glyph>
<glyph name="x" format="1">
  <advance width="1195"/>
  <unicode hex="0078"/>
  <outline>
    <contour>
      <point x="38" y="126" type="line"/>
      <point x="158" y="149" type="line"/>
      <point x="481" y="547" type="line"/>
      <point x="165" y="932" type="line"/>
      <point x="58" y="955" type="line"/>
      <point x="58" y="1082" type="line"/>
      <point x="482" y="1082" type="line"/>
      <point x="482" y="955" type="line"/>
      <point x="374" y="943" type="line"/>
      <point x="596" y="667" type="line"/>
      <point x="812" y="944" type="line"/>
      <point x="696" y="955" type="line"/>
      <point x="696" y="1082" type="line"/>
      <point x="1113" y="1082" type="line"/>
      <point x="1113" y="955" type="line"/>
      <point x="1003" y="932" type="line"/>
      <point x="710" y="550" type="line"/>
      <point x="1047" y="149" type="line"/>
      <point x="1159" y="126" type="line"/>
      <point x="1159" y="0" type="line"/>
      <point x="700" y="0" type="line"/>
      <point x="700" y="126" type="line"/>
      <point x="830" y="137" type="line"/>
      <point x="593" y="426" type="line"/>
      <point x="363" y="137" type="line"/>
      <point x="480" y="126" type="line"/>
      <point x="480" y="0" type="line"/>
      <point x="38" y="0" type="line"/>
    </contour>
  </outline>
</glyph>
<glyph name="y" format="1">
  <advance width="1252"/>
  <unicode hex="0079"/>
  <outline>
    <contour>
      <point x="1207" y="955" type="line"/>
      <point x="1084" y="939" type="line"/>
      <point x="656" y="-166" type="line" smooth="yes"/>
      <point x="595" y="-323"/>
      <point x="504" y="-437"/>
      <point x="331" y="-437" type="curve" smooth="yes"/>
      <point x="300" y="-437"/>
      <point x="241" y="-428"/>
      <point x="214" y="-421" type="curve"/>
      <point x="234" y="-266" type="line"/>
      <point x="226" y="-265"/>
      <point x="307" y="-271"/>
      <point x="322" y="-271" type="curve" smooth="yes"/>
      <point x="406" y="-271"/>
      <point x="453" y="-186"/>
      <point x="492" y="-91" type="curve" smooth="yes"/>
      <point x="539" y="21" type="line"/>
      <point x="162" y="939" type="line"/>
      <point x="35" y="955" type="line"/>
      <point x="35" y="1082" type="line"/>
      <point x="500" y="1082" type="line"/>
      <point x="500" y="955" type="line"/>
      <point x="378" y="935" type="line"/>
      <point x="584" y="401" type="line"/>
      <point x="629" y="268" type="line"/>
      <point x="635" y="268" type="line"/>
      <point x="872" y="935" type="line"/>
      <point x="749" y="955" type="line"/>
      <point x="749" y="1082" type="line"/>
      <point x="1207" y="1082" type="line"/>
    </contour>
  </outline>
</glyph>
<glyph name="z" format="1">
  <advance width="1024"/>
  <unicode hex="007A"/>
  <outline>
    <contour>
      <point x="322" y="150" type="line"/>
      <point x="783" y="150" type="line"/>
      <point x="809" y="333" type="line"/>
      <point x="956" y="333" type="line"/>
      <point x="956" y="0" type="line"/>
      <point x="84" y="0" type="line"/>
      <point x="84" y="138" type="line"/>
      <point x="673" y="930" type="line"/>
      <point x="270" y="930" type="line"/>
      <point x="245" y="748" type="line"/>
      <point x="97" y="748" type="line"/>
      <point x="97" y="1082" type="line"/>
      <point x="917" y="1082" type="line"/>
      <point x="917" y="948" type="line"/>
    </contour>
  </outline>
</glyph>
<glyph name="braceleft" format="2">
  <advance width="701"/>
  <unicode hex="007B"/>
  <outline>
    <contour>
      <point x="631" y="-364" type="line"/>
      <point x="436" y="-309"/>
      <point x="271" y="-69"/>
      <point x="271" y="101" type="qcurve" smooth="yes"/>
      <point x="271" y="306" type="line" smooth="yes"/>
      <point x="271" y="418"/>
      <point x="169" y="543"/>
      <point x="63" y="543" type="qcurve"/>
      <point x="63" y="690" type="line"/>
      <point x="169" y="690"/>
      <point x="271" y="813"/>
      <point x="271" y="926" type="qcurve" smooth="yes"/>
      <point x="271" y="1132" type="line" smooth="yes"/>
      <point x="271" y="1303"/>
      <point x="436" y="1542"/>
      <point x="631" y="1597" type="qcurve"/>
      <point x="671" y="1480" type="line"/>
      <point x="561" y="1445"/>
      <point x="468" y="1264"/>
      <point x="468" y="1132" type="qcurve" smooth="yes"/>
      <point x="468" y="926" type="line" smooth="yes"/>
      <point x="468" y="821"/>
      <point x="384" y="661"/>
      <point x="299" y="616" type="qcurve"/>
      <point x="384" y="570"/>
      <point x="468" y="409"/>
      <point x="468" y="306" type="qcurve" smooth="yes"/>
      <point x="468" y="101" type="line" smooth="yes"/>
      <point x="468" y="-31"/>
      <point x="561" y="-210"/>
      <point x="671" y="-246" type="qcurve"/>
    </contour>
  </outline>
</glyph>
<glyph name="braceright" format="2">
  <advance width="701"/>
  <unicode hex="007D"/>
  <outline>
    <contour>
      <point x="27" y="-246" type="line"/>
      <point x="135" y="-210"/>
      <point x="229" y="-31"/>
      <point x="229" y="101" type="qcurve" smooth="yes"/>
      <point x="229" y="306" type="line" smooth="yes"/>
      <point x="229" y="413"/>
      <point x="319" y="573"/>
      <point x="413" y="616" type="qcurve"/>
      <point x="319" y="657"/>
      <point x="229" y="817"/>
      <point x="229" y="926" type="qcurve" smooth="yes"/>
      <point x="229" y="1132" type="line" smooth="yes"/>
      <point x="229" y="1264"/>
      <point x="135" y="1445"/>
      <point x="27" y="1480" type="qcurve"/>
      <point x="67" y="1597" type="line"/>
      <point x="261" y="1542"/>
      <point x="426" y="1303"/>
      <point x="426" y="1132" type="qcurve" smooth="yes"/>
      <point x="426" y="926" type="line" smooth="yes"/>
      <point x="426" y="813"/>
      <point x="528" y="690"/>
      <point x="635" y="690" type="qcurve"/>
      <point x="635" y="543" type="line"/>
      <point x="528" y="543"/>
      <point x="426" y="418"/>
      <point x="426" y="306" type="qcurve" smooth="yes"/>
      <point x="426" y="101" type="line" smooth="yes"/>
      <point x="426" y="-69"/>
      <point x="261" y="-309"/>
      <point x="67" y="-364" type="qcurve"/>
    </contour>
  </outline>
</glyph>
<glyph name="asciitilde" format="2">
  <advance width="1386"/>
  <unicode hex="007E"/>
  <outline>
    <contour>
      <point x="1257" y="740" type="line"/>
      <point x="1257" y="603"/>
      <point x="1082" y="401"/>
      <point x="952" y="401" type="qcurve" smooth="yes"/>
      <point x="863" y="401"/>
      <point x="716" y="467"/>
      <point x="631" y="541" type="qcurve" smooth="yes"/>
      <point x="571" y="589"/>
      <point x="473" y="637"/>
      <point x="424" y="637" type="qcurve" smooth="yes"/>
      <point x="357" y="637"/>
      <point x="262" y="531"/>
      <point x="262" y="456" type="qcurve"/>
      <point x="121" y="474" type="line"/>
      <point x="121" y="610"/>
      <point x="292" y="803"/>
      <point x="424" y="803" type="qcurve" smooth="yes"/>
      <point x="512" y="803"/>
      <point x="662" y="734"/>
      <point x="747" y="664" type="qcurve" smooth="yes"/>
      <point x="806" y="613"/>
      <point x="901" y="567"/>
      <point x="952" y="567" type="qcurve" smooth="yes"/>
      <point x="1018" y="567"/>
      <point x="1115" y="681"/>
      <point x="1115" y="758" type="qcurve"/>
    </contour>
  </outline>
</glyph>
<glyph name="cent" format="2">
  <advance width="1118"/>
  <unicode hex="00A2"/>
  <outline>
    <contour>
      <point x="589" y="133" type="qcurve" smooth="yes"/>
      <point x="687" y="133"/>
      <point x="836" y="254"/>
      <point x="836" y="342" type="qcurve"/>
      <point x="1014" y="342" type="line"/>
      <point x="1016" y="336" type="line"/>
      <point x="1020" y="213"/>
      <point x="813" y="9"/>
      <point x="664" y="-15" type="qcurve"/>
      <point x="664" y="-245" type="line"/>
      <point x="467" y="-245" type="line"/>
      <point x="467" y="-8" type="line"/>
      <point x="289" y="30"/>
      <point x="104" y="320"/>
      <point x="104" y="520" type="qcurve" smooth="yes"/>
      <point x="104" y="562" type="line" smooth="yes"/>
      <point x="104" y="759"/>
      <point x="289" y="1049"/>
      <point x="467" y="1089" type="qcurve"/>
      <point x="467" y="1318" type="line"/>
      <point x="664" y="1318" type="line"/>
      <point x="664" y="1098" type="line"/>
      <point x="768" y="1086"/>
      <point x="936" y="1005"/>
      <point x="994" y="941" type="qcurve"/>
      <point x="1003" y="701" type="line"/>
      <point x="846" y="701" type="line"/>
      <point x="803" y="871" type="line"/>
      <point x="768" y="905"/>
      <point x="658" y="947"/>
      <point x="589" y="947" type="qcurve" smooth="yes"/>
      <point x="434" y="947"/>
      <point x="301" y="724"/>
      <point x="301" y="562" type="qcurve" smooth="yes"/>
      <point x="301" y="520" type="line" smooth="yes"/>
      <point x="301" y="354"/>
      <point x="433" y="133"/>
    </contour>
  </outline>
</glyph>
<glyph name="sterling" format="1">
  <advance width="1179"/>
  <unicode hex="00A3"/>
  <outline>
    <contour>
      <point x="427" y="615" type="line"/>
      <point x="433" y="466" type="line" smooth="yes"/>
      <point x="433.0" y="346.0"/>
      <point x="411.66666666666663" y="232.66666666666663"/>
      <point x="373" y="154" type="curve"/>
      <point x="924" y="154" type="line"/>
      <point x="940" y="321" type="line"/>
      <point x="1107" y="321" type="line"/>
      <point x="1107" y="154" type="line"/>
      <point x="1108" y="154" type="line"/>
      <point x="1107" y="0" type="line"/>
      <point x="132" y="0" type="line"/>
      <point x="132" y="154" type="line"/>
      <point x="142" y="154" type="line"/>
      <point x="204.66666666666669" y="171.33333333333331"/>
      <point x="237.0" y="328.66666666666674"/>
      <point x="237" y="466" type="curve" smooth="yes"/>
      <point x="231" y="615" type="line"/>
      <point x="68" y="615" type="line"/>
      <point x="68" y="770" type="line"/>
      <point x="225" y="770" type="line"/>
      <point x="215" y="1040" type="line" smooth="yes"/>
      <point x="215.0" y="1312.0"/>
      <point x="376.3333333333333" y="1477.0"/>
      <point x="627" y="1477" type="curve" smooth="yes"/>
      <point x="893.6666666666665" y="1477.0"/>
      <point x="1048.3333333333335" y="1325.3333333333335"/>
      <point x="1043" y="1096" type="curve"/>
      <point x="1041" y="1090" type="line"/>
      <point x="852" y="1090" type="line"/>
      <point x="852.0" y="1247.3333333333335"/>
      <point x="757.6666666666667" y="1322.0"/>
      <point x="627" y="1322" type="curve" smooth="yes"/>
      <point x="495.0" y="1322.0"/>
      <point x="412.0" y="1217.3333333333335"/>
      <point x="412" y="1040" type="curve" smooth="yes"/>
      <point x="422" y="770" type="line"/>
      <point x="841" y="770" type="line"/>
      <point x="841" y="615" type="line"/>
    </contour>
  </outline>
</glyph>
<glyph name="currency" format="2">
  <advance width="1461"/>
  <unicode hex="00A4"/>
  <outline>
    <contour>
      <point x="1087" y="108" type="line"/>
      <point x="1010" y="46"/>
      <point x="825" y="-20"/>
      <point x="724" y="-20" type="qcurve" smooth="yes"/>
      <point x="623" y="-20"/>
      <point x="439" y="45"/>
      <point x="362" y="107" type="qcurve"/>
      <point x="232" y="-26" type="line"/>
      <point x="94" y="112" type="line"/>
      <point x="232" y="252" type="line"/>
      <point x="182" y="328"/>
      <point x="129" y="509"/>
      <point x="129" y="608" type="qcurve" smooth="yes"/>
      <point x="129" y="710"/>
      <point x="186" y="898"/>
      <point x="240" y="976" type="qcurve"/>
      <point x="94" y="1125" type="line"/>
      <point x="232" y="1264" type="line"/>
      <point x="375" y="1118" type="line"/>
      <point x="449" y="1173"/>
      <point x="628" y="1234"/>
      <point x="724" y="1234" type="qcurve" smooth="yes"/>
      <point x="821" y="1234"/>
      <point x="999" y="1172"/>
      <point x="1074" y="1116" type="qcurve"/>
      <point x="1220" y="1265" type="line"/>
      <point x="1360" y="1125" type="line"/>
      <point x="1210" y="972" type="line"/>
      <point x="1262" y="894"/>
      <point x="1319" y="709"/>
      <point x="1319" y="608" type="qcurve" smooth="yes"/>
      <point x="1319" y="510"/>
      <point x="1266" y="331"/>
      <point x="1218" y="255" type="qcurve"/>
      <point x="1360" y="112" type="line"/>
      <point x="1220" y="-27" type="line"/>
    </contour>
    <contour>
      <point x="311" y="608" type="qcurve" smooth="yes"/>
      <point x="311" y="420"/>
      <point x="552" y="155"/>
      <point x="724" y="155" type="qcurve" smooth="yes"/>
      <point x="894" y="155"/>
      <point x="1135" y="420"/>
      <point x="1135" y="608" type="qcurve" smooth="yes"/>
      <point x="1135" y="794"/>
      <point x="894" y="1058"/>
      <point x="724" y="1058" type="qcurve" smooth="yes"/>
      <point x="552" y="1058"/>
      <point x="311" y="794"/>
    </contour>
  </outline>
</glyph>
<glyph name="yen" format="2">
  <advance width="1386"/>
  <unicode hex="00A5"/>
  <outline>
    <contour>
      <point x="1335" y="1329" type="line"/>
      <point x="1196" y="1309" type="line"/>
      <point x="863" y="738" type="line"/>
      <point x="1175" y="738" type="line"/>
      <point x="1175" y="615" type="line"/>
      <point x="792" y="615" type="line"/>
      <point x="792" y="448" type="line"/>
      <point x="1175" y="448" type="line"/>
      <point x="1175" y="326" type="line"/>
      <point x="792" y="326" type="line"/>
      <point x="792" y="154" type="line"/>
      <point x="955" y="126" type="line"/>
      <point x="955" y="0" type="line"/>
      <point x="432" y="0" type="line"/>
      <point x="432" y="126" type="line"/>
      <point x="595" y="154" type="line"/>
      <point x="595" y="326" type="line"/>
      <point x="220" y="326" type="line"/>
      <point x="220" y="448" type="line"/>
      <point x="595" y="448" type="line"/>
      <point x="595" y="615" type="line"/>
      <point x="220" y="615" type="line"/>
      <point x="220" y="738" type="line"/>
      <point x="531" y="738" type="line"/>
      <point x="198" y="1308" type="line"/>
      <point x="59" y="1329" type="line"/>
      <point x="59" y="1456" type="line"/>
      <point x="501" y="1456" type="line"/>
      <point x="501" y="1329" type="line"/>
      <point x="414" y="1314" type="line"/>
      <point x="697" y="793" type="line"/>
      <point x="980" y="1314" type="line"/>
      <point x="894" y="1329" type="line"/>
      <point x="894" y="1456" type="line"/>
      <point x="1335" y="1456" type="line"/>
    </contour>
  </outline>
</glyph>
<glyph name="brokenbar" format="1">
  <advance width="496"/>
  <unicode hex="00A6"/>
  <outline>
    <contour>
      <point x="150" y="-270" type="line"/>
      <point x="150" y="522" type="line"/>
      <point x="347" y="522" type="line"/>
      <point x="347" y="-270" type="line"/>
    </contour>
    <contour>
      <point x="347" y="698" type="line"/>
      <point x="150" y="698" type="line"/>
      <point x="150" y="1456" type="line"/>
      <point x="347" y="1456" type="line"/>
    </contour>
  </outline>
</glyph>
<glyph name="section" format="2">
  <advance width="1233"/>
  <unicode hex="00A7"/>
  <outline>
    <contour>
      <point x="1144" y="431" type="qcurve" smooth="yes"/>
      <point x="1144" y="337"/>
      <point x="1048" y="197"/>
      <point x="960" y="157" type="qcurve"/>
      <point x="1030" y="106"/>
      <point x="1100" y="-30"/>
      <point x="1100" y="-128" type="qcurve" smooth="yes"/>
      <point x="1100" y="-300"/>
      <point x="834" y="-495"/>
      <point x="609" y="-495" type="qcurve" smooth="yes"/>
      <point x="387" y="-495"/>
      <point x="86" y="-290"/>
      <point x="91" y="-70" type="qcurve"/>
      <point x="93" y="-64" type="line"/>
      <point x="281" y="-62" type="line"/>
      <point x="281" y="-205"/>
      <point x="474" y="-340"/>
      <point x="609" y="-340" type="qcurve" smooth="yes"/>
      <point x="745" y="-340"/>
      <point x="903" y="-221"/>
      <point x="903" y="-130" type="qcurve" smooth="yes"/>
      <point x="903" y="-39"/>
      <point x="759" y="62"/>
      <point x="555" y="125" type="qcurve" smooth="yes"/>
      <point x="316" y="188"/>
      <point x="90" y="374"/>
      <point x="90" y="551" type="qcurve" smooth="yes"/>
      <point x="90" y="642"/>
      <point x="183" y="783"/>
      <point x="270" y="824" type="qcurve"/>
      <point x="202" y="874"/>
      <point x="135" y="1013"/>
      <point x="135" y="1110" type="qcurve" smooth="yes"/>
      <point x="135" y="1276"/>
      <point x="402" y="1477"/>
      <point x="627" y="1477" type="qcurve" smooth="yes"/>
      <point x="859" y="1477"/>
      <point x="1120" y="1254"/>
      <point x="1116" y="1052" type="qcurve"/>
      <point x="1113" y="1046" type="line"/>
      <point x="925" y="1046" type="line"/>
      <point x="925" y="1164"/>
      <point x="766" y="1322"/>
      <point x="627" y="1322" type="qcurve" smooth="yes"/>
      <point x="481" y="1322"/>
      <point x="332" y="1203"/>
      <point x="332" y="1112" type="qcurve" smooth="yes"/>
      <point x="332" y="1013"/>
      <point x="466" y="914"/>
      <point x="677" y="856" type="qcurve" smooth="yes"/>
      <point x="921" y="787"/>
      <point x="1144" y="606"/>
    </contour>
    <contour>
      <point x="599" y="689" type="qcurve"/>
      <point x="551" y="701"/>
      <point x="468" y="727"/>
      <point x="432" y="741" type="qcurve"/>
      <point x="359" y="722"/>
      <point x="287" y="622"/>
      <point x="287" y="553" type="qcurve" smooth="yes"/>
      <point x="287" y="452"/>
      <point x="422" y="350"/>
      <point x="633" y="291" type="qcurve" smooth="yes"/>
      <point x="685" y="275"/>
      <point x="761" y="252"/>
      <point x="795" y="240" type="qcurve"/>
      <point x="868" y="260"/>
      <point x="948" y="360"/>
      <point x="948" y="428" type="qcurve" smooth="yes"/>
      <point x="948" y="519"/>
      <point x="801" y="626"/>
    </contour>
  </outline>
</glyph>
<glyph name="copyright" format="2">
  <advance width="1595"/>
  <unicode hex="00A9"/>
  <outline>
    <contour>
      <point x="1114" y="596" type="line"/>
      <point x="1116" y="590" type="line"/>
      <point x="1120" y="439"/>
      <point x="945" y="282"/>
      <point x="788" y="282" type="qcurve" smooth="yes"/>
      <point x="628" y="282"/>
      <point x="439" y="494"/>
      <point x="439" y="669" type="qcurve" smooth="yes"/>
      <point x="439" y="788" type="line" smooth="yes"/>
      <point x="439" y="961"/>
      <point x="628" y="1175"/>
      <point x="788" y="1175" type="qcurve" smooth="yes"/>
      <point x="945" y="1175"/>
      <point x="1121" y="1017"/>
      <point x="1117" y="868" type="qcurve"/>
      <point x="1115" y="862" type="line"/>
      <point x="969" y="862" type="line"/>
      <point x="969" y="957"/>
      <point x="878" y="1044"/>
      <point x="788" y="1044" type="qcurve" smooth="yes"/>
      <point x="693" y="1044"/>
      <point x="591" y="903"/>
      <point x="591" y="789" type="qcurve" smooth="yes"/>
      <point x="591" y="669" type="line" smooth="yes"/>
      <point x="591" y="552"/>
      <point x="693" y="412"/>
      <point x="788" y="412" type="qcurve" smooth="yes"/>
      <point x="878" y="412"/>
      <point x="968" y="498"/>
      <point x="968" y="596" type="qcurve"/>
    </contour>
    <contour>
      <point x="212" y="729" type="qcurve" smooth="yes"/>
      <point x="212" y="464"/>
      <point x="556" y="100"/>
      <point x="802" y="100" type="qcurve" smooth="yes"/>
      <point x="1046" y="100"/>
      <point x="1390" y="464"/>
      <point x="1390" y="729" type="qcurve" smooth="yes"/>
      <point x="1390" y="992"/>
      <point x="1046" y="1354"/>
      <point x="802" y="1354" type="qcurve" smooth="yes"/>
      <point x="556" y="1354"/>
      <point x="212" y="993"/>
    </contour>
    <contour>
      <point x="92" y="729" type="qcurve" smooth="yes"/>
      <point x="92" y="1044"/>
      <point x="506" y="1476"/>
      <point x="802" y="1476" type="qcurve" smooth="yes"/>
      <point x="1097" y="1476"/>
      <point x="1511" y="1044"/>
      <point x="1511" y="729" type="qcurve" smooth="yes"/>
      <point x="1511" y="413"/>
      <point x="1096" y="-21"/>
      <point x="802" y="-21" type="qcurve" smooth="yes"/>
      <point x="506" y="-21"/>
      <point x="92" y="413"/>
    </contour>
  </outline>
</glyph>
<glyph name="ordfeminine" format="2">
  <advance width="894"/>
  <unicode hex="00AA"/>
  <outline>
    <contour>
      <point x="598" y="706" type="line"/>
      <point x="590" y="727"/>
      <point x="580" y="775"/>
      <point x="577" y="801" type="qcurve"/>
      <point x="544" y="754"/>
      <point x="432" y="692"/>
      <point x="355" y="692" type="qcurve" smooth="yes"/>
      <point x="236" y="692"/>
      <point x="106" y="814"/>
      <point x="106" y="920" type="qcurve" smooth="yes"/>
      <point x="106" y="1030"/>
      <point x="274" y="1150"/>
      <point x="436" y="1150" type="qcurve" smooth="yes"/>
      <point x="574" y="1150" type="line"/>
      <point x="574" y="1202" type="line" smooth="yes"/>
      <point x="574" y="1265"/>
      <point x="515" y="1333"/>
      <point x="457" y="1333" type="qcurve" smooth="yes"/>
      <point x="390" y="1333"/>
      <point x="317" y="1279"/>
      <point x="317" y="1230" type="qcurve"/>
      <point x="154" y="1243" type="line"/>
      <point x="153" y="1249" type="line"/>
      <point x="147" y="1347"/>
      <point x="317" y="1477"/>
      <point x="457" y="1477" type="qcurve" smooth="yes"/>
      <point x="590" y="1477"/>
      <point x="747" y="1335"/>
      <point x="747" y="1201" type="qcurve" smooth="yes"/>
      <point x="747" y="887" type="line" smooth="yes"/>
      <point x="747" y="836"/>
      <point x="759" y="748"/>
      <point x="773" y="706" type="qcurve"/>
    </contour>
    <contour>
      <point x="397" y="831" type="qcurve" smooth="yes"/>
      <point x="448" y="831"/>
      <point x="556" y="890"/>
      <point x="574" y="926" type="qcurve"/>
      <point x="574" y="1036" type="line"/>
      <point x="437" y="1036" type="line" smooth="yes"/>
      <point x="362" y="1036"/>
      <point x="278" y="970"/>
      <point x="278" y="924" type="qcurve" smooth="yes"/>
      <point x="278" y="879"/>
      <point x="337" y="831"/>
    </contour>
  </outline>
</glyph>
<glyph name="logicalnot" format="1">
  <advance width="1122"/>
  <unicode hex="00AC"/>
  <outline>
    <contour>
      <point x="955" y="375" type="line"/>
      <point x="758" y="375" type="line"/>
      <point x="758" y="637" type="line"/>
      <point x="121" y="637" type="line"/>
      <point x="121" y="802" type="line"/>
      <point x="955" y="802" type="line"/>
    </contour>
  </outline>
</glyph>
<glyph name="registered" format="2">
  <advance width="1595"/>
  <unicode hex="00AE"/>
  <outline>
    <contour>
      <point x="92" y="729" type="qcurve" smooth="yes"/>
      <point x="92" y="1044"/>
      <point x="506" y="1476"/>
      <point x="802" y="1476" type="qcurve" smooth="yes"/>
      <point x="1097" y="1476"/>
      <point x="1511" y="1044"/>
      <point x="1511" y="729" type="qcurve" smooth="yes"/>
      <point x="1511" y="413"/>
      <point x="1096" y="-21"/>
      <point x="802" y="-21" type="qcurve" smooth="yes"/>
      <point x="506" y="-21"/>
      <point x="92" y="413"/>
    </contour>
    <contour>
      <point x="212" y="729" type="qcurve" smooth="yes"/>
      <point x="212" y="464"/>
      <point x="556" y="100"/>
      <point x="802" y="100" type="qcurve" smooth="yes"/>
      <point x="1046" y="100"/>
      <point x="1390" y="464"/>
      <point x="1390" y="729" type="qcurve" smooth="yes"/>
      <point x="1390" y="992"/>
      <point x="1046" y="1354"/>
      <point x="802" y="1354" type="qcurve" smooth="yes"/>
      <point x="556" y="1354"/>
      <point x="212" y="993"/>
    </contour>
    <contour>
      <point x="657" y="654" type="line"/>
      <point x="657" y="316" type="line"/>
      <point x="508" y="316" type="line"/>
      <point x="508" y="1166" type="line"/>
      <point x="788" y="1166" type="line" smooth="yes"/>
      <point x="940" y="1166"/>
      <point x="1112" y="1035"/>
      <point x="1112" y="909" type="qcurve" smooth="yes"/>
      <point x="1112" y="848"/>
      <point x="1046" y="753"/>
      <point x="984" y="722" type="qcurve"/>
      <point x="1050" y="696"/>
      <point x="1109" y="590"/>
      <point x="1109" y="515" type="qcurve" smooth="yes"/>
      <point x="1109" y="459" type="line" smooth="yes"/>
      <point x="1109" y="418"/>
      <point x="1116" y="353"/>
      <point x="1126" y="332" type="qcurve"/>
      <point x="1126" y="316" type="line"/>
      <point x="973" y="316" type="line"/>
      <point x="964" y="337"/>
      <point x="960" y="418"/>
      <point x="960" y="460" type="qcurve" smooth="yes"/>
      <point x="960" y="514" type="line" smooth="yes"/>
      <point x="960" y="586"/>
      <point x="893" y="654"/>
      <point x="816" y="654" type="qcurve" smooth="yes"/>
    </contour>
    <contour>
      <point x="657" y="784" type="line"/>
      <point x="809" y="784" type="line" smooth="yes"/>
      <point x="874" y="785"/>
      <point x="964" y="848"/>
      <point x="964" y="904" type="qcurve" smooth="yes"/>
      <point x="964" y="977"/>
      <point x="886" y="1036"/>
      <point x="788" y="1036" type="qcurve" smooth="yes"/>
      <point x="657" y="1036" type="line"/>
    </contour>
  </outline>
</glyph>
<glyph name="degree" format="2">
  <advance width="757"/>
  <unicode hex="00B0"/>
  <outline>
    <contour>
      <point x="124" y="1216" type="qcurve" smooth="yes"/>
      <point x="124" y="1322"/>
      <point x="275" y="1477"/>
      <point x="380" y="1477" type="qcurve" smooth="yes"/>
      <point x="484" y="1477"/>
      <point x="633" y="1322"/>
      <point x="633" y="1216" type="qcurve" smooth="yes"/>
      <point x="633" y="1108"/>
      <point x="484" y="959"/>
      <point x="380" y="959" type="qcurve" smooth="yes"/>
      <point x="274" y="959"/>
      <point x="124" y="1108"/>
    </contour>
    <contour>
      <point x="254" y="1216" type="qcurve" smooth="yes"/>
      <point x="254" y="1161"/>
      <point x="327" y="1089"/>
      <point x="380" y="1089" type="qcurve" smooth="yes"/>
      <point x="432" y="1089"/>
      <point x="503" y="1161"/>
      <point x="503" y="1216" type="qcurve" smooth="yes"/>
      <point x="503" y="1271"/>
      <point x="432" y="1346"/>
      <point x="380" y="1346" type="qcurve" smooth="yes"/>
      <point x="327" y="1346"/>
      <point x="254" y="1271"/>
    </contour>
  </outline>
</glyph>
<glyph name="plusminus" format="1">
  <advance width="1057"/>
  <unicode hex="00B1"/>
  <outline>
    <contour>
      <point x="633" y="856" type="line"/>
      <point x="991" y="856" type="line"/>
      <point x="991" y="702" type="line"/>
      <point x="633" y="702" type="line"/>
      <point x="633" y="289" type="line"/>
      <point x="455" y="289" type="line"/>
      <point x="455" y="702" type="line"/>
      <point x="75" y="702" type="line"/>
      <point x="75" y="856" type="line"/>
      <point x="455" y="856" type="line"/>
      <point x="455" y="1267" type="line"/>
      <point x="633" y="1267" type="line"/>
    </contour>
    <contour>
      <point x="959" y="5" type="line"/>
      <point x="124" y="5" type="line"/>
      <point x="124" y="160" type="line"/>
      <point x="959" y="160" type="line"/>
    </contour>
  </outline>
</glyph>
<glyph name="twosuperior" format="2">
  <advance width="827"/>
  <unicode hex="00B2"/>
  <outline>
    <contour>
      <point x="714" y="667" type="line"/>
      <point x="122" y="667" type="line"/>
      <point x="122" y="797" type="line"/>
      <point x="424" y="1059" type="line" smooth="yes"/>
      <point x="493" y="1118"/>
      <point x="536" y="1193"/>
      <point x="536" y="1236" type="qcurve" smooth="yes"/>
      <point x="536" y="1286"/>
      <point x="480" y="1348"/>
      <point x="422" y="1348" type="qcurve" smooth="yes"/>
      <point x="355" y="1348"/>
      <point x="282" y="1284"/>
      <point x="282" y="1234" type="qcurve"/>
      <point x="121" y="1234" type="line"/>
      <point x="119" y="1240" type="line"/>
      <point x="113" y="1339"/>
      <point x="281" y="1479"/>
      <point x="422" y="1479" type="qcurve" smooth="yes"/>
      <point x="557" y="1479"/>
      <point x="709" y="1351"/>
      <point x="709" y="1235" type="qcurve" smooth="yes"/>
      <point x="709" y="1155"/>
      <point x="620" y="1043"/>
      <point x="504" y="938" type="qcurve" smooth="yes"/>
      <point x="351" y="803" type="line"/>
      <point x="353" y="797" type="line"/>
      <point x="714" y="797" type="line"/>
    </contour>
  </outline>
</glyph>
<glyph name="threesuperior" format="2">
  <advance width="845"/>
  <unicode hex="00B3"/>
  <outline>
    <contour>
      <point x="424" y="1137" type="line" smooth="yes"/>
      <point x="491" y="1137"/>
      <point x="555" y="1194"/>
      <point x="555" y="1246" type="qcurve" smooth="yes"/>
      <point x="555" y="1290"/>
      <point x="483" y="1347"/>
      <point x="414" y="1347" type="qcurve" smooth="yes"/>
      <point x="358" y="1347"/>
      <point x="288" y="1299"/>
      <point x="288" y="1259" type="qcurve"/>
      <point x="126" y="1259" type="line"/>
      <point x="124" y="1265" type="line"/>
      <point x="118" y="1359"/>
      <point x="287" y="1478"/>
      <point x="414" y="1478" type="qcurve" smooth="yes"/>
      <point x="559" y="1478"/>
      <point x="727" y="1359"/>
      <point x="727" y="1249" type="qcurve" smooth="yes"/>
      <point x="727" y="1194"/>
      <point x="656" y="1103"/>
      <point x="594" y="1077" type="qcurve"/>
      <point x="665" y="1053"/>
      <point x="740" y="958"/>
      <point x="740" y="890" type="qcurve" smooth="yes"/>
      <point x="740" y="779"/>
      <point x="560" y="655"/>
      <point x="414" y="655" type="qcurve" smooth="yes"/>
      <point x="287" y="655"/>
      <point x="105" y="771"/>
      <point x="111" y="882" type="qcurve"/>
      <point x="112" y="888" type="line"/>
      <point x="275" y="888" type="line"/>
      <point x="275" y="842"/>
      <point x="350" y="785"/>
      <point x="414" y="785" type="qcurve" smooth="yes"/>
      <point x="486" y="785"/>
      <point x="569" y="844"/>
      <point x="569" y="892" type="qcurve" smooth="yes"/>
      <point x="569" y="955"/>
      <point x="497" y="1011"/>
      <point x="424" y="1011" type="qcurve" smooth="yes"/>
      <point x="291" y="1011" type="line"/>
      <point x="291" y="1137" type="line"/>
    </contour>
  </outline>
</glyph>
<glyph name="acute" format="2">
  <advance width="599"/>
  <unicode hex="00B4"/>
  <outline>
    <contour>
      <point x="279" y="1478" type="line"/>
      <point x="509" y="1478" type="line"/>
      <point x="511" y="1472" type="line"/>
      <point x="242" y="1212" type="line"/>
      <point x="95" y="1212" type="line"/>
    </contour>
  </outline>
</glyph>
<glyph name="micro" format="1">
  <advance width="1315"/>
  <unicode hex="00B5"/>
  <outline>
    <contour>
      <point x="900" y="109" type="line"/>
      <point x="841.333333333" y="23.6666666667"/>
      <point x="755.666666667" y="-21.0"/>
      <point x="645" y="-21" type="curve" smooth="yes"/>
      <point x="549.0" y="-21.0"/>
      <point x="478.333333333" y="0.333333333333"/>
      <point x="425" y="47" type="curve"/>
      <point x="425" y="-416" type="line"/>
      <point x="229" y="-416" type="line"/>
      <point x="229" y="927" type="line"/>
      <point x="66" y="955" type="line"/>
      <point x="66" y="1082" type="line"/>
      <point x="229" y="1082" type="line"/>
      <point x="425" y="1082" type="line"/>
      <point x="425" y="460" type="line" smooth="yes"/>
      <point x="425.0" y="208.0"/>
      <point x="501.0" y="133.0"/>
      <point x="637" y="133" type="curve" smooth="yes"/>
      <point x="769.0" y="133.0"/>
      <point x="847.666666667" y="182.333333333"/>
      <point x="889" y="277" type="curve"/>
      <point x="889" y="927" type="line"/>
      <point x="726" y="955" type="line"/>
      <point x="726" y="1082" type="line"/>
      <point x="1086" y="1082" type="line"/>
      <point x="1086" y="154" type="line"/>
      <point x="1249" y="126" type="line"/>
      <point x="1249" y="0" type="line"/>
      <point x="909" y="0" type="line"/>
    </contour>
  </outline>
</glyph>
<glyph name="mu" format="2">
  <advance width="1315"/>
  <unicode hex="00B5"/>
  <outline>
    <contour>
      <point x="900" y="109" type="line"/>
      <point x="856" y="45"/>
      <point x="728" y="-21"/>
      <point x="645" y="-21" type="qcurve" smooth="yes"/>
      <point x="573" y="-21"/>
      <point x="465" y="12"/>
      <point x="425" y="47" type="qcurve"/>
      <point x="425" y="-416" type="line"/>
      <point x="229" y="-416" type="line"/>
      <point x="229" y="927" type="line"/>
      <point x="66" y="955" type="line"/>
      <point x="66" y="1082" type="line"/>
      <point x="229" y="1082" type="line"/>
      <point x="425" y="1082" type="line"/>
      <point x="425" y="460" type="line" smooth="yes"/>
      <point x="425" y="271"/>
      <point x="535" y="133"/>
      <point x="637" y="133" type="qcurve" smooth="yes"/>
      <point x="736" y="133"/>
      <point x="858" y="206"/>
      <point x="889" y="277" type="qcurve"/>
      <point x="889" y="927" type="line"/>
      <point x="726" y="955" type="line"/>
      <point x="726" y="1082" type="line"/>
      <point x="1086" y="1082" type="line"/>
      <point x="1086" y="154" type="line"/>
      <point x="1249" y="126" type="line"/>
      <point x="1249" y="0" type="line"/>
      <point x="909" y="0" type="line"/>
    </contour>
  </outline>
</glyph>
<glyph name="paragraph" format="2">
  <advance width="1090"/>
  <unicode hex="00B6"/>
  <outline>
    <contour>
      <point x="570" y="520" type="line" smooth="yes"/>
      <point x="336" y="520"/>
      <point x="78" y="779"/>
      <point x="78" y="988" type="qcurve" smooth="yes"/>
      <point x="78" y="1195"/>
      <point x="337" y="1456"/>
      <point x="570" y="1456" type="qcurve" smooth="yes"/>
      <point x="1013" y="1456" type="line"/>
      <point x="1013" y="1329" type="line"/>
      <point x="850" y="1301" type="line"/>
      <point x="850" y="154" type="line"/>
      <point x="1013" y="126" type="line"/>
      <point x="1013" y="0" type="line"/>
      <point x="490" y="0" type="line"/>
      <point x="490" y="126" type="line"/>
      <point x="653" y="154" type="line"/>
      <point x="653" y="520" type="line"/>
    </contour>
  </outline>
</glyph>
<glyph name="cedilla" format="2">
  <advance width="470"/>
  <unicode hex="00B8"/>
  <outline>
    <contour>
      <point x="276" y="0" type="line"/>
      <point x="264" y="-52" type="line"/>
      <point x="329" y="-63"/>
      <point x="415" y="-145"/>
      <point x="415" y="-225" type="qcurve" smooth="yes"/>
      <point x="415" y="-321"/>
      <point x="257" y="-435"/>
      <point x="110" y="-435" type="qcurve"/>
      <point x="103" y="-326" type="line"/>
      <point x="175" y="-326"/>
      <point x="262" y="-277"/>
      <point x="262" y="-228" type="qcurve" smooth="yes"/>
      <point x="262" y="-180"/>
      <point x="190" y="-142"/>
      <point x="103" y="-135" type="qcurve"/>
      <point x="135" y="0" type="line"/>
    </contour>
  </outline>
</glyph>
<glyph name="ordmasculine" format="2">
  <advance width="941"/>
  <unicode hex="00BA"/>
  <outline>
    <contour>
      <point x="121" y="1142" type="line" smooth="yes"/>
      <point x="121" y="1290"/>
      <point x="308" y="1477"/>
      <point x="466" y="1477" type="qcurve" smooth="yes"/>
      <point x="624" y="1477"/>
      <point x="812" y="1290"/>
      <point x="812" y="1142" type="qcurve" smooth="yes"/>
      <point x="812" y="1025" type="line" smooth="yes"/>
      <point x="812" y="876"/>
      <point x="625" y="691"/>
      <point x="468" y="691" type="qcurve" smooth="yes"/>
      <point x="309" y="691"/>
      <point x="121" y="876"/>
      <point x="121" y="1025" type="qcurve" smooth="yes"/>
    </contour>
    <contour>
      <point x="293" y="1025" type="line" smooth="yes"/>
      <point x="293" y="937"/>
      <point x="381" y="832"/>
      <point x="468" y="832" type="qcurve" smooth="yes"/>
      <point x="551" y="832"/>
      <point x="639" y="938"/>
      <point x="639" y="1025" type="qcurve" smooth="yes"/>
      <point x="639" y="1142" type="line" smooth="yes"/>
      <point x="639" y="1226"/>
      <point x="550" y="1333"/>
      <point x="466" y="1333" type="qcurve" smooth="yes"/>
      <point x="382" y="1333"/>
      <point x="293" y="1226"/>
      <point x="293" y="1142" type="qcurve" smooth="yes"/>
    </contour>
  </outline>
</glyph>
<glyph name="questiondown" format="2">
  <advance width="890"/>
  <unicode hex="00BF"/>
  <outline>
    <contour>
      <point x="588" y="672" type="line"/>
      <point x="586" y="526"/>
      <point x="538" y="414"/>
      <point x="437" y="323" type="qcurve"/>
      <point x="336" y="203"/>
      <point x="255" y="79"/>
      <point x="255" y="-8" type="qcurve" smooth="yes"/>
      <point x="255" y="-115"/>
      <point x="366" y="-228"/>
      <point x="472" y="-228" type="qcurve" smooth="yes"/>
      <point x="562" y="-228"/>
      <point x="691" y="-129"/>
      <point x="691" y="-33" type="qcurve"/>
      <point x="879" y="-33" type="line"/>
      <point x="882" y="-39" type="line"/>
      <point x="884" y="-200"/>
      <point x="651" y="-394"/>
      <point x="472" y="-394" type="qcurve" smooth="yes"/>
      <point x="274" y="-394"/>
      <point x="58" y="-193"/>
      <point x="58" y="-13" type="qcurve" smooth="yes"/>
      <point x="58" y="114"/>
      <point x="197" y="327"/>
      <point x="314" y="441" type="qcurve" smooth="yes"/>
      <point x="367" y="494"/>
      <point x="391" y="580"/>
      <point x="391" y="672" type="qcurve"/>
    </contour>
    <contour>
      <point x="385" y="1083" type="line"/>
      <point x="590" y="1083" type="line"/>
      <point x="590" y="874" type="line"/>
      <point x="385" y="874" type="line"/>
    </contour>
  </outline>
</glyph>
<glyph name="AE" format="1">
  <advance width="2096"/>
  <unicode hex="00C6"/>
  <outline>
    <contour>
      <point x="51" y="126" type="line"/>
      <point x="192" y="146" type="line"/>
      <point x="985" y="1456" type="line"/>
      <point x="1952" y="1456" type="line"/>
      <point x="1952" y="1134" type="line"/>
      <point x="1784" y="1134" type="line"/>
      <point x="1769" y="1301" type="line"/>
      <point x="1261" y="1301" type="line"/>
      <point x="1281" y="835" type="line"/>
      <point x="1871" y="835" type="line"/>
      <point x="1871" y="680" type="line"/>
      <point x="1287" y="680" type="line"/>
      <point x="1309" y="154" type="line"/>
      <point x="1831" y="154" type="line"/>
      <point x="1847" y="321" type="line"/>
      <point x="2014" y="321" type="line"/>
      <point x="2014" y="0" type="line"/>
      <point x="956" y="0" type="line"/>
      <point x="956" y="126" type="line"/>
      <point x="1112" y="153" type="line"/>
      <point x="1104" y="350" type="line"/>
      <point x="548" y="350" type="line"/>
      <point x="427" y="140" type="line"/>
      <point x="509" y="126" type="line"/>
      <point x="509" y="0" type="line"/>
      <point x="51" y="0" type="line"/>
    </contour>
    <contour>
      <point x="651" y="529" type="line"/>
      <point x="1097" y="529" type="line"/>
      <point x="1066" y="1239" type="line"/>
      <point x="1061" y="1241" type="line"/>
    </contour>
  </outline>
</glyph>
<glyph name="Eth" format="2">
  <advance width="1449"/>
  <unicode hex="00D0"/>
  <outline>
    <contour>
      <point x="711" y="1456" type="line" smooth="yes"/>
      <point x="996" y="1456"/>
      <point x="1343" y="1105"/>
      <point x="1343" y="827" type="qcurve" smooth="yes"/>
      <point x="1343" y="628" type="line" smooth="yes"/>
      <point x="1343" y="349"/>
      <point x="996" y="0"/>
      <point x="711" y="0" type="qcurve" smooth="yes"/>
      <point x="101" y="0" type="line"/>
      <point x="101" y="126" type="line"/>
      <point x="264" y="154" type="line"/>
      <point x="264" y="663" type="line"/>
      <point x="66" y="663" type="line"/>
      <point x="66" y="818" type="line"/>
      <point x="264" y="818" type="line"/>
      <point x="264" y="1301" type="line"/>
      <point x="101" y="1329" type="line"/>
      <point x="101" y="1456" type="line"/>
    </contour>
    <contour>
      <point x="707" y="663" type="line"/>
      <point x="461" y="663" type="line"/>
      <point x="461" y="154" type="line"/>
      <point x="711" y="154" type="line" smooth="yes"/>
      <point x="913" y="154"/>
      <point x="1146" y="420"/>
      <point x="1146" y="628" type="qcurve" smooth="yes"/>
      <point x="1146" y="829" type="line" smooth="yes"/>
      <point x="1146" y="1035"/>
      <point x="913" y="1301"/>
      <point x="711" y="1301" type="qcurve" smooth="yes"/>
      <point x="461" y="1301" type="line"/>
      <point x="461" y="818" type="line"/>
      <point x="707" y="818" type="line"/>
    </contour>
  </outline>
</glyph>
<glyph name="multiply" format="1">
  <advance width="1070"/>
  <unicode hex="00D7"/>
  <outline>
    <contour>
      <point x="79" y="351" type="line"/>
      <point x="406" y="685" type="line"/>
      <point x="79" y="1019" type="line"/>
      <point x="205" y="1145" type="line"/>
      <point x="531" y="812" type="line"/>
      <point x="858" y="1145" type="line"/>
      <point x="984" y="1019" type="line"/>
      <point x="656" y="685" type="line"/>
      <point x="984" y="351" type="line"/>
      <point x="858" y="225" type="line"/>
      <point x="531" y="557" type="line"/>
      <point x="205" y="225" type="line"/>
    </contour>
  </outline>
</glyph>
<glyph name="Oslash" format="1">
  <advance width="1404"/>
  <unicode hex="00D8"/>
  <outline>
    <contour>
      <point x="1368" y="717" type="line" smooth="yes"/>
      <point x="1368.0" y="293.0"/>
      <point x="1099.6666666666665" y="-21.0"/>
      <point x="713" y="-21" type="curve" smooth="yes"/>
      <point x="592.9999999999999" y="-21.0"/>
      <point x="484.99999999999994" y="10.333333333333371"/>
      <point x="393" y="69" type="curve"/>
      <point x="296" y="-94" type="line"/>
      <point x="147" y="-94" type="line"/>
      <point x="291" y="150" type="line"/>
      <point x="155.0" y="284.66666666666663"/>
      <point x="79.0" y="486.33333333333326"/>
      <point x="79" y="717" type="curve" smooth="yes"/>
      <point x="79" y="738" type="line" smooth="yes"/>
      <point x="79.0" y="1160.6666666666665"/>
      <point x="337.0" y="1477.0"/>
      <point x="713" y="1477" type="curve" smooth="yes"/>
      <point x="829.0" y="1477.0"/>
      <point x="935.3333333333333" y="1447.3333333333335"/>
      <point x="1030" y="1394" type="curve"/>
      <point x="1103" y="1517" type="line"/>
      <point x="1252" y="1517" type="line"/>
      <point x="1134" y="1318" type="line"/>
      <point x="1282.0" y="1182.0"/>
      <point x="1368.0" y="973.9999999999999"/>
      <point x="1368" y="738" type="curve" smooth="yes"/>
    </contour>
    <contour>
      <point x="1171" y="740" type="line" smooth="yes"/>
      <point x="1171.0" y="912.0000000000001"/>
      <point x="1125.3333333333335" y="1059.6666666666665"/>
      <point x="1044" y="1157" type="curve"/>
      <point x="1038" y="1158" type="line"/>
      <point x="478" y="213" type="line"/>
      <point x="542.0" y="165.0"/>
      <point x="621.0" y="140.0"/>
      <point x="713" y="140" type="curve" smooth="yes"/>
      <point x="1003.6666666666665" y="140.0"/>
      <point x="1171.0" y="374.3333333333335"/>
      <point x="1171" y="717" type="curve" smooth="yes"/>
    </contour>
    <contour>
      <point x="276" y="717" type="line" smooth="yes"/>
      <point x="276.0" y="553.0"/>
      <point x="313.33333333333337" y="410.66666666666663"/>
      <point x="384" y="316" type="curve"/>
      <point x="390" y="316" type="line"/>
      <point x="945" y="1251" type="line"/>
      <point x="878.3333333333333" y="1292.3333333333335"/>
      <point x="801.0" y="1315.0"/>
      <point x="713" y="1315" type="curve" smooth="yes"/>
      <point x="438.3333333333335" y="1315.0"/>
      <point x="276.0" y="1077.3333333333333"/>
      <point x="276" y="740" type="curve" smooth="yes"/>
    </contour>
  </outline>
</glyph>
<glyph name="Thorn" format="2">
  <advance width="1277"/>
  <unicode hex="00DE"/>
  <outline>
    <contour>
      <point x="70" y="126" type="line"/>
      <point x="233" y="154" type="line"/>
      <point x="233" y="1301" type="line"/>
      <point x="70" y="1329" type="line"/>
      <point x="70" y="1456" type="line"/>
      <point x="430" y="1456" type="line"/>
      <point x="593" y="1456" type="line"/>
      <point x="593" y="1329" type="line"/>
      <point x="430" y="1301" type="line"/>
      <point x="430" y="1163" type="line"/>
      <point x="699" y="1163" type="line" smooth="yes"/>
      <point x="930" y="1163"/>
      <point x="1190" y="927"/>
      <point x="1190" y="738" type="qcurve" smooth="yes"/>
      <point x="1190" y="548"/>
      <point x="930" y="313"/>
      <point x="699" y="313" type="qcurve" smooth="yes"/>
      <point x="430" y="313" type="line"/>
      <point x="430" y="154" type="line"/>
      <point x="593" y="126" type="line"/>
      <point x="593" y="0" type="line"/>
      <point x="70" y="0" type="line"/>
    </contour>
    <contour>
      <point x="430" y="1009" type="line"/>
      <point x="430" y="467" type="line"/>
      <point x="699" y="467" type="line" smooth="yes"/>
      <point x="845" y="467"/>
      <point x="993" y="623"/>
      <point x="993" y="736" type="qcurve" smooth="yes"/>
      <point x="993" y="850"/>
      <point x="845" y="1009"/>
      <point x="699" y="1009" type="qcurve" smooth="yes"/>
    </contour>
  </outline>
</glyph>
<glyph name="germandbls" format="2">
  <advance width="1288"/>
  <unicode hex="00DF"/>
  <outline>
    <contour>
      <point x="414" y="0" type="line"/>
      <point x="55" y="0" type="line"/>
      <point x="55" y="126" type="line"/>
      <point x="218" y="154" type="line"/>
      <point x="218" y="1082" type="line" smooth="yes"/>
      <point x="218" y="1305"/>
      <point x="452" y="1555"/>
      <point x="636" y="1555" type="qcurve" smooth="yes"/>
      <point x="796" y="1555"/>
      <point x="998" y="1383"/>
      <point x="998" y="1216" type="qcurve" smooth="yes"/>
      <point x="998" y="1098"/>
      <point x="870" y="878"/>
      <point x="870" y="821" type="qcurve" smooth="yes"/>
      <point x="870" y="739"/>
      <point x="1216" y="455"/>
      <point x="1216" y="316" type="qcurve" smooth="yes"/>
      <point x="1216" y="149"/>
      <point x="1008" y="-21"/>
      <point x="830" y="-21" type="qcurve" smooth="yes"/>
      <point x="746" y="-21"/>
      <point x="569" y="20"/>
      <point x="532" y="50" type="qcurve"/>
      <point x="575" y="209" type="line"/>
      <point x="617" y="181"/>
      <point x="749" y="133"/>
      <point x="809" y="133" type="qcurve" smooth="yes"/>
      <point x="918" y="133"/>
      <point x="1019" y="227"/>
      <point x="1019" y="306" type="qcurve" smooth="yes"/>
      <point x="1019" y="390"/>
      <point x="673" y="677"/>
      <point x="673" y="823" type="qcurve" smooth="yes"/>
      <point x="673" y="903"/>
      <point x="813" y="1124"/>
      <point x="813" y="1200" type="qcurve" smooth="yes"/>
      <point x="813" y="1294"/>
      <point x="712" y="1401"/>
      <point x="646" y="1401" type="qcurve" smooth="yes"/>
      <point x="541" y="1401"/>
      <point x="414" y="1235"/>
      <point x="414" y="1082" type="qcurve" smooth="yes"/>
    </contour>
  </outline>
</glyph>
<glyph name="ae" format="2">
  <advance width="1795"/>
  <unicode hex="00E6"/>
  <outline>
    <contour>
      <point x="1300" y="-21" type="qcurve" smooth="yes"/>
      <point x="1165" y="-21"/>
      <point x="957" y="76"/>
      <point x="891" y="165" type="qcurve"/>
      <point x="835" y="86"/>
      <point x="611" y="-21"/>
      <point x="452" y="-21" type="qcurve" smooth="yes"/>
      <point x="282" y="-21"/>
      <point x="97" y="153"/>
      <point x="97" y="304" type="qcurve" smooth="yes"/>
      <point x="97" y="462"/>
      <point x="326" y="635"/>
      <point x="546" y="635" type="qcurve" smooth="yes"/>
      <point x="775" y="635" type="line"/>
      <point x="775" y="720" type="line" smooth="yes"/>
      <point x="775" y="826"/>
      <point x="672" y="947"/>
      <point x="574" y="947" type="qcurve" smooth="yes"/>
      <point x="471" y="947"/>
      <point x="349" y="837"/>
      <point x="349" y="759" type="qcurve"/>
      <point x="161" y="777" type="line"/>
      <point x="159" y="783" type="line"/>
      <point x="154" y="921"/>
      <point x="384" y="1102"/>
      <point x="574" y="1102" type="qcurve" smooth="yes"/>
      <point x="689" y="1102"/>
      <point x="863" y="1021"/>
      <point x="913" y="944" type="qcurve"/>
      <point x="977" y="1019"/>
      <point x="1152" y="1102"/>
      <point x="1254" y="1102" type="qcurve" smooth="yes"/>
      <point x="1468" y="1102"/>
      <point x="1699" y="842"/>
      <point x="1699" y="614" type="qcurve" smooth="yes"/>
      <point x="1699" y="495" type="line"/>
      <point x="989" y="495" type="line"/>
      <point x="987" y="490" type="line"/>
      <point x="988" y="331"/>
      <point x="1145" y="133"/>
      <point x="1300" y="133" type="qcurve" smooth="yes"/>
      <point x="1404" y="133"/>
      <point x="1536" y="188"/>
      <point x="1614" y="239" type="qcurve"/>
      <point x="1682" y="101" type="line"/>
      <point x="1627" y="56"/>
      <point x="1439" y="-21"/>
    </contour>
    <contour>
      <point x="491" y="133" type="qcurve" smooth="yes"/>
      <point x="567" y="133"/>
      <point x="732" y="219"/>
      <point x="775" y="276" type="qcurve"/>
      <point x="775" y="493" type="line"/>
      <point x="548" y="493" type="line" smooth="yes"/>
      <point x="428" y="493"/>
      <point x="294" y="381"/>
      <point x="294" y="300" type="qcurve" smooth="yes"/>
      <point x="294" y="226"/>
      <point x="394" y="133"/>
    </contour>
    <contour>
      <point x="1254" y="947" type="qcurve" smooth="yes"/>
      <point x="1140" y="947"/>
      <point x="1002" y="778"/>
      <point x="991" y="645" type="qcurve"/>
      <point x="993" y="640" type="line"/>
      <point x="1502" y="640" type="line"/>
      <point x="1502" y="671" type="line" smooth="yes"/>
      <point x="1502" y="793"/>
      <point x="1382" y="947"/>
    </contour>
  </outline>
</glyph>
<glyph name="eth" format="1">
  <advance width="1191"/>
  <unicode hex="00F0"/>
  <outline>
    <contour>
      <point x="859" y="1286" type="line"/>
      <point x="997.6666666666666" y="1124.6666666666665"/>
      <point x="1078.0" y="899.6666666666667"/>
      <point x="1078" y="633" type="curve" smooth="yes"/>
      <point x="1078" y="535" type="line" smooth="yes"/>
      <point x="1078.0" y="208.33333333333337"/>
      <point x="861.6666666666665" y="-21.0"/>
      <point x="575" y="-21" type="curve" smooth="yes"/>
      <point x="284.33333333333337" y="-21.0"/>
      <point x="78.0" y="190.0"/>
      <point x="78" y="466" type="curve" smooth="yes"/>
      <point x="78.0" y="770.0"/>
      <point x="283.0" y="978.0"/>
      <point x="567" y="978" type="curve" smooth="yes"/>
      <point x="677.6666666666667" y="978.0"/>
      <point x="781.6666666666667" y="931.3333333333333"/>
      <point x="851" y="862" type="curve"/>
      <point x="855" y="867" type="line"/>
      <point x="828.3333333333333" y="997.6666666666666"/>
      <point x="770.6666666666669" y="1107.3333333333335"/>
      <point x="692" y="1190" type="curve"/>
      <point x="420" y="1035" type="line"/>
      <point x="343" y="1137" type="line"/>
      <point x="588" y="1277" type="line"/>
      <point x="540.0" y="1307.6666666666665"/>
      <point x="488.99999999999994" y="1331.6666666666665"/>
      <point x="433" y="1353" type="curve"/>
      <point x="493" y="1517" type="line"/>
      <point x="593.0" y="1487.6666666666665"/>
      <point x="684.0" y="1440.6666666666665"/>
      <point x="764" y="1378" type="curve"/>
      <point x="997" y="1511" type="line"/>
      <point x="1074" y="1409" type="line"/>
    </contour>
    <contour>
      <point x="881" y="635" type="line" smooth="yes"/>
      <point x="881.0" y="645.6666666666667"/>
      <point x="880.0" y="674.3333333333333"/>
      <point x="880" y="685" type="curve"/>
      <point x="833.3333333333333" y="762.3333333333333"/>
      <point x="723.0" y="823.0"/>
      <point x="567" y="823" type="curve" smooth="yes"/>
      <point x="392.33333333333337" y="823.0"/>
      <point x="275.0" y="664.6666666666667"/>
      <point x="275" y="466" type="curve" smooth="yes"/>
      <point x="275.0" y="290.0"/>
      <point x="392.33333333333337" y="133.0"/>
      <point x="579" y="133" type="curve" smooth="yes"/>
      <point x="756.3333333333333" y="133.0"/>
      <point x="881.0" y="303.0"/>
      <point x="881" y="535" type="curve" smooth="yes"/>
    </contour>
  </outline>
</glyph>
<glyph name="oslash" format="2">
  <advance width="1149"/>
  <unicode hex="00F8"/>
  <outline>
    <contour>
      <point x="90" y="551" type="line" smooth="yes"/>
      <point x="90" y="791"/>
      <point x="350" y="1102"/>
      <point x="573" y="1102" type="qcurve" smooth="yes"/>
      <point x="628" y="1102"/>
      <point x="729" y="1080"/>
      <point x="776" y="1061" type="qcurve"/>
      <point x="849" y="1209" type="line"/>
      <point x="978" y="1209" type="line"/>
      <point x="874" y="999" type="line"/>
      <point x="962" y="925"/>
      <point x="1058" y="693"/>
      <point x="1058" y="551" type="qcurve" smooth="yes"/>
      <point x="1058" y="529" type="line" smooth="yes"/>
      <point x="1058" y="287"/>
      <point x="798" y="-21"/>
      <point x="575" y="-21" type="qcurve" smooth="yes"/>
      <point x="523" y="-21"/>
      <point x="429" y="-3"/>
      <point x="387" y="13" type="qcurve"/>
      <point x="314" y="-135" type="line"/>
      <point x="185" y="-135" type="line"/>
      <point x="286" y="71" type="line"/>
      <point x="191" y="143"/>
      <point x="90" y="381"/>
      <point x="90" y="529" type="qcurve" smooth="yes"/>
    </contour>
    <contour>
      <point x="287" y="529" type="line" smooth="yes"/>
      <point x="287" y="440"/>
      <point x="326" y="290"/>
      <point x="365" y="242" type="qcurve"/>
      <point x="371" y="242" type="line"/>
      <point x="703" y="914" type="line"/>
      <point x="675" y="930"/>
      <point x="609" y="947"/>
      <point x="573" y="947" type="qcurve" smooth="yes"/>
      <point x="431" y="947"/>
      <point x="287" y="721"/>
      <point x="287" y="551" type="qcurve" smooth="yes"/>
    </contour>
    <contour>
      <point x="861" y="551" type="line" smooth="yes"/>
      <point x="861" y="632"/>
      <point x="826" y="774"/>
      <point x="793" y="822" type="qcurve"/>
      <point x="787" y="822" type="line"/>
      <point x="459" y="158" type="line"/>
      <point x="484" y="145"/>
      <point x="542" y="133"/>
      <point x="575" y="133" type="qcurve" smooth="yes"/>
      <point x="715" y="133"/>
      <point x="861" y="357"/>
      <point x="861" y="529" type="qcurve" smooth="yes"/>
    </contour>
  </outline>
</glyph>
<glyph name="thorn" format="2">
  <advance width="1273"/>
  <unicode hex="00FE"/>
  <outline>
    <contour>
      <point x="25" y="1433" type="line"/>
      <point x="25" y="1560" type="line"/>
      <point x="385" y="1560" type="line"/>
      <point x="385" y="962" type="line"/>
      <point x="438" y="1030"/>
      <point x="589" y="1102"/>
      <point x="687" y="1102" type="qcurve" smooth="yes"/>
      <point x="887" y="1102"/>
      <point x="1110" y="783"/>
      <point x="1110" y="521" type="qcurve" smooth="yes"/>
      <point x="1110" y="500" type="line" smooth="yes"/>
      <point x="1110" y="266"/>
      <point x="887" y="-21"/>
      <point x="690" y="-21" type="qcurve" smooth="yes"/>
      <point x="590" y="-21"/>
      <point x="438" y="46"/>
      <point x="385" y="113" type="qcurve"/>
      <point x="385" y="-261" type="line"/>
      <point x="548" y="-289" type="line"/>
      <point x="548" y="-416" type="line"/>
      <point x="25" y="-416" type="line"/>
      <point x="25" y="-289" type="line"/>
      <point x="188" y="-261" type="line"/>
      <point x="188" y="1405" type="line"/>
    </contour>
    <contour>
      <point x="913" y="521" type="line" smooth="yes"/>
      <point x="913" y="706"/>
      <point x="769" y="942"/>
      <point x="627" y="942" type="qcurve" smooth="yes"/>
      <point x="542" y="942"/>
      <point x="422" y="865"/>
      <point x="385" y="798" type="qcurve"/>
      <point x="385" y="275" type="line"/>
      <point x="422" y="208"/>
      <point x="542" y="133"/>
      <point x="629" y="133" type="qcurve" smooth="yes"/>
      <point x="769" y="133"/>
      <point x="913" y="337"/>
      <point x="913" y="500" type="qcurve" smooth="yes"/>
    </contour>
  </outline>
</glyph>
<glyph name="dcroat" format="2">
  <advance width="1259"/>
  <unicode hex="0111"/>
  <outline>
    <contour>
      <point x="818" y="129" type="line"/>
      <point x="765" y="55"/>
      <point x="612" y="-21"/>
      <point x="511" y="-21" type="qcurve" smooth="yes"/>
      <point x="313" y="-21"/>
      <point x="90" y="266"/>
      <point x="90" y="500" type="qcurve" smooth="yes"/>
      <point x="90" y="521" type="line" smooth="yes"/>
      <point x="90" y="782"/>
      <point x="313" y="1102"/>
      <point x="513" y="1102" type="qcurve" smooth="yes"/>
      <point x="609" y="1102"/>
      <point x="756" y="1031"/>
      <point x="808" y="964" type="qcurve"/>
      <point x="808" y="1163" type="line"/>
      <point x="557" y="1163" type="line"/>
      <point x="557" y="1318" type="line"/>
      <point x="808" y="1318" type="line"/>
      <point x="808" y="1405" type="line"/>
      <point x="645" y="1433" type="line"/>
      <point x="645" y="1560" type="line"/>
      <point x="1005" y="1560" type="line"/>
      <point x="1005" y="1318" type="line"/>
      <point x="1198" y="1318" type="line"/>
      <point x="1198" y="1163" type="line"/>
      <point x="1005" y="1163" type="line"/>
      <point x="1005" y="154" type="line"/>
      <point x="1168" y="126" type="line"/>
      <point x="1168" y="0" type="line"/>
      <point x="834" y="0" type="line"/>
    </contour>
    <contour>
      <point x="287" y="500" type="line" smooth="yes"/>
      <point x="287" y="337"/>
      <point x="421" y="139"/>
      <point x="561" y="139" type="qcurve" smooth="yes"/>
      <point x="649" y="139"/>
      <point x="769" y="219"/>
      <point x="808" y="292" type="qcurve"/>
      <point x="808" y="794" type="line"/>
      <point x="770" y="862"/>
      <point x="648" y="942"/>
      <point x="563" y="942" type="qcurve" smooth="yes"/>
      <point x="422" y="942"/>
      <point x="287" y="708"/>
      <point x="287" y="521" type="qcurve" smooth="yes"/>
    </contour>
  </outline>
</glyph>
<glyph name="hbar" format="2">
  <advance width="1352"/>
  <unicode hex="0127"/>
  <outline>
    <contour>
      <point x="92" y="126" type="line"/>
      <point x="255" y="154" type="line"/>
      <point x="255" y="1154" type="line"/>
      <point x="51" y="1154" type="line"/>
      <point x="51" y="1309" type="line"/>
      <point x="255" y="1309" type="line"/>
      <point x="255" y="1405" type="line"/>
      <point x="92" y="1433" type="line"/>
      <point x="92" y="1560" type="line"/>
      <point x="452" y="1560" type="line"/>
      <point x="452" y="1309" type="line"/>
      <point x="692" y="1309" type="line"/>
      <point x="692" y="1154" type="line"/>
      <point x="452" y="1154" type="line"/>
      <point x="452" y="938" type="line"/>
      <point x="508" y="1016"/>
      <point x="670" y="1102"/>
      <point x="769" y="1102" type="qcurve" smooth="yes"/>
      <point x="943" y="1102"/>
      <point x="1135" y="894"/>
      <point x="1135" y="678" type="qcurve" smooth="yes"/>
      <point x="1135" y="154" type="line"/>
      <point x="1298" y="126" type="line"/>
      <point x="1298" y="0" type="line"/>
      <point x="775" y="0" type="line"/>
      <point x="775" y="126" type="line"/>
      <point x="938" y="154" type="line"/>
      <point x="938" y="680" type="line" smooth="yes"/>
      <point x="938" y="814"/>
      <point x="823" y="942"/>
      <point x="709" y="942" type="qcurve" smooth="yes"/>
      <point x="628" y="942"/>
      <point x="495" y="865"/>
      <point x="452" y="799" type="qcurve"/>
      <point x="452" y="154" type="line"/>
      <point x="615" y="126" type="line"/>
      <point x="615" y="0" type="line"/>
      <point x="92" y="0" type="line"/>
    </contour>
  </outline>
</glyph>
<glyph name="kgreenlandic" format="2">
  <advance width="1257"/>
  <unicode hex="0138"/>
  <outline>
    <contour>
      <point x="62" y="126" type="line"/>
      <point x="225" y="154" type="line"/>
      <point x="225" y="927" type="line"/>
      <point x="71" y="955" type="line"/>
      <point x="71" y="1081" type="line"/>
      <point x="422" y="1081" type="line"/>
      <point x="422" y="656" type="line"/>
      <point x="548" y="656" type="line"/>
      <point x="800" y="943" type="line"/>
      <point x="710" y="955" type="line"/>
      <point x="710" y="1082" type="line"/>
      <point x="1162" y="1082" type="line"/>
      <point x="1162" y="955" type="line"/>
      <point x="1030" y="929" type="line"/>
      <point x="719" y="586" type="line"/>
      <point x="1063" y="150" type="line"/>
      <point x="1186" y="126" type="line"/>
      <point x="1186" y="0" type="line"/>
      <point x="949" y="0" type="line"/>
      <point x="551" y="499" type="line"/>
      <point x="422" y="499" type="line"/>
      <point x="422" y="154" type="line"/>
      <point x="585" y="126" type="line"/>
      <point x="585" y="0" type="line"/>
      <point x="62" y="0" type="line"/>
    </contour>
  </outline>
</glyph>
<glyph name="lslash" format="1">
  <advance width="645"/>
  <unicode hex="0142"/>
  <outline>
    <contour>
      <point x="422" y="873" type="line"/>
      <point x="571" y="930" type="line"/>
      <point x="571" y="765" type="line"/>
      <point x="422" y="708" type="line"/>
      <point x="422" y="154" type="line"/>
      <point x="585" y="126" type="line"/>
      <point x="585" y="0" type="line"/>
      <point x="62" y="0" type="line"/>
      <point x="62" y="126" type="line"/>
      <point x="225" y="154" type="line"/>
      <point x="225" y="633" type="line"/>
      <point x="81" y="578" type="line"/>
      <point x="81" y="743" type="line"/>
      <point x="225" y="798" type="line"/>
      <point x="225" y="1405" type="line"/>
      <point x="62" y="1433" type="line"/>
      <point x="62" y="1560" type="line"/>
      <point x="422" y="1560" type="line"/>
    </contour>
  </outline>
</glyph>
<glyph name="Eng" format="2">
  <advance width="1559"/>
  <unicode hex="014A"/>
  <outline>
    <contour>
      <point x="70" y="126" type="line"/>
      <point x="233" y="154" type="line"/>
      <point x="233" y="1301" type="line"/>
      <point x="70" y="1329" type="line"/>
      <point x="70" y="1456" type="line"/>
      <point x="430" y="1456" type="line"/>
      <point x="1130" y="344" type="line"/>
      <point x="1136" y="346" type="line"/>
      <point x="1136" y="1301" type="line"/>
      <point x="973" y="1329" type="line"/>
      <point x="973" y="1456" type="line"/>
      <point x="1136" y="1456" type="line"/>
      <point x="1333" y="1456" type="line"/>
      <point x="1496" y="1456" type="line"/>
      <point x="1496" y="1329" type="line"/>
      <point x="1333" y="1301" type="line"/>
      <point x="1333" y="-89" type="line" smooth="yes"/>
      <point x="1333" y="-256"/>
      <point x="1161" y="-437"/>
      <point x="1007" y="-437" type="qcurve" smooth="yes"/>
      <point x="976" y="-437"/>
      <point x="924" y="-428"/>
      <point x="895" y="-419" type="qcurve"/>
      <point x="909" y="-269" type="line"/>
      <point x="922" y="-274"/>
      <point x="990" y="-282"/>
      <point x="1007" y="-282" type="qcurve" smooth="yes"/>
      <point x="1068" y="-282"/>
      <point x="1136" y="-179"/>
      <point x="1136" y="-89" type="qcurve" smooth="yes"/>
      <point x="1136" y="0" type="line"/>
      <point x="436" y="1112" type="line"/>
      <point x="430" y="1110" type="line"/>
      <point x="430" y="154" type="line"/>
      <point x="593" y="126" type="line"/>
      <point x="593" y="0" type="line"/>
      <point x="70" y="0" type="line"/>
    </contour>
  </outline>
</glyph>
<glyph name="eng" format="2">
  <advance width="1263"/>
  <unicode hex="014B"/>
  <outline>
    <contour>
      <point x="90" y="955" type="line"/>
      <point x="90" y="1082" type="line"/>
      <point x="429" y="1082" type="line"/>
      <point x="442" y="933" type="line"/>
      <point x="496" y="1013"/>
      <point x="656" y="1102"/>
      <point x="756" y="1102" type="qcurve" smooth="yes"/>
      <point x="930" y="1102"/>
      <point x="1123" y="897"/>
      <point x="1123" y="683" type="qcurve" smooth="yes"/>
      <point x="1123" y="-89" type="line" smooth="yes"/>
      <point x="1123" y="-256"/>
      <point x="950" y="-437"/>
      <point x="797" y="-437" type="qcurve" smooth="yes"/>
      <point x="765" y="-437"/>
      <point x="712" y="-428"/>
      <point x="684" y="-419" type="qcurve"/>
      <point x="698" y="-259" type="line"/>
      <point x="711" y="-264"/>
      <point x="779" y="-271"/>
      <point x="797" y="-271" type="qcurve" smooth="yes"/>
      <point x="858" y="-271"/>
      <point x="926" y="-177"/>
      <point x="926" y="-89" type="qcurve" smooth="yes"/>
      <point x="926" y="679" type="line" smooth="yes"/>
      <point x="926" y="822"/>
      <point x="812" y="942"/>
      <point x="695" y="942" type="qcurve" smooth="yes"/>
      <point x="610" y="942"/>
      <point x="488" y="877"/>
      <point x="450" y="818" type="qcurve"/>
      <point x="450" y="154" type="line"/>
      <point x="613" y="126" type="line"/>
      <point x="613" y="0" type="line"/>
      <point x="90" y="0" type="line"/>
      <point x="90" y="126" type="line"/>
      <point x="253" y="154" type="line"/>
      <point x="253" y="927" type="line"/>
    </contour>
  </outline>
</glyph>
<glyph name="OE" format="1">
  <advance width="1969"/>
  <unicode hex="0152"/>
  <outline>
    <contour>
      <point x="963" y="0" type="line"/>
      <point x="841.6666666666667" y="-13.333333333333332"/>
      <point x="763.3333333333333" y="-21.0"/>
      <point x="674" y="-21" type="curve" smooth="yes"/>
      <point x="342.0" y="-21.0"/>
      <point x="114.0" y="222.66666666666674"/>
      <point x="114" y="576" type="curve" smooth="yes"/>
      <point x="114" y="880" type="line" smooth="yes"/>
      <point x="114.0" y="1233.3333333333335"/>
      <point x="340.0" y="1477.0"/>
      <point x="672" y="1477" type="curve" smooth="yes"/>
      <point x="764.0" y="1477.0"/>
      <point x="857.6666666666667" y="1468.0"/>
      <point x="963" y="1456" type="curve"/>
      <point x="1873" y="1456" type="line"/>
      <point x="1873" y="1106" type="line"/>
      <point x="1704" y="1106" type="line"/>
      <point x="1688" y="1301" type="line"/>
      <point x="1115" y="1301" type="line"/>
      <point x="1115" y="830" type="line"/>
      <point x="1672" y="830" type="line"/>
      <point x="1672" y="675" type="line"/>
      <point x="1115" y="675" type="line"/>
      <point x="1115" y="154" type="line"/>
      <point x="1700" y="154" type="line"/>
      <point x="1716" y="349" type="line"/>
      <point x="1884" y="349" type="line"/>
      <point x="1884" y="0" type="line"/>
    </contour>
    <contour>
      <point x="674" y="134" type="curve" smooth="yes"/>
      <point x="744.6666666666667" y="134.0"/>
      <point x="817.3333333333333" y="138.33333333333331"/>
      <point x="888" y="149" type="curve" smooth="yes"/>
      <point x="918" y="154" type="line"/>
      <point x="918" y="1301" type="line"/>
      <point x="865" y="1310" type="line"/>
      <point x="798.3333333333333" y="1316.6666666666665"/>
      <point x="734.6666666666667" y="1322.0"/>
      <point x="672" y="1322" type="curve" smooth="yes"/>
      <point x="446.66666666666674" y="1322.0"/>
      <point x="311.0" y="1166.0"/>
      <point x="311" y="882" type="curve" smooth="yes"/>
      <point x="311" y="576" type="line" smooth="yes"/>
      <point x="311.0" y="290.66666666666674"/>
      <point x="448.66666666666674" y="134.0"/>
    </contour>
  </outline>
</glyph>
<glyph name="oe" format="2">
  <advance width="1898"/>
  <unicode hex="0153"/>
  <outline>
    <contour>
      <point x="104" y="551" type="line" smooth="yes"/>
      <point x="104" y="791"/>
      <point x="363" y="1102"/>
      <point x="586" y="1102" type="qcurve" smooth="yes"/>
      <point x="716" y="1102"/>
      <point x="917" y="992"/>
      <point x="981" y="893" type="qcurve"/>
      <point x="1045" y="991"/>
      <point x="1240" y="1102"/>
      <point x="1349" y="1102" type="qcurve" smooth="yes"/>
      <point x="1567" y="1102"/>
      <point x="1792" y="838"/>
      <point x="1792" y="618" type="qcurve" smooth="yes"/>
      <point x="1792" y="495" type="line"/>
      <point x="1090" y="495" type="line"/>
      <point x="1087" y="490" type="line"/>
      <point x="1090" y="334"/>
      <point x="1241" y="133"/>
      <point x="1379" y="133" type="qcurve" smooth="yes"/>
      <point x="1479" y="133"/>
      <point x="1630" y="190"/>
      <point x="1685" y="240" type="qcurve"/>
      <point x="1762" y="112" type="line"/>
      <point x="1703" y="55"/>
      <point x="1514" y="-21"/>
      <point x="1379" y="-21" type="qcurve" smooth="yes"/>
      <point x="1247" y="-21"/>
      <point x="1043" y="85"/>
      <point x="979" y="182" type="qcurve"/>
      <point x="915" y="85"/>
      <point x="716" y="-21"/>
      <point x="588" y="-21" type="qcurve" smooth="yes"/>
      <point x="364" y="-21"/>
      <point x="104" y="288"/>
      <point x="104" y="529" type="qcurve" smooth="yes"/>
    </contour>
    <contour>
      <point x="301" y="529" type="line" smooth="yes"/>
      <point x="301" y="357"/>
      <point x="445" y="133"/>
      <point x="588" y="133" type="qcurve" smooth="yes"/>
      <point x="729" y="133"/>
      <point x="875" y="357"/>
      <point x="875" y="529" type="qcurve" smooth="yes"/>
      <point x="875" y="551" type="line" smooth="yes"/>
      <point x="875" y="721"/>
      <point x="728" y="947"/>
      <point x="586" y="947" type="qcurve" smooth="yes"/>
      <point x="445" y="947"/>
      <point x="301" y="721"/>
      <point x="301" y="551" type="qcurve" smooth="yes"/>
    </contour>
    <contour>
      <point x="1349" y="947" type="qcurve" smooth="yes"/>
      <point x="1250" y="947"/>
      <point x="1110" y="780"/>
      <point x="1094" y="654" type="qcurve"/>
      <point x="1096" y="649" type="line"/>
      <point x="1595" y="649" type="line"/>
      <point x="1595" y="675" type="line" smooth="yes"/>
      <point x="1595" y="791"/>
      <point x="1471" y="947"/>
    </contour>
  </outline>
</glyph>
<glyph name="longs" format="2">
  <advance width="734"/>
  <unicode hex="017F"/>
  <outline>
    <contour>
      <point x="57" y="126" type="line"/>
      <point x="220" y="154" type="line"/>
      <point x="220" y="1219" type="line" smooth="yes"/>
      <point x="220" y="1392"/>
      <point x="401" y="1581"/>
      <point x="563" y="1581" type="qcurve" smooth="yes"/>
      <point x="597" y="1581"/>
      <point x="666" y="1570"/>
      <point x="708" y="1560" type="qcurve"/>
      <point x="683" y="1415" type="line"/>
      <point x="664" y="1420"/>
      <point x="620" y="1426"/>
      <point x="595" y="1426" type="qcurve" smooth="yes"/>
      <point x="508" y="1426"/>
      <point x="417" y="1317"/>
      <point x="417" y="1219" type="qcurve" smooth="yes"/>
      <point x="417" y="154" type="line"/>
      <point x="580" y="126" type="line"/>
      <point x="580" y="0" type="line"/>
      <point x="57" y="0" type="line"/>
    </contour>
  </outline>
</glyph>
<glyph name="florin" format="2">
  <advance width="767"/>
  <unicode hex="0192"/>
  <outline>
    <contour>
      <point x="630" y="936" type="line"/>
      <point x="434" y="936" type="line"/>
      <point x="434" y="-89" type="line" smooth="yes"/>
      <point x="434" y="-256"/>
      <point x="262" y="-437"/>
      <point x="109" y="-437" type="qcurve" smooth="yes"/>
      <point x="77" y="-437"/>
      <point x="25" y="-428"/>
      <point x="-3" y="-419" type="qcurve"/>
      <point x="10" y="-269" type="line"/>
      <point x="24" y="-274"/>
      <point x="91" y="-282"/>
      <point x="109" y="-282" type="qcurve" smooth="yes"/>
      <point x="168" y="-282"/>
      <point x="237" y="-179"/>
      <point x="237" y="-89" type="qcurve" smooth="yes"/>
      <point x="237" y="936" type="line"/>
      <point x="67" y="936" type="line"/>
      <point x="67" y="1082" type="line"/>
      <point x="237" y="1082" type="line"/>
      <point x="237" y="1219" type="line" smooth="yes"/>
      <point x="237" y="1392"/>
      <point x="417" y="1581"/>
      <point x="579" y="1581" type="qcurve" smooth="yes"/>
      <point x="613" y="1581"/>
      <point x="682" y="1570"/>
      <point x="724" y="1560" type="qcurve"/>
      <point x="700" y="1410" type="line"/>
      <point x="682" y="1414"/>
      <point x="631" y="1420"/>
      <point x="604" y="1420" type="qcurve" smooth="yes"/>
      <point x="517" y="1420"/>
      <point x="434" y="1317"/>
      <point x="434" y="1219" type="qcurve" smooth="yes"/>
      <point x="434" y="1082" type="line"/>
      <point x="630" y="1082" type="line"/>
    </contour>
  </outline>
</glyph>
<glyph name="Ohorn" format="2">
  <advance width="1486"/>
  <unicode hex="01A0"/>
  <outline>
    <contour>
      <point x="1363" y="717" type="line" smooth="yes"/>
      <point x="1363" y="399"/>
      <point x="998" y="-21"/>
      <point x="708" y="-21" type="qcurve" smooth="yes"/>
      <point x="426" y="-21"/>
      <point x="74" y="399"/>
      <point x="74" y="717" type="qcurve" smooth="yes"/>
      <point x="74" y="738" type="line" smooth="yes"/>
      <point x="74" y="1055"/>
      <point x="426" y="1477"/>
      <point x="708" y="1477" type="qcurve" smooth="yes"/>
      <point x="827" y="1477"/>
      <point x="1035" y="1399"/>
      <point x="1118" y="1328" type="qcurve"/>
      <point x="1199" y="1343"/>
      <point x="1273" y="1478"/>
      <point x="1273" y="1593" type="qcurve"/>
      <point x="1451" y="1593" type="line"/>
      <point x="1451" y="1443"/>
      <point x="1336" y="1248"/>
      <point x="1224" y="1210" type="qcurve"/>
      <point x="1291" y="1113"/>
      <point x="1363" y="872"/>
      <point x="1363" y="738" type="qcurve" smooth="yes"/>
    </contour>
    <contour>
      <point x="1166" y="740" type="line" smooth="yes"/>
      <point x="1166" y="994"/>
      <point x="923" y="1315"/>
      <point x="708" y="1315" type="qcurve" smooth="yes"/>
      <point x="502" y="1315"/>
      <point x="271" y="993"/>
      <point x="271" y="740" type="qcurve" smooth="yes"/>
      <point x="271" y="717" type="line" smooth="yes"/>
      <point x="271" y="461"/>
      <point x="502" y="140"/>
      <point x="708" y="140" type="qcurve" smooth="yes"/>
      <point x="926" y="140"/>
      <point x="1166" y="460"/>
      <point x="1166" y="717" type="qcurve" smooth="yes"/>
    </contour>
  </outline>
</glyph>
<glyph name="ohorn" format="2">
  <advance width="1288"/>
  <unicode hex="01A1"/>
  <outline>
    <contour>
      <point x="104" y="551" type="line" smooth="yes"/>
      <point x="104" y="791"/>
      <point x="364" y="1102"/>
      <point x="587" y="1102" type="qcurve" smooth="yes"/>
      <point x="689" y="1102"/>
      <point x="859" y="1032"/>
      <point x="922" y="968" type="qcurve"/>
      <point x="987" y="984"/>
      <point x="1031" y="1097"/>
      <point x="1031" y="1201" type="qcurve"/>
      <point x="1189" y="1201" type="line"/>
      <point x="1189" y="1065"/>
      <point x="1099" y="894"/>
      <point x="999" y="862" type="qcurve"/>
      <point x="1034" y="796"/>
      <point x="1072" y="638"/>
      <point x="1072" y="551" type="qcurve" smooth="yes"/>
      <point x="1072" y="529" type="line" smooth="yes"/>
      <point x="1072" y="287"/>
      <point x="812" y="-21"/>
      <point x="589" y="-21" type="qcurve" smooth="yes"/>
      <point x="364" y="-21"/>
      <point x="104" y="288"/>
      <point x="104" y="529" type="qcurve" smooth="yes"/>
    </contour>
    <contour>
      <point x="301" y="529" type="line" smooth="yes"/>
      <point x="301" y="357"/>
      <point x="446" y="133"/>
      <point x="589" y="133" type="qcurve" smooth="yes"/>
      <point x="729" y="133"/>
      <point x="875" y="357"/>
      <point x="875" y="529" type="qcurve" smooth="yes"/>
      <point x="875" y="551" type="line" smooth="yes"/>
      <point x="875" y="721"/>
      <point x="729" y="947"/>
      <point x="587" y="947" type="qcurve" smooth="yes"/>
      <point x="445" y="947"/>
      <point x="301" y="721"/>
      <point x="301" y="551" type="qcurve" smooth="yes"/>
    </contour>
  </outline>
</glyph>
<glyph name="Uhorn" format="2">
  <advance width="1715"/>
  <unicode hex="01AF"/>
  <outline>
    <contour>
      <point x="1274" y="1251" type="line"/>
      <point x="1280" y="1250" type="line"/>
      <point x="1404" y="1251"/>
      <point x="1504" y="1401"/>
      <point x="1504" y="1549" type="qcurve"/>
      <point x="1675" y="1549" type="line"/>
      <point x="1677" y="1544" type="line"/>
      <point x="1680" y="1335"/>
      <point x="1485" y="1110"/>
      <point x="1274" y="1103" type="qcurve"/>
      <point x="1274" y="469" type="line" smooth="yes"/>
      <point x="1274" y="232"/>
      <point x="965" y="-21"/>
      <point x="717" y="-21" type="qcurve" smooth="yes"/>
      <point x="476" y="-21"/>
      <point x="177" y="232"/>
      <point x="177" y="469" type="qcurve" smooth="yes"/>
      <point x="177" y="1301" type="line"/>
      <point x="14" y="1329" type="line"/>
      <point x="14" y="1456" type="line"/>
      <point x="177" y="1456" type="line"/>
      <point x="538" y="1456" type="line"/>
      <point x="538" y="1329" type="line"/>
      <point x="375" y="1301" type="line"/>
      <point x="375" y="469" type="line" smooth="yes"/>
      <point x="375" y="304"/>
      <point x="563" y="133"/>
      <point x="717" y="133" type="qcurve" smooth="yes"/>
      <point x="879" y="133"/>
      <point x="1077" y="304"/>
      <point x="1077" y="469" type="qcurve" smooth="yes"/>
      <point x="1077" y="1301" type="line"/>
      <point x="914" y="1329" type="line"/>
      <point x="914" y="1456" type="line"/>
      <point x="1274" y="1456" type="line"/>
    </contour>
  </outline>
</glyph>
<glyph name="uhorn" format="1">
  <advance width="1439"/>
  <unicode hex="01B0"/>
  <outline>
    <contour>
      <point x="1068" y="952" type="line"/>
      <point x="1074" y="950" type="line"/>
      <point x="1211.3333333333333" y="948.6666666666667"/>
      <point x="1234.0" y="1005.3333333333333"/>
      <point x="1234" y="1168" type="curve"/>
      <point x="1368" y="1168" type="line"/>
      <point x="1370" y="1163" type="line"/>
      <point x="1374.0" y="944.3333333333335"/>
      <point x="1297.3333333333335" y="841.6666666666667"/>
      <point x="1068" y="835" type="curve"/>
      <point x="1068" y="154" type="line"/>
      <point x="1192" y="126" type="line"/>
      <point x="1192" y="0" type="line"/>
      <point x="891" y="0" type="line"/>
      <point x="878" y="160" type="line"/>
      <point x="810.0" y="44.0"/>
      <point x="701.0" y="-21.0"/>
      <point x="561" y="-21" type="curve" smooth="yes"/>
      <point x="326.33333333333337" y="-21.0"/>
      <point x="187.0" y="125.33333333333337"/>
      <point x="187" y="444" type="curve" smooth="yes"/>
      <point x="187" y="927" type="line"/>
      <point x="63" y="955" type="line"/>
      <point x="63" y="1082" type="line"/>
      <point x="187" y="1082" type="line"/>
      <point x="384" y="1082" type="line"/>
      <point x="384" y="442" type="line" smooth="yes"/>
      <point x="384.0" y="211.33333333333337"/>
      <point x="450.0" y="139.0"/>
      <point x="594" y="139" type="curve" smooth="yes"/>
      <point x="734.0" y="139.0"/>
      <point x="824.3333333333333" y="198.0"/>
      <point x="871" y="302" type="curve"/>
      <point x="871" y="927" type="line"/>
      <point x="726" y="955" type="line"/>
      <point x="726" y="1082" type="line"/>
      <point x="1068" y="1082" type="line"/>
    </contour>
  </outline>
</glyph>
<glyph name="jdotless" format="1">
  <advance width="579"/>
  <unicode hex="0237"/>
  <outline>
    <contour>
      <point x="433" y="-89" type="line" smooth="yes"/>
      <point x="433.0" y="-311.66666666666663"/>
      <point x="312.0" y="-437.0"/>
      <point x="108" y="-437" type="curve" smooth="yes"/>
      <point x="65.33333333333334" y="-437.0"/>
      <point x="33.33333333333333" y="-431.0"/>
      <point x="-4" y="-419" type="curve"/>
      <point x="9" y="-269" type="line"/>
      <point x="27.666666666666664" y="-275.66666666666663"/>
      <point x="84.0" y="-282.0"/>
      <point x="108" y="-282" type="curve" smooth="yes"/>
      <point x="186.66666666666663" y="-282.0"/>
      <point x="236.0" y="-209.0"/>
      <point x="236" y="-89" type="curve" smooth="yes"/>
      <point x="236" y="927" type="line"/>
      <point x="73" y="955" type="line"/>
      <point x="73" y="1082" type="line"/>
      <point x="433" y="1082" type="line"/>
    </contour>
  </outline>
</glyph>
<glyph name="uni0237" format="2">
  <advance width="579"/>
  <unicode hex="0237"/>
  <outline>
    <contour>
      <point x="433" y="-89" type="line" smooth="yes"/>
      <point x="433" y="-256"/>
      <point x="261" y="-437"/>
      <point x="108" y="-437" type="qcurve" smooth="yes"/>
      <point x="76" y="-437"/>
      <point x="24" y="-428"/>
      <point x="-4" y="-419" type="qcurve"/>
      <point x="9" y="-269" type="line"/>
      <point x="23" y="-274"/>
      <point x="90" y="-282"/>
      <point x="108" y="-282" type="qcurve" smooth="yes"/>
      <point x="167" y="-282"/>
      <point x="236" y="-179"/>
      <point x="236" y="-89" type="qcurve" smooth="yes"/>
      <point x="236" y="927" type="line"/>
      <point x="73" y="955" type="line"/>
      <point x="73" y="1082" type="line"/>
      <point x="433" y="1082" type="line"/>
    </contour>
  </outline>
</glyph>
<glyph name="schwa" format="2">
  <advance width="1115"/>
  <unicode hex="0259"/>
  <outline>
    <contour>
      <point x="516" y="1103" type="qcurve" smooth="yes"/>
      <point x="741" y="1103"/>
      <point x="1009" y="801"/>
      <point x="1009" y="562" type="qcurve" smooth="yes"/>
      <point x="1009" y="518" type="line" smooth="yes"/>
      <point x="1009" y="286"/>
      <point x="734" y="-20"/>
      <point x="547" y="-19" type="qcurve" smooth="yes"/>
      <point x="327" y="-19"/>
      <point x="103" y="243"/>
      <point x="103" y="464" type="qcurve" smooth="yes"/>
      <point x="103" y="587" type="line"/>
      <point x="804" y="587" type="line"/>
      <point x="807" y="592" type="line"/>
      <point x="804" y="747"/>
      <point x="653" y="949"/>
      <point x="516" y="949" type="qcurve" smooth="yes"/>
      <point x="415" y="949"/>
      <point x="265" y="890"/>
      <point x="210" y="841" type="qcurve"/>
      <point x="133" y="970" type="line"/>
      <point x="191" y="1026"/>
      <point x="381" y="1103"/>
    </contour>
    <contour>
      <point x="547" y="135" type="qcurve" smooth="yes"/>
      <point x="644" y="135"/>
      <point x="784" y="300"/>
      <point x="800" y="427" type="qcurve"/>
      <point x="798" y="432" type="line"/>
      <point x="300" y="432" type="line"/>
      <point x="300" y="407" type="line" smooth="yes"/>
      <point x="300" y="290"/>
      <point x="424" y="135"/>
    </contour>
  </outline>
</glyph>
<glyph name="circumflex" format="1">
  <advance width="828"/>
  <unicode hex="02C6"/>
  <outline>
    <contour>
      <point x="717" y="1277" type="line"/>
      <point x="717" y="1252" type="line"/>
      <point x="556" y="1252" type="line"/>
      <point x="409" y="1400" type="line"/>
      <point x="264" y="1252" type="line"/>
      <point x="104" y="1252" type="line"/>
      <point x="104" y="1278" type="line"/>
      <point x="350" y="1515" type="line"/>
      <point x="469" y="1515" type="line"/>
    </contour>
  </outline>
</glyph>
<glyph name="firsttonechinese" format="1">
  <advance width="1028"/>
  <unicode hex="02C9"/>
  <outline>
    <contour>
      <point x="875" y="1310" type="line"/>
      <point x="154" y="1310" type="line"/>
      <point x="154" y="1456" type="line"/>
      <point x="875" y="1456" type="line"/>
    </contour>
  </outline>
</glyph>
<glyph name="macron" format="2">
  <advance width="1028"/>
  <unicode hex="02C9"/>
  <outline>
    <contour>
      <point x="875" y="1310" type="line"/>
      <point x="154" y="1310" type="line"/>
      <point x="154" y="1456" type="line"/>
      <point x="875" y="1456" type="line"/>
    </contour>
  </outline>
</glyph>
<glyph name="breve" format="2">
  <advance width="836"/>
  <unicode hex="02D8"/>
  <outline>
    <contour>
      <point x="713" y="1456" type="line"/>
      <point x="715" y="1450" type="line"/>
      <point x="719" y="1334"/>
      <point x="557" y="1188"/>
      <point x="420" y="1188" type="qcurve" smooth="yes"/>
      <point x="282" y="1188"/>
      <point x="120" y="1334"/>
      <point x="125" y="1450" type="qcurve"/>
      <point x="127" y="1456" type="line"/>
      <point x="277" y="1456" type="line"/>
      <point x="277" y="1391"/>
      <point x="346" y="1308"/>
      <point x="420" y="1308" type="qcurve" smooth="yes"/>
      <point x="492" y="1308"/>
      <point x="562" y="1391"/>
      <point x="562" y="1456" type="qcurve"/>
    </contour>
  </outline>
</glyph>
<glyph name="ring" format="2">
  <advance width="687"/>
  <unicode hex="02DA"/>
  <outline>
    <contour>
      <point x="138" y="1308" type="qcurve" smooth="yes"/>
      <point x="138" y="1392"/>
      <point x="259" y="1506"/>
      <point x="346" y="1506" type="qcurve" smooth="yes"/>
      <point x="431" y="1506"/>
      <point x="551" y="1393"/>
      <point x="551" y="1308" type="qcurve" smooth="yes"/>
      <point x="551" y="1222"/>
      <point x="431" y="1114"/>
      <point x="346" y="1114" type="qcurve" smooth="yes"/>
      <point x="259" y="1114"/>
      <point x="138" y="1222"/>
    </contour>
    <contour>
      <point x="241" y="1308" type="qcurve" smooth="yes"/>
      <point x="241" y="1265"/>
      <point x="303" y="1204"/>
      <point x="346" y="1204" type="qcurve" smooth="yes"/>
      <point x="388" y="1204"/>
      <point x="448" y="1263"/>
      <point x="448" y="1308" type="qcurve" smooth="yes"/>
      <point x="448" y="1353"/>
      <point x="388" y="1415"/>
      <point x="346" y="1415" type="qcurve" smooth="yes"/>
      <point x="302" y="1415"/>
      <point x="241" y="1353"/>
    </contour>
  </outline>
</glyph>
<glyph name="ogonek" format="2">
  <advance width="473"/>
  <unicode hex="02DB"/>
  <outline>
    <contour>
      <point x="373" y="0" type="line"/>
      <point x="303" y="-52"/>
      <point x="224" y="-147"/>
      <point x="224" y="-201" type="qcurve" smooth="yes"/>
      <point x="224" y="-243"/>
      <point x="269" y="-291"/>
      <point x="320" y="-291" type="qcurve" smooth="yes"/>
      <point x="347" y="-291"/>
      <point x="393" y="-276"/>
      <point x="419" y="-265" type="qcurve"/>
      <point x="452" y="-388" type="line"/>
      <point x="416" y="-407"/>
      <point x="329" y="-432"/>
      <point x="269" y="-432" type="qcurve" smooth="yes"/>
      <point x="175" y="-432"/>
      <point x="54" y="-322"/>
      <point x="54" y="-223" type="qcurve" smooth="yes"/>
      <point x="54" y="-143"/>
      <point x="175" y="1"/>
      <point x="302" y="57" type="qcurve"/>
    </contour>
  </outline>
</glyph>
<glyph name="tilde" format="2">
  <advance width="948"/>
  <unicode hex="02DC"/>
  <outline>
    <contour>
      <point x="820" y="1491" type="line"/>
      <point x="820" y="1397"/>
      <point x="701" y="1267"/>
      <point x="611" y="1267" type="qcurve" smooth="yes"/>
      <point x="540" y="1267"/>
      <point x="386" y="1360"/>
      <point x="335" y="1360" type="qcurve" smooth="yes"/>
      <point x="293" y="1360"/>
      <point x="234" y="1295"/>
      <point x="234" y="1249" type="qcurve"/>
      <point x="127" y="1275" type="line"/>
      <point x="127" y="1368"/>
      <point x="244" y="1505"/>
      <point x="335" y="1505" type="qcurve" smooth="yes"/>
      <point x="391" y="1505"/>
      <point x="559" y="1411"/>
      <point x="611" y="1411" type="qcurve" smooth="yes"/>
      <point x="652" y="1411"/>
      <point x="712" y="1476"/>
      <point x="712" y="1523" type="qcurve"/>
    </contour>
  </outline>
</glyph>
<glyph name="hungarumlaut" format="2">
  <advance width="924"/>
  <unicode hex="02DD"/>
  <outline>
    <contour>
      <point x="614" y="1518" type="line"/>
      <point x="842" y="1518" type="line"/>
      <point x="845" y="1512" type="line"/>
      <point x="546" y="1252" type="line"/>
      <point x="375" y="1252" type="line"/>
      <point x="373" y="1257" type="line"/>
    </contour>
    <contour>
      <point x="288" y="1518" type="line"/>
      <point x="499" y="1518" type="line"/>
      <point x="501" y="1513" type="line"/>
      <point x="261" y="1252" type="line"/>
      <point x="104" y="1252" type="line"/>
    </contour>
  </outline>
</glyph>
<glyph name="uni02F3" format="2">
  <advance width="446"/>
  <unicode hex="02F3"/>
  <outline>
    <contour>
      <point x="72" y="-235" type="qcurve" smooth="yes"/>
      <point x="72" y="-170"/>
      <point x="163" y="-85"/>
      <point x="229" y="-85" type="qcurve" smooth="yes"/>
      <point x="292" y="-85"/>
      <point x="382" y="-170"/>
      <point x="382" y="-235" type="qcurve" smooth="yes"/>
      <point x="382" y="-299"/>
      <point x="293" y="-381"/>
      <point x="229" y="-381" type="qcurve" smooth="yes"/>
      <point x="163" y="-381"/>
      <point x="72" y="-299"/>
    </contour>
    <contour>
      <point x="161" y="-235" type="qcurve" smooth="yes"/>
      <point x="161" y="-261"/>
      <point x="201" y="-300"/>
      <point x="229" y="-300" type="qcurve" smooth="yes"/>
      <point x="255" y="-300"/>
      <point x="293" y="-262"/>
      <point x="293" y="-235" type="qcurve" smooth="yes"/>
      <point x="293" y="-205"/>
      <point x="255" y="-166"/>
      <point x="229" y="-166" type="qcurve" smooth="yes"/>
      <point x="201" y="-166"/>
      <point x="161" y="-206"/>
    </contour>
  </outline>
</glyph>
<glyph name="gravecomb" format="1">
  <advance width="511"/>
  <unicode hex="0300"/>
  <outline>
    <contour>
      <point x="394" y="1210" type="line"/>
      <point x="263" y="1210" type="line"/>
      <point x="87" y="1558" type="line"/>
      <point x="272" y="1558" type="line"/>
    </contour>
  </outline>
</glyph>
<glyph name="acutecomb" format="1">
  <advance width="505"/>
  <unicode hex="0301"/>
  <outline>
    <contour>
      <point x="244" y="1559" type="line"/>
      <point x="426" y="1559" type="line"/>
      <point x="238" y="1210" type="line"/>
      <point x="118" y="1210" type="line"/>
    </contour>
  </outline>
</glyph>
<glyph name="hook" format="2">
  <advance width="573"/>
  <unicode hex="0309"/>
  <outline>
    <contour>
      <point x="154" y="1242" type="line"/>
      <point x="153" y="1396" type="line"/>
      <point x="229" y="1400"/>
      <point x="294" y="1431"/>
      <point x="294" y="1469" type="qcurve" smooth="yes"/>
      <point x="294" y="1508"/>
      <point x="206" y="1546"/>
      <point x="135" y="1546" type="qcurve"/>
      <point x="142" y="1654" type="line"/>
      <point x="288" y="1654"/>
      <point x="446" y="1551"/>
      <point x="446" y="1465" type="qcurve" smooth="yes"/>
      <point x="446" y="1395"/>
      <point x="359" y="1322"/>
      <point x="295" y="1313" type="qcurve"/>
      <point x="294" y="1242" type="line"/>
    </contour>
  </outline>
</glyph>
<glyph name="hookabovecomb" format="1">
  <advance width="573"/>
  <unicode hex="0309"/>
  <outline>
    <contour>
      <point x="154" y="1242" type="line"/>
      <point x="153" y="1396" type="line"/>
      <point x="254.33333333333337" y="1401.3333333333335"/>
      <point x="294.0" y="1418.3333333333335"/>
      <point x="294" y="1469" type="curve" smooth="yes"/>
      <point x="294.0" y="1521.0"/>
      <point x="229.66666666666657" y="1546.0"/>
      <point x="135" y="1546" type="curve"/>
      <point x="142" y="1654" type="line"/>
      <point x="336.66666666666663" y="1654.0"/>
      <point x="446.0" y="1579.6666666666665"/>
      <point x="446" y="1465" type="curve" smooth="yes"/>
      <point x="446.0" y="1371.6666666666665"/>
      <point x="380.33333333333337" y="1325.0"/>
      <point x="295" y="1313" type="curve"/>
      <point x="294" y="1242" type="line"/>
    </contour>
  </outline>
</glyph>
<glyph name="dblgravecomb" format="1">
  <advance width="924"/>
  <unicode hex="030F"/>
  <outline>
    <contour>
      <point x="558" y="1257" type="line"/>
      <point x="556" y="1252" type="line"/>
      <point x="385" y="1252" type="line"/>
      <point x="86" y="1512" type="line"/>
      <point x="89" y="1518" type="line"/>
      <point x="317" y="1518" type="line"/>
    </contour>
    <contour>
      <point x="827" y="1252" type="line"/>
      <point x="670" y="1252" type="line"/>
      <point x="430" y="1513" type="line"/>
      <point x="432" y="1518" type="line"/>
      <point x="643" y="1518" type="line"/>
    </contour>
  </outline>
</glyph>
<glyph name="dotbelowcomb" format="1">
  <advance width="387"/>
  <unicode hex="0323"/>
  <outline>
    <contour>
      <point x="299" y="-337" type="line"/>
      <point x="81" y="-337" type="line"/>
      <point x="81" y="-137" type="line"/>
      <point x="299" y="-137" type="line"/>
    </contour>
  </outline>
</glyph>
<glyph name="Delta" format="1">
  <advance width="1432"/>
  <unicode hex="0394"/>
  <outline>
    <contour>
      <point x="647" y="1456" type="line"/>
      <point x="816" y="1456" type="line"/>
      <point x="1392" y="0" type="line"/>
      <point x="31" y="0" type="line"/>
    </contour>
    <contour>
      <point x="295" y="154" type="line"/>
      <point x="1132" y="154" type="line"/>
      <point x="732" y="1204" type="line"/>
      <point x="726" y="1204" type="line"/>
    </contour>
  </outline>
</glyph>
<glyph name="Theta" format="1">
  <advance width="1403"/>
  <unicode hex="0398"/>
  <outline>
    <contour>
      <point x="959" y="659" type="line"/>
      <point x="450" y="659" type="line"/>
      <point x="450" y="813" type="line"/>
      <point x="959" y="813" type="line"/>
    </contour>
    <contour>
      <point x="1368" y="717" type="line" smooth="yes"/>
      <point x="1368.0" y="293.0"/>
      <point x="1099.6666666666665" y="-21.0"/>
      <point x="713" y="-21" type="curve" smooth="yes"/>
      <point x="337.0" y="-21.0"/>
      <point x="79.0" y="293.0"/>
      <point x="79" y="717" type="curve" smooth="yes"/>
      <point x="79" y="738" type="line" smooth="yes"/>
      <point x="79.0" y="1160.6666666666665"/>
      <point x="337.0" y="1477.0"/>
      <point x="713" y="1477" type="curve" smooth="yes"/>
      <point x="1099.6666666666665" y="1477.0"/>
      <point x="1368.0" y="1160.6666666666665"/>
      <point x="1368" y="738" type="curve" smooth="yes"/>
    </contour>
    <contour>
      <point x="1171" y="740" type="line" smooth="yes"/>
      <point x="1171.0" y="1078.6666666666665"/>
      <point x="999.6666666666665" y="1315.0"/>
      <point x="713" y="1315" type="curve" smooth="yes"/>
      <point x="438.3333333333335" y="1315.0"/>
      <point x="276.0" y="1077.3333333333333"/>
      <point x="276" y="740" type="curve" smooth="yes"/>
      <point x="276" y="717" type="line" smooth="yes"/>
      <point x="276.0" y="375.66666666666674"/>
      <point x="438.3333333333335" y="140.0"/>
      <point x="713" y="140" type="curve" smooth="yes"/>
      <point x="1003.6666666666665" y="140.0"/>
      <point x="1171.0" y="374.3333333333335"/>
      <point x="1171" y="717" type="curve" smooth="yes"/>
    </contour>
  </outline>
</glyph>
<glyph name="Lambda" format="2">
  <advance width="1450"/>
  <unicode hex="039B"/>
  <outline>
    <contour>
      <point x="52" y="126" type="line"/>
      <point x="157" y="141" type="line"/>
      <point x="639" y="1456" type="line"/>
      <point x="809" y="1456" type="line"/>
      <point x="1291" y="141" type="line"/>
      <point x="1397" y="126" type="line"/>
      <point x="1397" y="0" type="line"/>
      <point x="979" y="0" type="line"/>
      <point x="979" y="126" type="line"/>
      <point x="1090" y="145" type="line"/>
      <point x="727" y="1171" type="line"/>
      <point x="721" y="1171" type="line"/>
      <point x="357" y="145" type="line"/>
      <point x="469" y="126" type="line"/>
      <point x="469" y="0" type="line"/>
      <point x="52" y="0" type="line"/>
    </contour>
  </outline>
</glyph>
<glyph name="Pi" format="1">
  <advance width="1576"/>
  <unicode hex="03A0"/>
  <outline>
    <contour>
      <point x="77" y="126" type="line"/>
      <point x="240" y="154" type="line"/>
      <point x="240" y="1301" type="line"/>
      <point x="77" y="1329" type="line"/>
      <point x="77" y="1456" type="line"/>
      <point x="1505" y="1456" type="line"/>
      <point x="1505" y="1329" type="line"/>
      <point x="1342" y="1301" type="line"/>
      <point x="1342" y="154" type="line"/>
      <point x="1505" y="126" type="line"/>
      <point x="1505" y="0" type="line"/>
      <point x="982" y="0" type="line"/>
      <point x="982" y="126" type="line"/>
      <point x="1145" y="154" type="line"/>
      <point x="1145" y="1301" type="line"/>
      <point x="437" y="1301" type="line"/>
      <point x="437" y="154" type="line"/>
      <point x="600" y="126" type="line"/>
      <point x="600" y="0" type="line"/>
      <point x="77" y="0" type="line"/>
    </contour>
  </outline>
</glyph>
